{
.appVersion = "1355";
copyright = "Copyright 2021 Google LLC. All Rights Reserved.";
customParameters = (
{
name = description;
value = "This font is designed based on Nüshu Duben, which the designer is Liu Zhao, the engineering is Eiso Chan, the quality assurance is Kushim Jiang, the design assistant is Kwat Ulan, the copywriting is Zhu Kui, and the adviser is Ms. He Yanxin.";
},
{
name = trademark;
value = "Noto is a trademark of Google Inc.";
},
{
name = licenseURL;
value = "http://scripts.sil.org/OFL";
},
{
name = sampleText;
value = "   ";
},
{
name = license;
value = "This Font Software is licensed under the SIL Open Font License, Version 1.1. This Font Software is distributed on an \"AS IS\" BASIS, WITHOUT WARRANTIES OR CONDITIONS OF ANY KIND, either express or implied. See the SIL Open Font License for the specific language, permissions and limitations governing your use of this Font Software.";
},
{
name = vendorID;
value = GOOG;
},
{
name = panose;
value = (
2,
0,
6,
9,
0,
0,
0,
0,
0,
0
);
},
{
name = unicodeRanges;
value = (
0,
57,
59
);
},
{
name = fsType;
value = (
);
},
{
name = blueShift;
value = 1;
},
{
name = glyphOrder;
value = (
.notdef,
space,
comma,
hyphen,
period,
zero,
one,
two,
three,
four,
five,
six,
seven,
eight,
nine,
A,
B,
C,
D,
E,
F,
G,
H,
I,
J,
K,
L,
M,
N,
O,
P,
Q,
R,
S,
T,
U,
V,
W,
X,
Y,
Z,
a,
b,
c,
d,
e,
f,
g,
h,
i,
j,
k,
l,
m,
n,
o,
p,
q,
r,
s,
t,
u,
v,
w,
x,
y,
z,
ensp,
emsp,
uni3000,
uni4E00,
uni4E66,
uni4F20,
uni4F53,
uni5973,
uni7EDF,
u16FE1,
u1B170,
u1B171,
u1B172,
u1B173,
u1B174,
u1B175,
u1B176,
u1B177,
u1B178,
u1B179,
u1B17A,
u1B17B,
u1B17C,
u1B17D,
u1B17E,
u1B17F,
u1B180,
u1B181,
u1B182,
u1B183,
u1B184,
u1B185,
u1B186,
u1B187,
u1B188,
u1B189,
u1B18A,
u1B18B,
u1B18C,
u1B18D,
u1B18E,
u1B18F,
u1B190,
u1B191,
u1B192,
u1B193,
u1B194,
u1B195,
u1B196,
u1B197,
u1B198,
u1B199,
u1B19A,
u1B19B,
u1B19C,
u1B19D,
u1B19E,
u1B19F,
u1B1A0,
u1B1A1,
u1B1A2,
u1B1A3,
u1B1A4,
u1B1A5,
u1B1A6,
u1B1A7,
u1B1A8,
u1B1A9,
u1B1AA,
u1B1AB,
u1B1AC,

glyphs = (
{
glyphname = .notdef;
layers = (
{
hints = (
{
horizontal = 1;
place = "{0, 34}";
type = Stem;
},
{
horizontal = 1;
place = "{648, 34}";
type = Stem;
},
{
place = "{364, 34}";
type = Stem;
},
{
place = "{602, 34}";
type = Stem;
}
);
layerId = "B7A40619-0288-44E4-A367-A835A45E2561";
paths = (
{
closed = 1;
nodes = (
"364 0 LINE",
"636 0 LINE",
"636 682 LINE",
"364 682 LINE"
);
},
{
closed = 1;
nodes = (
"398 34 LINE",
"398 648 LINE",
"602 648 LINE",
"602 34 LINE"
);
}
);
vertWidth = 1200;
width = 1000;
}
);
note = .notdef;
},
{
glyphname = comma;
layers = (
{
hints = (
{
horizontal = 1;
place = "{4, 174}";
type = Stem;
},
{
place = "{72, 201}";
type = Stem;
},
{
place = "{173, 100}";
type = Stem;
}
);
layerId = "B7A40619-0288-44E4-A367-A835A45E2561";
paths = (
{
closed = 1;
nodes = (
"84 -213 LINE",
"109.99 -204.32 OFFCURVE",
"133.94 -193.25 OFFCURVE",
"155.86 -179.8 CURVE SMOOTH",
"233.95 -131.1 OFFCURVE",
"273 -60.17 OFFCURVE",
"273 33 CURVE SMOOTH",
"272.93 53.83 OFFCURVE",
"270.87 73.06 OFFCURVE",
"266.84 90.69 CURVE SMOOTH",
"252.93 148.9 OFFCURVE",
"219.65 178 OFFCURVE",
"167 178 CURVE SMOOTH",
"150.96 177.85 OFFCURVE",
"135.79 174.62 OFFCURVE",
"121.5 168.3 CURVE SMOOTH",
"88.5 152.94 OFFCURVE",
"72 127.17 OFFCURVE",
"72 91 CURVE SMOOTH",
"72.17 75.02 OFFCURVE",
"75.87 60.35 OFFCURVE",
"83.1 46.99 CURVE SMOOTH",
"99.54 18.33 OFFCURVE",
"126.51 4 OFFCURVE",
"164 4 CURVE SMOOTH",
"173 4 LINE",
"173.2 -7.42 OFFCURVE",
"171.6 -18.64 OFFCURVE",
"168.18 -29.67 CURVE SMOOTH",
"154.04 -75.26 OFFCURVE",
"115.65 -109.71 OFFCURVE",
"53 -133 CURVE"
);
}
);
vertWidth = 1000;
width = 325;
}
);
note = comma;
unicode = 002C;
},
{
glyphname = hyphen;
layers = (
{
hints = (
{
horizontal = 1;
place = "{234, 105}";
type = Stem;
},
{
place = "{49, 273}";
type = Stem;
}
);
layerId = "B7A40619-0288-44E4-A367-A835A45E2561";
paths = (
{
closed = 1;
nodes = (
"49 234 LINE",
"322 234 LINE",
"322 339 LINE",
"49 339 LINE"
);
}
);
vertWidth = 1000;
width = 370;
}
);
note = hyphen;
unicode = 002D;
},
{
glyphname = period;
layers = (
{
hints = (
{
horizontal = 1;
place = "{-14, 21}";
target = up;
type = BottomGhost;
},
{
place = "{71, 183}";
type = Stem;
},
{
horizontal = 1;
place = "{-14, 192}";
type = Stem;
}
);
layerId = "B7A40619-0288-44E4-A367-A835A45E2561";
paths = (
{
closed = 1;
nodes = (
"178.94 -13.81 OFFCURVE",
"194.74 -9.51 OFFCURVE",
"209.41 -1.11 CURVE SMOOTH",
"239.14 16.82 OFFCURVE",
"254 44.53 OFFCURVE",
"254 82 CURVE SMOOTH",
"253.84 99.11 OFFCURVE",
"250.05 115.11 OFFCURVE",
"242.64 129.99 CURVE SMOOTH",
"225.89 161.99 OFFCURVE",
"199.01 178 OFFCURVE",
"162 178 CURVE SMOOTH",
"145.86 177.82 OFFCURVE",
"130.71 173.85 OFFCURVE",
"116.57 166.08 CURVE SMOOTH",
"86.19 148.5 OFFCURVE",
"71 120.47 OFFCURVE",
"71 82 CURVE SMOOTH",
"71.17 64.63 OFFCURVE",
"75.18 48.34 OFFCURVE",
"83.04 33.11 CURVE SMOOTH",
"100.05 1.7 OFFCURVE",
"126.37 -14 OFFCURVE",
"162 -14 CURVE SMOOTH"
);
}
);
vertWidth = 1000;
width = 325;
}
);
note = period;
unicode = 002E;
},
{
glyphname = zero;
layers = (
{
hints = (
{
horizontal = 1;
place = "{-14, 115}";
type = Stem;
},
{
horizontal = 1;
place = "{640, 114}";
type = Stem;
},
{
place = "{44, 139}";
type = Stem;
},
{
place = "{406, 139}";
type = Stem;
}
);
layerId = "B7A40619-0288-44E4-A367-A835A45E2561";
paths = (
{
closed = 1;
nodes = (
"344.1 -13.78 OFFCURVE",
"387.21 0.11 OFFCURVE",
"424.33 27.67 CURVE SMOOTH",
"504.78 88.64 OFFCURVE",
"545 203.75 OFFCURVE",
"545 373 CURVE SMOOTH",
"544.88 466.17 OFFCURVE",
"531.77 543.76 OFFCURVE",
"505.65 605.77 CURVE SMOOTH",
"463.47 704.59 OFFCURVE",
"393.25 754 OFFCURVE",
"295 754 CURVE SMOOTH",
"249.35 753.81 OFFCURVE",
"208.87 742.37 OFFCURVE",
"173.55 719.67 CURVE SMOOTH",
"87.18 662.96 OFFCURVE",
"44 547.4 OFFCURVE",
"44 373 CURVE SMOOTH",
"44.13 272.84 OFFCURVE",
"59.31 190.23 OFFCURVE",
"89.54 125.18 CURVE SMOOTH",
"133.21 32.4 OFFCURVE",
"201.7 -14 OFFCURVE",
"295 -14 CURVE SMOOTH"
);
},
{
closed = 1;
nodes = (
"220.8 101.55 OFFCURVE",
"183.47 192.21 OFFCURVE",
"183 373 CURVE SMOOTH",
"183.01 385.71 OFFCURVE",
"183.2 398.3 OFFCURVE",
"183.58 410.77 CURVE SMOOTH",
"188.43 563.59 OFFCURVE",
"225.57 640 OFFCURVE",
"295 640 CURVE SMOOTH",
"298.04 639.97 OFFCURVE",
"301.35 639.8 OFFCURVE",
"304.92 639.49 CURVE SMOOTH",
"372.3 632.41 OFFCURVE",
"406 543.58 OFFCURVE",
"406 373 CURVE SMOOTH",
"405.7 193.19 OFFCURVE",
"368.7 102.53 OFFCURVE",
"295 101 CURVE SMOOTH"
);
}
);
vertWidth = 1000;
width = 589;
}
);
note = zero;
unicode = 0030;
},
{
glyphname = one;
layers = (
{
hints = (
{
horizontal = 1;
place = "{0, 119}";
type = Stem;
},
{
horizontal = 1;
place = "{587, 154}";
type = Stem;
},
{
place = "{241, 147}";
type = Stem;
}
);
layerId = "B7A40619-0288-44E4-A367-A835A45E2561";
paths = (
{
closed = 1;
nodes = (
"82 0 LINE",
"527 0 LINE",
"527 119 LINE",
"388 119 LINE",
"388 741 LINE",
"279 741 LINE",
"233.99 712.42 OFFCURVE",
"176.66 691.42 OFFCURVE",
"107 678 CURVE",
"107 587 LINE",
"241 587 LINE",
"241 119 LINE",
"82 119 LINE"
);
}
);
vertWidth = 1000;
width = 589;
}
);
note = one;
unicode = 0031;
},
{
glyphname = two;
layers = (
{
hints = (
{
horizontal = 1;
place = "{0, 124}";
type = Stem;
},
{
horizontal = 1;
place = "{638, 116}";
type = Stem;
},
{
place = "{363, 141}";
type = Stem;
}
);
layerId = "B7A40619-0288-44E4-A367-A835A45E2561";
paths = (
{
closed = 1;
nodes = (
"43 0 LINE",
"539 0 LINE",
"539 124 LINE",
"379 124 LINE SMOOTH",
"347.7 123.94 OFFCURVE",
"307.37 121.27 OFFCURVE",
"258 116 CURVE",
"421.34 275.92 OFFCURVE",
"503.34 412.59 OFFCURVE",
"504 526 CURVE SMOOTH",
"503.79 580.12 OFFCURVE",
"489.95 626.67 OFFCURVE",
"462.48 665.63 CURVE SMOOTH",
"420.09 724.54 OFFCURVE",
"356.26 754 OFFCURVE",
"271 754 CURVE SMOOTH",
"250.95 753.95 OFFCURVE",
"231.68 752.33 OFFCURVE",
"213.18 749.16 CURVE SMOOTH",
"151.35 738.14 OFFCURVE",
"92.29 702.42 OFFCURVE",
"36 642 CURVE",
"116 562 LINE",
"162.61 612.06 OFFCURVE",
"207.94 637.4 OFFCURVE",
"252 638 CURVE SMOOTH",
"266.25 637.91 OFFCURVE",
"279.67 636 OFFCURVE",
"292.26 632.28 CURVE SMOOTH",
"339.42 617.48 OFFCURVE",
"363 579.39 OFFCURVE",
"363 518 CURVE SMOOTH",
"362.84 489.34 OFFCURVE",
"355.09 458.08 OFFCURVE",
"339.76 424.24 CURVE SMOOTH",
"301.21 340.72 OFFCURVE",
"202.29 227.64 OFFCURVE",
"43 85 CURVE"
);
}
);
vertWidth = 1000;
width = 589;
}
);
note = two;
unicode = 0032;
},
{
glyphname = three;
layers = (
{
hints = (
{
horizontal = 1;
place = "{-14, 120}";
type = Stem;
},
{
horizontal = 1;
place = "{328, 105}";
type = Stem;
},
{
horizontal = 1;
place = "{638, 116}";
type = Stem;
},
{
place = "{386, 148}";
type = Stem;
},
{
place = "{362, 148}";
type = Stem;
}
);
layerId = "B7A40619-0288-44E4-A367-A835A45E2561";
paths = (
{
closed = 1;
nodes = (
"335.33 -13.82 OFFCURVE",
"389 0.01 OFFCURVE",
"435.01 27.48 CURVE SMOOTH",
"501 67.53 OFFCURVE",
"534 125.37 OFFCURVE",
"534 201 CURVE SMOOTH",
"533.87 226.5 OFFCURVE",
"529.35 250.48 OFFCURVE",
"520.44 272.94 CURVE SMOOTH",
"497.9 327.91 OFFCURVE",
"453.42 364.6 OFFCURVE",
"387 383 CURVE",
"387 388 LINE",
"388.5 388.6 OFFCURVE",
"390.33 389.35 OFFCURVE",
"392.48 390.25 CURVE SMOOTH",
"470.82 423.33 OFFCURVE",
"510 478.92 OFFCURVE",
"510 557 CURVE SMOOTH",
"509.8 599.31 OFFCURVE",
"498.9 636.08 OFFCURVE",
"477.31 667.33 CURVE SMOOTH",
"436.35 725.11 OFFCURVE",
"367.25 754 OFFCURVE",
"270 754 CURVE SMOOTH",
"191.79 753.72 OFFCURVE",
"117.79 723.38 OFFCURVE",
"48 663 CURVE",
"123 573 LINE",
"169.14 615.75 OFFCURVE",
"215.8 637.42 OFFCURVE",
"263 638 CURVE SMOOTH",
"273.97 637.93 OFFCURVE",
"284.52 636.83 OFFCURVE",
"294.63 634.69 CURVE SMOOTH",
"339.54 624.47 OFFCURVE",
"362 594.91 OFFCURVE",
"362 546 CURVE SMOOTH",
"361.44 471.4 OFFCURVE",
"301.44 433.73 OFFCURVE",
"182 433 CURVE",
"182 328 LINE",
"233.35 327.92 OFFCURVE",
"274.83 323.06 OFFCURVE",
"306.44 313.41 CURVE SMOOTH",
"359.48 296.77 OFFCURVE",
"386 262.3 OFFCURVE",
"386 210 CURVE SMOOTH",
"385.86 194.22 OFFCURVE",
"382.91 179.59 OFFCURVE",
"377.14 166.1 CURVE SMOOTH",
"359 126.03 OFFCURVE",
"319.95 106 OFFCURVE",
"260 106 CURVE SMOOTH",
"202.3 106.34 OFFCURVE",
"147.3 131.68 OFFCURVE",
"95 182 CURVE",
"26 89 LINE",
"86.48 20.81 OFFCURVE",
"169.14 -13.52 OFFCURVE",
"274 -14 CURVE SMOOTH"
);
}
);
vertWidth = 1000;
width = 589;
}
);
note = three;
unicode = 0033;
},
{
glyphname = four;
layers = (
{
hints = (
{
horizontal = 1;
place = "{0, 21}";
target = up;
type = BottomGhost;
},
{
horizontal = 1;
place = "{192, 112}";
type = Stem;
},
{
horizontal = 1;
place = "{609, 132}";
type = Stem;
},
{
place = "{337, 137}";
type = Stem;
}
);
layerId = "B7A40619-0288-44E4-A367-A835A45E2561";
paths = (
{
closed = 1;
nodes = (
"164 304 LINE",
"279 488 LINE",
"300.04 528.12 OFFCURVE",
"319.71 568.46 OFFCURVE",
"338 609 CURVE",
"342 609 LINE",
"338.69 536.22 OFFCURVE",
"337.03 484.88 OFFCURVE",
"337 455 CURVE SMOOTH",
"337 304 LINE"
);
},
{
closed = 1;
nodes = (
"337 0 LINE",
"474 0 LINE",
"474 192 LINE",
"561 192 LINE",
"561 304 LINE",
"474 304 LINE",
"474 741 LINE",
"297 741 LINE",
"21 292 LINE",
"21 192 LINE",
"337 192 LINE"
);
}
);
vertWidth = 1000;
width = 589;
}
);
note = four;
unicode = 0034;
},
{
glyphname = five;
layers = (
{
hints = (
{
horizontal = 1;
place = "{-14, 120}";
type = Stem;
},
{
horizontal = 1;
place = "{376, 105}";
type = Stem;
},
{
horizontal = 1;
place = "{617, 124}";
type = Stem;
},
{
place = "{95, 130}";
type = Stem;
},
{
place = "{388, 147}";
type = Stem;
}
);
layerId = "B7A40619-0288-44E4-A367-A835A45E2561";
paths = (
{
closed = 1;
nodes = (
"336.54 -13.77 OFFCURVE",
"389.92 3.19 OFFCURVE",
"436.14 36.89 CURVE SMOOTH",
"502.04 85.71 OFFCURVE",
"535 155.42 OFFCURVE",
"535 246 CURVE SMOOTH",
"534.8 305.25 OFFCURVE",
"520.83 354.8 OFFCURVE",
"493.09 394.65 CURVE SMOOTH",
"452.16 452.22 OFFCURVE",
"390.13 481 OFFCURVE",
"307 481 CURVE SMOOTH",
"278.14 480.87 OFFCURVE",
"248.47 473.87 OFFCURVE",
"218 460 CURVE",
"232 617 LINE",
"501 617 LINE",
"501 741 LINE",
"105 741 LINE",
"85 381 LINE",
"152 337 LINE",
"157.72 340.72 OFFCURVE",
"163.22 344.19 OFFCURVE",
"168.49 347.43 CURVE SMOOTH",
"199.73 366.47 OFFCURVE",
"231.24 376 OFFCURVE",
"263 376 CURVE SMOOTH",
"282.16 375.88 OFFCURVE",
"299.9 372.66 OFFCURVE",
"316.21 366.35 CURVE SMOOTH",
"364.07 346.97 OFFCURVE",
"388 305.52 OFFCURVE",
"388 242 CURVE SMOOTH",
"387.86 216.12 OFFCURVE",
"383.01 192.99 OFFCURVE",
"373.46 172.59 CURVE SMOOTH",
"351.86 128.19 OFFCURVE",
"313.04 106 OFFCURVE",
"257 106 CURVE SMOOTH",
"200.04 106.34 OFFCURVE",
"145.71 131.34 OFFCURVE",
"94 181 CURVE",
"26 87 LINE",
"93.21 20.11 OFFCURVE",
"176.54 -13.56 OFFCURVE",
"276 -14 CURVE SMOOTH"
);
}
);
vertWidth = 1000;
width = 589;
}
);
note = five;
unicode = 0035;
},
{
glyphname = six;
layers = (
{
hints = (
{
horizontal = 1;
place = "{-14, 111}";
type = Stem;
},
{
horizontal = 1;
place = "{362, 104}";
type = Stem;
},
{
horizontal = 1;
place = "{636, 118}";
type = Stem;
},
{
place = "{50, 134}";
type = Stem;
},
{
place = "{414, 134}";
type = Stem;
}
);
layerId = "B7A40619-0288-44E4-A367-A835A45E2561";
paths = (
{
closed = 1;
nodes = (
"316.65 361.94 OFFCURVE",
"325.2 361.12 OFFCURVE",
"333.64 359.55 CURVE SMOOTH",
"387.21 348.7 OFFCURVE",
"414 306.85 OFFCURVE",
"414 234 CURVE SMOOTH",
"413.87 204.99 OFFCURVE",
"409.15 179.52 OFFCURVE",
"399.84 157.59 CURVE SMOOTH",
"382.05 117.19 OFFCURVE",
"353.1 97 OFFCURVE",
"313 97 CURVE",
"246.66 101.91 OFFCURVE",
"204.66 164.24 OFFCURVE",
"187 284 CURVE",
"188.2 285.95 OFFCURVE",
"189.62 288.2 OFFCURVE",
"191.28 290.77 CURVE SMOOTH",
"222.55 338.26 OFFCURVE",
"261.46 362 OFFCURVE",
"308 362 CURVE SMOOTH"
);
},
{
closed = 1;
nodes = (
"370.36 -13.75 OFFCURVE",
"418.32 2.74 OFFCURVE",
"459.89 35.49 CURVE SMOOTH",
"518.63 82.61 OFFCURVE",
"548 148.78 OFFCURVE",
"548 234 CURVE SMOOTH",
"547.86 282.61 OFFCURVE",
"539.47 324.57 OFFCURVE",
"522.83 359.88 CURVE SMOOTH",
"488.71 430.63 OFFCURVE",
"426.43 466 OFFCURVE",
"336 466 CURVE SMOOTH",
"325.91 466 OFFCURVE",
"315.22 464.7 OFFCURVE",
"303.93 462.1 CURVE SMOOTH",
"255.68 451 OFFCURVE",
"215.71 425.63 OFFCURVE",
"184 386 CURVE",
"185.26 423.24 OFFCURVE",
"189.13 456.82 OFFCURVE",
"195.61 486.75 CURVE SMOOTH",
"217.64 586.25 OFFCURVE",
"267.44 636 OFFCURVE",
"345 636 CURVE SMOOTH",
"349.89 635.96 OFFCURVE",
"355.19 635.61 OFFCURVE",
"360.89 634.95 CURVE SMOOTH",
"400.13 629.84 OFFCURVE",
"432.83 612.19 OFFCURVE",
"459 582 CURVE",
"537 670 LINE",
"482.33 725.54 OFFCURVE",
"415.33 753.54 OFFCURVE",
"336 754 CURVE SMOOTH",
"276.03 753.77 OFFCURVE",
"223.04 735.69 OFFCURVE",
"177.01 699.75 CURVE SMOOTH",
"92.34 632.59 OFFCURVE",
"50 519.34 OFFCURVE",
"50 360 CURVE SMOOTH",
"50.18 248.72 OFFCURVE",
"72.35 159.92 OFFCURVE",
"116.51 93.61 CURVE SMOOTH",
"164.93 21.87 OFFCURVE",
"231.43 -14 OFFCURVE",
"316 -14 CURVE SMOOTH"
);
}
);
vertWidth = 1000;
width = 589;
}
);
note = six;
unicode = 0036;
},
{
glyphname = seven;
layers = (
{
hints = (
{
horizontal = 1;
place = "{0, 21}";
target = up;
type = BottomGhost;
},
{
horizontal = 1;
place = "{617, 124}";
type = Stem;
},
{
place = "{186, 149}";
type = Stem;
}
);
layerId = "B7A40619-0288-44E4-A367-A835A45E2561";
paths = (
{
closed = 1;
nodes = (
"335 0 LINE",
"341.28 151.12 OFFCURVE",
"354.45 264.82 OFFCURVE",
"374.53 341.11 CURVE SMOOTH",
"402.14 445.1 OFFCURVE",
"457.96 548.4 OFFCURVE",
"542 651 CURVE",
"542 741 LINE",
"50 741 LINE",
"50 617 LINE",
"383 617 LINE",
"331.7 545.55 OFFCURVE",
"291.71 475.09 OFFCURVE",
"263.03 405.6 CURVE SMOOTH",
"220.05 300.69 OFFCURVE",
"194.38 165.49 OFFCURVE",
"186 0 CURVE"
);
}
);
vertWidth = 1000;
width = 589;
}
);
note = seven;
unicode = 0037;
},
{
glyphname = eight;
layers = (
{
hints = (
{
horizontal = 1;
place = "{-14, 104}";
type = Stem;
},
{
horizontal = 1;
place = "{650, 103}";
type = Stem;
},
{
place = "{406, 137}";
type = Stem;
},
{
place = "{76, 130}";
type = Stem;
},
{
place = "{394, 120}";
type = Stem;
},
{
place = "{47, 127}";
type = Stem;
}
);
layerId = "B7A40619-0288-44E4-A367-A835A45E2561";
paths = (
{
closed = 1;
nodes = (
"358.57 -13.8 OFFCURVE",
"413.51 1.26 OFFCURVE",
"458.8 31.18 CURVE SMOOTH",
"514.93 68.93 OFFCURVE",
"543 119.87 OFFCURVE",
"543 184 CURVE SMOOTH",
"542.52 270.27 OFFCURVE",
"501.18 336.27 OFFCURVE",
"419 382 CURVE",
"419 387 LINE",
"424.83 391.21 OFFCURVE",
"430.85 395.95 OFFCURVE",
"437.04 401.22 CURVE SMOOTH",
"488.34 445.68 OFFCURVE",
"514 497.28 OFFCURVE",
"514 556 CURVE SMOOTH",
"513.8 599.19 OFFCURVE",
"502.8 637.01 OFFCURVE",
"481.02 669.46 CURVE SMOOTH",
"442.71 725.15 OFFCURVE",
"382.04 753 OFFCURVE",
"299 753 CURVE SMOOTH",
"247.03 752.81 OFFCURVE",
"201.7 740.91 OFFCURVE",
"163 717.28 CURVE SMOOTH",
"105 681.15 OFFCURVE",
"76 628.06 OFFCURVE",
"76 558 CURVE SMOOTH",
"76.41 488.26 OFFCURVE",
"109.08 429.59 OFFCURVE",
"174 382 CURVE",
"174 377 LINE",
"173.62 376.8 OFFCURVE",
"172.91 376.42 OFFCURVE",
"171.86 375.87 CURVE SMOOTH",
"88.62 331.64 OFFCURVE",
"47 267.68 OFFCURVE",
"47 184 CURVE SMOOTH",
"47.29 136.26 OFFCURVE",
"64.32 94.64 OFFCURVE",
"98.08 59.14 CURVE SMOOTH",
"145.49 10.38 OFFCURVE",
"210.8 -14 OFFCURVE",
"294 -14 CURVE SMOOTH"
);
},
{
closed = 1;
nodes = (
"320.45 431.19 OFFCURVE",
"302.81 439.11 OFFCURVE",
"288.09 446.75 CURVE SMOOTH",
"233.36 475.49 OFFCURVE",
"206 512.57 OFFCURVE",
"206 558 CURVE SMOOTH",
"206.14 573.78 OFFCURVE",
"209.11 588.33 OFFCURVE",
"214.91 601.63 CURVE SMOOTH",
"229.81 633.87 OFFCURVE",
"256.84 650 OFFCURVE",
"296 650 CURVE SMOOTH",
"312.09 649.86 OFFCURVE",
"326.96 646.86 OFFCURVE",
"340.6 640.99 CURVE SMOOTH",
"376.2 624.78 OFFCURVE",
"394 593.45 OFFCURVE",
"394 547 CURVE SMOOTH",
"393.72 502.04 OFFCURVE",
"376.05 460.71 OFFCURVE",
"341 423 CURVE"
);
},
{
closed = 1;
nodes = (
"274.44 90.16 OFFCURVE",
"252.77 95.06 OFFCURVE",
"232.98 104.72 CURVE SMOOTH",
"193.66 124.64 OFFCURVE",
"174 156.4 OFFCURVE",
"174 200 CURVE SMOOTH",
"176.68 251.73 OFFCURVE",
"199.35 297.4 OFFCURVE",
"242 337 CURVE",
"282.74 320.44 OFFCURVE",
"313.03 306.5 OFFCURVE",
"332.88 295.21 CURVE SMOOTH",
"381.63 267.14 OFFCURVE",
"406 231.74 OFFCURVE",
"406 189 CURVE SMOOTH",
"405.87 173.75 OFFCURVE",
"403.2 159.59 OFFCURVE",
"397.98 146.53 CURVE SMOOTH",
"382.01 108.84 OFFCURVE",
"348.69 90 OFFCURVE",
"298 90 CURVE SMOOTH"
);
}
);
vertWidth = 1000;
width = 589;
}
);
note = eight;
unicode = 0038;
},
{
glyphname = nine;
layers = (
{
hints = (
{
horizontal = 1;
place = "{-14, 120}";
type = Stem;
},
{
horizontal = 1;
place = "{274, 105}";
type = Stem;
},
{
horizontal = 1;
place = "{643, 111}";
type = Stem;
},
{
place = "{40, 135}";
type = Stem;
},
{
place = "{404, 135}";
type = Stem;
}
);
layerId = "B7A40619-0288-44E4-A367-A835A45E2561";
paths = (
{
closed = 1;
nodes = (
"175.12 534.35 OFFCURVE",
"179.25 558.54 OFFCURVE",
"187.39 579.55 CURVE SMOOTH",
"204.41 621.85 OFFCURVE",
"233.62 643 OFFCURVE",
"275 643 CURVE SMOOTH",
"344.05 639.34 OFFCURVE",
"386.38 578.01 OFFCURVE",
"402 459 CURVE",
"400.81 457.03 OFFCURVE",
"399.4 454.75 OFFCURVE",
"397.76 452.16 CURVE SMOOTH",
"366.25 403.39 OFFCURVE",
"327 379 OFFCURVE",
"280 379 CURVE SMOOTH",
"272.85 379.05 OFFCURVE",
"265.68 379.62 OFFCURVE",
"258.48 380.7 CURVE SMOOTH",
"202.83 389.93 OFFCURVE",
"175 432.03 OFFCURVE",
"175 507 CURVE SMOOTH"
);
},
{
closed = 1;
nodes = (
"315.15 -13.76 OFFCURVE",
"368.33 5.3 OFFCURVE",
"414.54 43.17 CURVE SMOOTH",
"497.51 112.24 OFFCURVE",
"539 226.85 OFFCURVE",
"539 387 CURVE SMOOTH",
"538.81 496.49 OFFCURVE",
"516.49 583.81 OFFCURVE",
"472.03 648.94 CURVE SMOOTH",
"423.55 718.98 OFFCURVE",
"357.21 754 OFFCURVE",
"273 754 CURVE SMOOTH",
"218.51 753.76 OFFCURVE",
"170.5 737.56 OFFCURVE",
"128.95 705.42 CURVE SMOOTH",
"69.65 658.69 OFFCURVE",
"40 592.55 OFFCURVE",
"40 507 CURVE SMOOTH",
"40.15 455.07 OFFCURVE",
"49.9 410.64 OFFCURVE",
"69.25 373.73 CURVE SMOOTH",
"104.87 307.24 OFFCURVE",
"165.79 274 OFFCURVE",
"252 274 CURVE SMOOTH",
"261.89 274.08 OFFCURVE",
"272.52 275.3 OFFCURVE",
"283.9 277.66 CURVE SMOOTH",
"332.63 288.37 OFFCURVE",
"372.66 313.82 OFFCURVE",
"404 354 CURVE",
"402.9 325.89 OFFCURVE",
"400.35 299.74 OFFCURVE",
"396.35 275.54 CURVE SMOOTH",
"377.23 162.51 OFFCURVE",
"327.12 106 OFFCURVE",
"246 106 CURVE SMOOTH",
"242.2 106.03 OFFCURVE",
"238.02 106.23 OFFCURVE",
"233.47 106.61 CURVE SMOOTH",
"192.38 110.55 OFFCURVE",
"157.89 128.01 OFFCURVE",
"130 159 CURVE",
"52 70 LINE",
"106.67 14.44 OFFCURVE",
"174.34 -13.56 OFFCURVE",
"255 -14 CURVE SMOOTH"
);
}
);
vertWidth = 1000;
width = 589;
}
);
note = nine;
unicode = 0039;
},
{
glyphname = A;
layers = (
{
hints = (
{
horizontal = 1;
place = "{0, 21}";
target = up;
type = BottomGhost;
},
{
horizontal = 1;
place = "{190, 115}";
type = Stem;
},
{
horizontal = 1;
place = "{628, 113}";
type = Stem;
},
{
place = "{-4, 649}";
type = Stem;
}
);
layerId = "B7A40619-0288-44E4-A367-A835A45E2561";
paths = (
{
closed = 1;
nodes = (
"252 386 LINE SMOOTH",
"275.12 466.97 OFFCURVE",
"296.12 547.64 OFFCURVE",
"315 628 CURVE",
"320 628 LINE",
"359.58 477.07 OFFCURVE",
"380.92 396.4 OFFCURVE",
"384 386 CURVE SMOOTH",
"406 305 LINE",
"230 305 LINE"
);
},
{
closed = 1;
nodes = (
"-4 0 LINE",
"146 0 LINE",
"198 190 LINE",
"438 190 LINE",
"490 0 LINE",
"645 0 LINE",
"407 741 LINE",
"233 741 LINE"
);
}
);
vertWidth = 1000;
width = 641;
}
);
note = A;
unicode = 0041;
},
{
glyphname = B;
layers = (
{
hints = (
{
horizontal = 1;
place = "{0, 114}";
type = Stem;
},
{
horizontal = 1;
place = "{330, 109}";
type = Stem;
},
{
horizontal = 1;
place = "{627, 114}";
type = Stem;
},
{
place = "{91, 148}";
type = Stem;
},
{
place = "{498, 144}";
type = Stem;
},
{
place = "{460, 144}";
type = Stem;
}
);
layerId = "B7A40619-0288-44E4-A367-A835A45E2561";
paths = (
{
closed = 1;
nodes = (
"91 0 LINE",
"355 0 LINE SMOOTH",
"414.15 0.11 OFFCURVE",
"465.88 8.99 OFFCURVE",
"510.2 26.64 CURVE SMOOTH",
"598.07 62.22 OFFCURVE",
"642 126.01 OFFCURVE",
"642 218 CURVE SMOOTH",
"641.92 237.19 OFFCURVE",
"639.66 255.45 OFFCURVE",
"635.22 272.78 CURVE SMOOTH",
"618.34 336 OFFCURVE",
"574.26 376.08 OFFCURVE",
"503 393 CURVE",
"503 398 LINE",
"520.93 404.46 OFFCURVE",
"537.46 414.93 OFFCURVE",
"552.6 429.41 CURVE SMOOTH",
"586.87 463.29 OFFCURVE",
"604 506.15 OFFCURVE",
"604 558 CURVE SMOOTH",
"603.24 678.97 OFFCURVE",
"513.9 739.97 OFFCURVE",
"336 741 CURVE SMOOTH",
"91 741 LINE"
);
},
{
closed = 1;
nodes = (
"239 439 LINE",
"239 627 LINE",
"327 627 LINE SMOOTH",
"343.93 627 OFFCURVE",
"359.07 626.05 OFFCURVE",
"372.42 624.16 CURVE SMOOTH",
"430.8 615.88 OFFCURVE",
"460 586.49 OFFCURVE",
"460 536 CURVE SMOOTH",
"456.79 475.65 OFFCURVE",
"411.79 443.31 OFFCURVE",
"325 439 CURVE SMOOTH"
);
},
{
closed = 1;
nodes = (
"239 114 LINE",
"239 330 LINE",
"342 330 LINE SMOOTH",
"444.7 329.6 OFFCURVE",
"496.7 295.26 OFFCURVE",
"498 227 CURVE SMOOTH",
"497.31 152.65 OFFCURVE",
"445.31 114.98 OFFCURVE",
"342 114 CURVE SMOOTH"
);
}
);
vertWidth = 1000;
width = 681;
}
);
note = B;
unicode = 0042;
},
{
glyphname = C;
layers = (
{
hints = (
{
horizontal = 1;
place = "{-14, 128}";
type = Stem;
},
{
horizontal = 1;
place = "{627, 127}";
type = Stem;
},
{
place = "{54, 151}";
type = Stem;
}
);
layerId = "B7A40619-0288-44E4-A367-A835A45E2561";
paths = (
{
closed = 1;
nodes = (
"487.36 -13.68 OFFCURVE",
"566.03 22.65 OFFCURVE",
"629 95 CURVE",
"551 187 LINE",
"505.94 138.89 OFFCURVE",
"454.94 114.56 OFFCURVE",
"398 114 CURVE SMOOTH",
"358.24 114.22 OFFCURVE",
"323.24 125.31 OFFCURVE",
"292.99 147.27 CURVE SMOOTH",
"234.33 190.98 OFFCURVE",
"205 265.89 OFFCURVE",
"205 372 CURVE SMOOTH",
"205.18 437.95 OFFCURVE",
"219.07 493.55 OFFCURVE",
"246.67 538.78 CURVE SMOOTH",
"283.21 597.59 OFFCURVE",
"334.65 627 OFFCURVE",
"401 627 CURVE SMOOTH",
"448.23 626.68 OFFCURVE",
"493.9 606.01 OFFCURVE",
"538 565 CURVE",
"615 659 LINE",
"614.65 659.36 OFFCURVE",
"613.99 660.05 OFFCURVE",
"612.99 661.07 CURVE SMOOTH",
"552.42 723.02 OFFCURVE",
"480.75 754 OFFCURVE",
"398 754 CURVE SMOOTH",
"309.8 753.73 OFFCURVE",
"234.26 724.84 OFFCURVE",
"171.37 667.33 CURVE SMOOTH",
"93.13 594.92 OFFCURVE",
"54 494.81 OFFCURVE",
"54 367 CURVE SMOOTH",
"54.24 253.65 OFFCURVE",
"84.68 162.2 OFFCURVE",
"145.3 92.68 CURVE SMOOTH",
"208.08 21.56 OFFCURVE",
"290.65 -14 OFFCURVE",
"393 -14 CURVE SMOOTH"
);
}
);
vertWidth = 1000;
width = 657;
}
);
note = C;
unicode = 0043;
},
{
glyphname = D;
layers = (
{
hints = (
{
horizontal = 1;
place = "{0, 119}";
type = Stem;
},
{
horizontal = 1;
place = "{622, 119}";
type = Stem;
},
{
place = "{91, 148}";
type = Stem;
},
{
place = "{509, 151}";
type = Stem;
}
);
layerId = "B7A40619-0288-44E4-A367-A835A45E2561";
paths = (
{
closed = 1;
nodes = (
"91 0 LINE",
"302 0 LINE SMOOTH",
"377.78 0.15 OFFCURVE",
"442.99 15 OFFCURVE",
"497.63 44.54 CURVE SMOOTH",
"605.88 103.9 OFFCURVE",
"660 213.39 OFFCURVE",
"660 373 CURVE SMOOTH",
"659.87 445.39 OFFCURVE",
"648.06 507.98 OFFCURVE",
"624.56 560.77 CURVE SMOOTH",
"570.26 680.92 OFFCURVE",
"460.07 741 OFFCURVE",
"294 741 CURVE SMOOTH",
"91 741 LINE"
);
},
{
closed = 1;
nodes = (
"239 119 LINE",
"239 622 LINE",
"285 622 LINE SMOOTH",
"289.66 621.99 OFFCURVE",
"294.58 621.9 OFFCURVE",
"299.76 621.73 CURVE SMOOTH",
"439.25 616.56 OFFCURVE",
"509 533.65 OFFCURVE",
"509 373 CURVE SMOOTH",
"508.37 205.08 OFFCURVE",
"433.7 120.41 OFFCURVE",
"285 119 CURVE SMOOTH"
);
}
);
vertWidth = 1000;
width = 714;
}
);
note = D;
unicode = 0044;
},
{
glyphname = E;
layers = (
{
hints = (
{
horizontal = 1;
place = "{0, 124}";
type = Stem;
},
{
horizontal = 1;
place = "{322, 124}";
type = Stem;
},
{
horizontal = 1;
place = "{617, 124}";
type = Stem;
},
{
place = "{91, 148}";
type = Stem;
}
);
layerId = "B7A40619-0288-44E4-A367-A835A45E2561";
paths = (
{
closed = 1;
nodes = (
"91 0 LINE",
"556 0 LINE",
"556 124 LINE",
"239 124 LINE",
"239 322 LINE",
"499 322 LINE",
"499 446 LINE",
"239 446 LINE",
"239 617 LINE",
"545 617 LINE",
"545 741 LINE",
"91 741 LINE"
);
}
);
vertWidth = 1000;
width = 615;
}
);
note = E;
unicode = 0045;
},
{
glyphname = F;
layers = (
{
hints = (
{
horizontal = 1;
place = "{0, 21}";
target = up;
type = BottomGhost;
},
{
horizontal = 1;
place = "{300, 124}";
type = Stem;
},
{
horizontal = 1;
place = "{617, 124}";
type = Stem;
},
{
place = "{91, 148}";
type = Stem;
}
);
layerId = "B7A40619-0288-44E4-A367-A835A45E2561";
paths = (
{
closed = 1;
nodes = (
"91 0 LINE",
"239 0 LINE",
"239 300 LINE",
"502 300 LINE",
"502 424 LINE",
"239 424 LINE",
"239 617 LINE",
"547 617 LINE",
"547 741 LINE",
"91 741 LINE"
);
}
);
vertWidth = 1000;
width = 585;
}
);
note = F;
unicode = 0046;
},
{
glyphname = G;
layers = (
{
hints = (
{
horizontal = 1;
place = "{-14, 128}";
type = Stem;
},
{
horizontal = 1;
place = "{288, 121}";
type = Stem;
},
{
horizontal = 1;
place = "{627, 127}";
type = Stem;
},
{
place = "{54, 151}";
type = Stem;
},
{
place = "{517, 132}";
type = Stem;
}
);
layerId = "B7A40619-0288-44E4-A367-A835A45E2561";
paths = (
{
closed = 1;
nodes = (
"425.07 -13.96 OFFCURVE",
"441.35 -12.95 OFFCURVE",
"457.85 -10.96 CURVE SMOOTH",
"536.91 -1.06 OFFCURVE",
"600.62 27.6 OFFCURVE",
"649 75 CURVE",
"649 409 LINE",
"386 409 LINE",
"386 288 LINE",
"517 288 LINE",
"517 142 LINE",
"495.14 123.72 OFFCURVE",
"464.47 114.39 OFFCURVE",
"425 114 CURVE SMOOTH",
"389.08 114.12 OFFCURVE",
"356.88 120.11 OFFCURVE",
"328.39 131.94 CURVE SMOOTH",
"246.13 167.05 OFFCURVE",
"205 247.07 OFFCURVE",
"205 372 CURVE SMOOTH",
"205.17 435.25 OFFCURVE",
"218.37 488.87 OFFCURVE",
"244.59 532.87 CURVE SMOOTH",
"282.69 595.63 OFFCURVE",
"339.16 627.01 OFFCURVE",
"414 627.01 CURVE SMOOTH",
"467.04 626.72 OFFCURVE",
"515.7 606.05 OFFCURVE",
"560 565.01 CURVE",
"638 659.01 LINE",
"576.05 721.92 OFFCURVE",
"499.72 753.58 OFFCURVE",
"409 754.01 CURVE SMOOTH",
"317.08 753.75 OFFCURVE",
"238.93 725.18 OFFCURVE",
"174.56 668.29 CURVE SMOOTH",
"94.19 596.41 OFFCURVE",
"54 495.98 OFFCURVE",
"54 367.01 CURVE SMOOTH",
"54.24 256.86 OFFCURVE",
"83.58 167.57 OFFCURVE",
"142.04 99.12 CURVE SMOOTH",
"207.25 23.71 OFFCURVE",
"296.24 -13.99 OFFCURVE",
"409 -13.99 CURVE SMOOTH"
);
}
);
vertWidth = 1000;
width = 717;
}
);
note = G;
unicode = 0047;
},
{
glyphname = H;
layers = (
{
hints = (
{
horizontal = 1;
place = "{0, 21}";
target = up;
type = BottomGhost;
},
{
horizontal = 1;
place = "{320, 129}";
type = Stem;
},
{
horizontal = 1;
place = "{741, -20}";
target = down;
type = TopGhost;
},
{
place = "{91, 148}";
type = Stem;
},
{
place = "{519, 147}";
type = Stem;
}
);
layerId = "B7A40619-0288-44E4-A367-A835A45E2561";
paths = (
{
closed = 1;
nodes = (
"91 0 LINE",
"239 0 LINE",
"239 320 LINE",
"519 320 LINE",
"519 0 LINE",
"666 0 LINE",
"666 741 LINE",
"519 741 LINE",
"519 449 LINE",
"239 449 LINE",
"239 741 LINE",
"91 741 LINE"
);
}
);
vertWidth = 1000;
width = 757;
}
);
note = H;
unicode = 0048;
},
{
glyphname = I;
layers = (
{
hints = (
{
horizontal = 1;
place = "{0, 21}";
target = up;
type = BottomGhost;
},
{
horizontal = 1;
place = "{741, -20}";
target = down;
type = TopGhost;
},
{
place = "{91, 148}";
type = Stem;
}
);
layerId = "B7A40619-0288-44E4-A367-A835A45E2561";
paths = (
{
closed = 1;
nodes = (
"91 0 LINE",
"239 0 LINE",
"239 741 LINE",
"91 741 LINE"
);
}
);
vertWidth = 1000;
width = 330;
}
);
note = I;
unicode = 0049;
},
{
glyphname = J;
layers = (
{
hints = (
{
horizontal = 1;
place = "{-14, 128}";
type = Stem;
},
{
horizontal = 1;
place = "{741, -20}";
target = down;
type = TopGhost;
},
{
place = "{333, 148}";
type = Stem;
}
);
layerId = "B7A40619-0288-44E4-A367-A835A45E2561";
paths = (
{
closed = 1;
nodes = (
"306.44 -13.8 OFFCURVE",
"352.41 -0.43 OFFCURVE",
"389.91 26.1 CURVE SMOOTH",
"450.64 70.04 OFFCURVE",
"481 141 OFFCURVE",
"481 239 CURVE SMOOTH",
"481 741 LINE",
"333 741 LINE",
"333 251 LINE SMOOTH",
"332.93 225.71 OFFCURVE",
"330.73 203.84 OFFCURVE",
"326.39 185.41 CURVE SMOOTH",
"314.68 137.8 OFFCURVE",
"283.89 114 OFFCURVE",
"234 114 CURVE SMOOTH",
"188.75 114.45 OFFCURVE",
"152.09 140.12 OFFCURVE",
"124 191 CURVE",
"23 116 LINE",
"72.36 30.08 OFFCURVE",
"148.7 -13.25 OFFCURVE",
"252 -14 CURVE SMOOTH"
);
}
);
vertWidth = 1000;
width = 568;
}
);
note = J;
unicode = 004A;
},
{
glyphname = K;
layers = (
{
hints = (
{
horizontal = 1;
place = "{0, 21}";
target = up;
type = BottomGhost;
},
{
horizontal = 1;
place = "{741, -20}";
target = down;
type = TopGhost;
},
{
place = "{91, 148}";
type = Stem;
}
);
layerId = "B7A40619-0288-44E4-A367-A835A45E2561";
paths = (
{
closed = 1;
nodes = (
"91 0 LINE",
"239 0 LINE",
"239 208 LINE",
"336 333 LINE",
"528 0 LINE",
"690 0 LINE",
"424 449 LINE",
"650 741 LINE",
"487 741 LINE",
"242 419 LINE",
"239 419 LINE",
"239 741 LINE",
"91 741 LINE"
);
}
);
vertWidth = 1000;
width = 686;
}
);
note = K;
unicode = 004B;
},
{
glyphname = L;
layers = (
{
hints = (
{
horizontal = 1;
place = "{0, 124}";
type = Stem;
},
{
horizontal = 1;
place = "{741, -20}";
target = down;
type = TopGhost;
},
{
place = "{91, 148}";
type = Stem;
}
);
layerId = "B7A40619-0288-44E4-A367-A835A45E2561";
paths = (
{
closed = 1;
nodes = (
"91 0 LINE",
"540 0 LINE",
"540 124 LINE",
"239 124 LINE",
"239 741 LINE",
"91 741 LINE"
);
}
);
vertWidth = 1000;
width = 578;
}
);
note = L;
unicode = 004C;
},
{
glyphname = M;
layers = (
{
hints = (
{
horizontal = 1;
place = "{0, 21}";
target = up;
type = BottomGhost;
},
{
horizontal = 1;
place = "{67, 185}";
type = Stem;
},
{
horizontal = 1;
place = "{552, 189}";
type = Stem;
},
{
place = "{91, 133}";
type = Stem;
},
{
place = "{628, 135}";
type = Stem;
},
{
horizontal = 1;
place = "{741, -20}";
target = down;
type = TopGhost;
}
);
layerId = "B7A40619-0288-44E4-A367-A835A45E2561";
paths = (
{
closed = 1;
nodes = (
"91 0 LINE",
"224 0 LINE",
"224 309 LINE SMOOTH",
"223.95 344.25 OFFCURVE",
"217.62 425.25 OFFCURVE",
"205 552 CURVE",
"209 552 LINE",
"268 378 LINE",
"383 67 LINE",
"468 67 LINE",
"582 378 LINE",
"642 552 LINE",
"647 552 LINE",
"634.4 441.65 OFFCURVE",
"628.07 360.65 OFFCURVE",
"628 309 CURVE SMOOTH",
"628 0 LINE",
"763 0 LINE",
"763 741 LINE",
"599 741 LINE",
"476 394 LINE SMOOTH",
"470.54 378.25 OFFCURVE",
"462.75 353.74 OFFCURVE",
"452.62 320.48 CURVE SMOOTH",
"443.32 289.86 OFFCURVE",
"436.12 267.03 OFFCURVE",
"431 252 CURVE",
"426 252 LINE",
"422.51 262.94 OFFCURVE",
"417.26 279.84 OFFCURVE",
"410.23 302.72 CURVE SMOOTH",
"397.61 343.82 OFFCURVE",
"387.87 374.25 OFFCURVE",
"381 394 CURVE SMOOTH",
"255 741 LINE",
"91 741 LINE"
);
}
);
vertWidth = 1000;
width = 854;
}
);
note = M;
unicode = 004D;
},
{
glyphname = N;
layers = (
{
hints = (
{
horizontal = 1;
place = "{0, 21}";
target = up;
type = BottomGhost;
},
{
horizontal = 1;
place = "{555, 186}";
type = Stem;
},
{
place = "{91, 140}";
type = Stem;
},
{
place = "{517, 140}";
type = Stem;
},
{
horizontal = 1;
place = "{0, 186}";
type = Stem;
},
{
horizontal = 1;
place = "{741, -20}";
target = down;
type = TopGhost;
}
);
layerId = "B7A40619-0288-44E4-A367-A835A45E2561";
paths = (
{
closed = 1;
nodes = (
"91 0 LINE",
"231 0 LINE",
"231 297 LINE SMOOTH",
"230.99 302.52 OFFCURVE",
"230.94 308.48 OFFCURVE",
"230.84 314.9 CURVE SMOOTH",
"230.33 344.82 OFFCURVE",
"224.38 424.85 OFFCURVE",
"213 555 CURVE",
"218 555 LINE",
"293 396 LINE",
"507 0 LINE",
"657 0 LINE",
"657 741 LINE",
"517 741 LINE",
"517 445 LINE SMOOTH",
"517.01 437.08 OFFCURVE",
"517.12 428.52 OFFCURVE",
"517.35 419.31 CURVE SMOOTH",
"518.03 393.1 OFFCURVE",
"524.25 315.33 OFFCURVE",
"536 186 CURVE",
"531 186 LINE",
"457 346 LINE",
"242 741 LINE",
"91 741 LINE"
);
}
);
vertWidth = 1000;
width = 749;
}
);
note = N;
unicode = 004E;
},
{
glyphname = O;
layers = (
{
hints = (
{
horizontal = 1;
place = "{-14, 128}";
type = Stem;
},
{
horizontal = 1;
place = "{627, 127}";
type = Stem;
},
{
place = "{54, 151}";
type = Stem;
},
{
place = "{565, 151}";
type = Stem;
}
);
layerId = "B7A40619-0288-44E4-A367-A835A45E2561";
paths = (
{
closed = 1;
nodes = (
"469.98 -13.74 OFFCURVE",
"541.55 12.49 OFFCURVE",
"599.72 64.69 CURVE SMOOTH",
"677.24 135.22 OFFCURVE",
"716 237.99 OFFCURVE",
"716 373 CURVE SMOOTH",
"715.79 479.06 OFFCURVE",
"690.55 565.94 OFFCURVE",
"640.27 633.65 CURVE SMOOTH",
"579.94 713.89 OFFCURVE",
"494.85 754 OFFCURVE",
"385 754 CURVE SMOOTH",
"302.51 753.76 OFFCURVE",
"232.79 730.04 OFFCURVE",
"175.82 682.82 CURVE SMOOTH",
"94.6 614.56 OFFCURVE",
"54 511.28 OFFCURVE",
"54 373 CURVE SMOOTH",
"54.21 264.57 OFFCURVE",
"80.37 175.61 OFFCURVE",
"132.48 106.11 CURVE SMOOTH",
"193.24 26.03 OFFCURVE",
"277.42 -14 OFFCURVE",
"385 -14 CURVE SMOOTH"
);
},
{
closed = 1;
nodes = (
"347.58 114.24 OFFCURVE",
"314.6 125.82 OFFCURVE",
"286.08 148.74 CURVE SMOOTH",
"232.03 193.37 OFFCURVE",
"205 268.12 OFFCURVE",
"205 373 CURVE SMOOTH",
"205.13 431.96 OFFCURVE",
"214.59 482.36 OFFCURVE",
"233.38 524.18 CURVE SMOOTH",
"264.77 592.72 OFFCURVE",
"315.31 627 OFFCURVE",
"385 627 CURVE SMOOTH",
"420.33 626.79 OFFCURVE",
"451.65 617 OFFCURVE",
"478.97 597.65 CURVE SMOOTH",
"536.32 555.86 OFFCURVE",
"565 480.97 OFFCURVE",
"565 373 CURVE SMOOTH",
"564.86 311.05 OFFCURVE",
"554.42 258.16 OFFCURVE",
"533.67 214.31 CURVE SMOOTH",
"501.45 147.44 OFFCURVE",
"451.89 114 OFFCURVE",
"385 114 CURVE SMOOTH"
);
}
);
vertWidth = 1000;
width = 770;
}
);
note = O;
unicode = 004F;
},
{
glyphname = P;
layers = (
{
hints = (
{
horizontal = 1;
place = "{0, 21}";
target = up;
type = BottomGhost;
},
{
horizontal = 1;
place = "{263, 117}";
type = Stem;
},
{
horizontal = 1;
place = "{623, 118}";
type = Stem;
},
{
place = "{91, 148}";
type = Stem;
},
{
place = "{479, 145}";
type = Stem;
}
);
layerId = "B7A40619-0288-44E4-A367-A835A45E2561";
paths = (
{
closed = 1;
nodes = (
"91 0 LINE",
"239 0 LINE",
"239 263 LINE",
"338 263 LINE SMOOTH",
"396.86 263.13 OFFCURVE",
"448.5 273.25 OFFCURVE",
"492.9 293.37 CURVE SMOOTH",
"580.3 333.63 OFFCURVE",
"624 405.17 OFFCURVE",
"624 508 CURVE SMOOTH",
"623.23 662.13 OFFCURVE",
"526.57 739.8 OFFCURVE",
"334 741 CURVE SMOOTH",
"91 741 LINE"
);
},
{
closed = 1;
nodes = (
"239 380 LINE",
"239 623 LINE",
"323 623 LINE SMOOTH",
"350.1 622.94 OFFCURVE",
"373.55 620.77 OFFCURVE",
"393.37 616.48 CURVE SMOOTH",
"450.46 603.64 OFFCURVE",
"479 567.48 OFFCURVE",
"479 508 CURVE SMOOTH",
"478.35 423.79 OFFCURVE",
"428.02 381.12 OFFCURVE",
"328 380 CURVE SMOOTH"
);
}
);
vertWidth = 1000;
width = 667;
}
);
note = P;
unicode = 0050;
},
{
glyphname = Q;
layers = (
{
hints = (
{
horizontal = 1;
place = "{-201, 119}";
type = Stem;
},
{
horizontal = 1;
place = "{-3, 21}";
target = up;
type = BottomGhost;
},
{
horizontal = 1;
place = "{627, 127}";
type = Stem;
},
{
place = "{54, 151}";
type = Stem;
},
{
place = "{565, 151}";
type = Stem;
}
);
layerId = "B7A40619-0288-44E4-A367-A835A45E2561";
paths = (
{
closed = 1;
nodes = (
"349.25 107.23 OFFCURVE",
"317.59 117.76 OFFCURVE",
"290.05 138.6 CURVE SMOOTH",
"233.35 182.72 OFFCURVE",
"205 260.85 OFFCURVE",
"205 373 CURVE SMOOTH",
"205.13 431.96 OFFCURVE",
"214.59 482.36 OFFCURVE",
"233.38 524.18 CURVE SMOOTH",
"264.77 592.72 OFFCURVE",
"315.31 627 OFFCURVE",
"385 627 CURVE SMOOTH",
"420.33 626.79 OFFCURVE",
"451.65 617 OFFCURVE",
"478.97 597.65 CURVE SMOOTH",
"536.32 555.86 OFFCURVE",
"565 480.97 OFFCURVE",
"565 373 CURVE SMOOTH",
"564.87 309.86 OFFCURVE",
"554.96 256.13 OFFCURVE",
"535.25 211.83 CURVE SMOOTH",
"503.61 141.95 OFFCURVE",
"453.52 107 OFFCURVE",
"385 107 CURVE SMOOTH"
);
},
{
closed = 1;
nodes = (
"675.02 -200.85 OFFCURVE",
"716.69 -193.52 OFFCURVE",
"749 -179 CURVE",
"722 -70 LINE",
"698.15 -77.83 OFFCURVE",
"671.15 -81.83 OFFCURVE",
"641 -82 CURVE SMOOTH",
"636.59 -82 OFFCURVE",
"632.21 -81.9 OFFCURVE",
"627.85 -81.7 CURVE SMOOTH",
"554.44 -78.35 OFFCURVE",
"502.82 -52.11 OFFCURVE",
"473 -3 CURVE",
"521.17 9.64 OFFCURVE",
"563.57 32.45 OFFCURVE",
"600.18 65.42 CURVE SMOOTH",
"677.39 136.01 OFFCURVE",
"716 238.53 OFFCURVE",
"716 373 CURVE SMOOTH",
"715.79 479.06 OFFCURVE",
"690.55 565.94 OFFCURVE",
"640.27 633.65 CURVE SMOOTH",
"579.94 713.89 OFFCURVE",
"494.85 754 OFFCURVE",
"385 754 CURVE SMOOTH",
"302.51 753.76 OFFCURVE",
"232.79 730.04 OFFCURVE",
"175.82 682.82 CURVE SMOOTH",
"94.6 614.56 OFFCURVE",
"54 511.28 OFFCURVE",
"54 373 CURVE SMOOTH",
"54.16 287.36 OFFCURVE",
"70.98 213 OFFCURVE",
"104.46 149.91 CURVE SMOOTH",
"151.36 62.64 OFFCURVE",
"222.21 10 OFFCURVE",
"317 -8 CURVE",
"328.36 -32.74 OFFCURVE",
"342.28 -55.85 OFFCURVE",
"358.75 -77.32 CURVE SMOOTH",
"422.89 -159.78 OFFCURVE",
"511.3 -201 OFFCURVE",
"624 -201 CURVE SMOOTH"
);
}
);
vertWidth = 1000;
width = 770;
}
);
note = Q;
unicode = 0051;
},
{
glyphname = R;
layers = (
{
hints = (
{
horizontal = 1;
place = "{0, 21}";
target = up;
type = BottomGhost;
},
{
horizontal = 1;
place = "{280, 117}";
type = Stem;
},
{
horizontal = 1;
place = "{623, 118}";
type = Stem;
},
{
place = "{91, 148}";
type = Stem;
},
{
place = "{483, 144}";
type = Stem;
}
);
layerId = "B7A40619-0288-44E4-A367-A835A45E2561";
paths = (
{
closed = 1;
nodes = (
"91 0 LINE",
"239 0 LINE",
"239 280 LINE",
"342 280 LINE",
"494 0 LINE",
"659 0 LINE",
"486 303 LINE",
"487.66 303.65 OFFCURVE",
"489.64 304.45 OFFCURVE",
"491.94 305.38 CURVE SMOOTH",
"581.98 342.74 OFFCURVE",
"627 412.94 OFFCURVE",
"627 516 CURVE SMOOTH",
"626.98 521.73 OFFCURVE",
"626.83 527.7 OFFCURVE",
"626.53 533.9 CURVE SMOOTH",
"619.08 671.97 OFFCURVE",
"526.57 741 OFFCURVE",
"349 741 CURVE SMOOTH",
"91 741 LINE"
);
},
{
closed = 1;
nodes = (
"239 397 LINE",
"239 623 LINE",
"335 623 LINE SMOOTH",
"356.97 622.95 OFFCURVE",
"376.54 621.42 OFFCURVE",
"393.69 618.41 CURVE SMOOTH",
"453.23 607.49 OFFCURVE",
"483 573.35 OFFCURVE",
"483 516 CURVE SMOOTH",
"482.97 511.04 OFFCURVE",
"482.73 505.88 OFFCURVE",
"482.28 500.52 CURVE SMOOTH",
"475.62 431.51 OFFCURVE",
"426.53 397 OFFCURVE",
"335 397 CURVE SMOOTH"
);
}
);
vertWidth = 1000;
width = 682;
}
);
note = R;
unicode = 0052;
},
{
glyphname = S;
layers = (
{
hints = (
{
horizontal = 1;
place = "{-14, 128}";
type = Stem;
},
{
horizontal = 1;
place = "{627, 127}";
type = Stem;
},
{
place = "{73, 150}";
type = Stem;
},
{
place = "{433, 151}";
type = Stem;
}
);
layerId = "B7A40619-0288-44E4-A367-A835A45E2561";
paths = (
{
closed = 1;
nodes = (
"387.46 -13.78 OFFCURVE",
"450.25 5.23 OFFCURVE",
"500.39 43.01 CURVE SMOOTH",
"556.13 85.72 OFFCURVE",
"584 141.38 OFFCURVE",
"584 210 CURVE SMOOTH",
"583.94 225.37 OFFCURVE",
"582.66 240.26 OFFCURVE",
"580.15 254.67 CURVE SMOOTH",
"567.39 324.36 OFFCURVE",
"519 376.47 OFFCURVE",
"435 411 CURVE SMOOTH",
"338 452 LINE SMOOTH",
"310.64 462.85 OFFCURVE",
"291.52 470.94 OFFCURVE",
"280.63 476.26 CURVE SMOOTH",
"242.21 495.3 OFFCURVE",
"223 519.55 OFFCURVE",
"223 549 CURVE SMOOTH",
"223.11 558.2 OFFCURVE",
"224.68 567.1 OFFCURVE",
"227.7 575.7 CURVE SMOOTH",
"240.78 609.9 OFFCURVE",
"274.55 627 OFFCURVE",
"329 627 CURVE SMOOTH",
"384.19 626.75 OFFCURVE",
"436.52 606.41 OFFCURVE",
"486 566 CURVE",
"561 659 LINE",
"555.63 664.41 OFFCURVE",
"549.72 669.95 OFFCURVE",
"543.25 675.62 CURVE SMOOTH",
"482.68 727.87 OFFCURVE",
"411.26 754 OFFCURVE",
"329 754 CURVE SMOOTH",
"261.77 753.78 OFFCURVE",
"204.38 736.42 OFFCURVE",
"156.83 701.93 CURVE SMOOTH",
"100.95 660.7 OFFCURVE",
"73 606.73 OFFCURVE",
"73 540 CURVE SMOOTH",
"73.02 534.44 OFFCURVE",
"73.25 528.61 OFFCURVE",
"73.67 522.53 CURVE SMOOTH",
"80.15 439.98 OFFCURVE",
"129.92 379.47 OFFCURVE",
"223 341 CURVE SMOOTH",
"322 299 LINE SMOOTH",
"352.45 286.09 OFFCURVE",
"373.13 276.67 OFFCURVE",
"384.05 270.72 CURVE SMOOTH",
"416.69 252.65 OFFCURVE",
"433 228.74 OFFCURVE",
"433 199 CURVE SMOOTH",
"432.91 191.03 OFFCURVE",
"431.86 183.17 OFFCURVE",
"429.83 175.42 CURVE SMOOTH",
"418.07 134.47 OFFCURVE",
"379.79 114 OFFCURVE",
"315 114 CURVE SMOOTH",
"310.86 114.02 OFFCURVE",
"306.34 114.18 OFFCURVE",
"301.45 114.47 CURVE SMOOTH",
"239.35 118.71 OFFCURVE",
"181.2 145.89 OFFCURVE",
"127 196 CURVE",
"42 94 LINE",
"48.61 87.71 OFFCURVE",
"55.78 81.35 OFFCURVE",
"63.53 74.91 CURVE SMOOTH",
"135.77 15.64 OFFCURVE",
"218.59 -14 OFFCURVE",
"312 -14 CURVE SMOOTH"
);
}
);
vertWidth = 1000;
width = 624;
}
);
note = S;
unicode = 0053;
},
{
glyphname = T;
layers = (
{
hints = (
{
horizontal = 1;
place = "{0, 21}";
target = up;
type = BottomGhost;
},
{
horizontal = 1;
place = "{617, 124}";
type = Stem;
},
{
place = "{238, 148}";
type = Stem;
}
);
layerId = "B7A40619-0288-44E4-A367-A835A45E2561";
paths = (
{
closed = 1;
nodes = (
"238 0 LINE",
"386 0 LINE",
"386 617 LINE",
"596 617 LINE",
"596 741 LINE",
"30 741 LINE",
"30 617 LINE",
"238 617 LINE"
);
}
);
vertWidth = 1000;
width = 625;
}
);
note = T;
unicode = 0054;
},
{
glyphname = U;
layers = (
{
hints = (
{
horizontal = 1;
place = "{-14, 128}";
type = Stem;
},
{
horizontal = 1;
place = "{741, -20}";
target = down;
type = TopGhost;
},
{
place = "{87, 148}";
type = Stem;
},
{
place = "{519, 142}";
type = Stem;
}
);
layerId = "B7A40619-0288-44E4-A367-A835A45E2561";
paths = (
{
closed = 1;
nodes = (
"381.45 -13.99 OFFCURVE",
"388.12 -13.84 OFFCURVE",
"395.02 -13.57 CURVE SMOOTH",
"572.34 -5.85 OFFCURVE",
"661 109.67 OFFCURVE",
"661 333 CURVE SMOOTH",
"661 741 LINE",
"519 741 LINE",
"519 320 LINE SMOOTH",
"518.96 294.62 OFFCURVE",
"517.38 271.32 OFFCURVE",
"514.27 250.09 CURVE SMOOTH",
"500.5 159.36 OFFCURVE",
"454.07 114 OFFCURVE",
"375 114 CURVE SMOOTH",
"364.77 114.05 OFFCURVE",
"354.82 114.85 OFFCURVE",
"345.14 116.39 CURVE SMOOTH",
"271.71 128.98 OFFCURVE",
"235 196.85 OFFCURVE",
"235 320 CURVE SMOOTH",
"235 741 LINE",
"87 741 LINE",
"87 333 LINE SMOOTH",
"87.58 103.08 OFFCURVE",
"183.58 -12.58 OFFCURVE",
"375 -14 CURVE SMOOTH"
);
}
);
vertWidth = 1000;
width = 748;
}
);
note = U;
unicode = 0055;
},
{
glyphname = V;
layers = (
{
hints = (
{
horizontal = 1;
place = "{0, 21}";
target = up;
type = BottomGhost;
},
{
horizontal = 1;
place = "{741, -20}";
target = down;
type = TopGhost;
},
{
place = "{-5, 629}";
type = Stem;
},
{
horizontal = 1;
place = "{0, 141}";
type = Stem;
}
);
layerId = "B7A40619-0288-44E4-A367-A835A45E2561";
paths = (
{
closed = 1;
nodes = (
"221 0 LINE",
"398 0 LINE",
"624 741 LINE",
"474 741 LINE",
"378 380 LINE SMOOTH",
"370.95 354.82 OFFCURVE",
"361.26 317.85 OFFCURVE",
"348.94 269.07 CURVE SMOOTH",
"334.87 213.29 OFFCURVE",
"323.56 170.6 OFFCURVE",
"315 141 CURVE",
"310 141 LINE",
"302.61 167.71 OFFCURVE",
"292.53 206.67 OFFCURVE",
"279.75 257.88 CURVE SMOOTH",
"266.45 311.26 OFFCURVE",
"255.87 351.97 OFFCURVE",
"248 380 CURVE SMOOTH",
"150 741 LINE",
"-5 741 LINE"
);
}
);
vertWidth = 1000;
width = 618;
}
);
note = V;
unicode = 0056;
},
{
glyphname = W;
layers = (
{
hints = (
{
horizontal = 1;
place = "{0, 143}";
type = Stem;
},
{
horizontal = 1;
place = "{741, -20}";
target = down;
type = TopGhost;
},
{
place = "{19, 876}";
type = Stem;
}
);
layerId = "B7A40619-0288-44E4-A367-A835A45E2561";
paths = (
{
closed = 1;
nodes = (
"161 0 LINE",
"342 0 LINE",
"423 366 LINE SMOOTH",
"430.94 404.43 OFFCURVE",
"441.6 461.77 OFFCURVE",
"455 538 CURVE",
"459 538 LINE",
"466.68 489.47 OFFCURVE",
"477.35 432.13 OFFCURVE",
"491 366 CURVE SMOOTH",
"574 0 LINE",
"758 0 LINE",
"895 741 LINE",
"755 741 LINE",
"696 379 LINE SMOOTH",
"686.26 310.81 OFFCURVE",
"675.26 232.14 OFFCURVE",
"663 143 CURVE",
"658 143 LINE",
"654.21 161.95 OFFCURVE",
"648.56 190.64 OFFCURVE",
"641.04 229.08 CURVE SMOOTH",
"627.85 296.57 OFFCURVE",
"617.83 346.54 OFFCURVE",
"611 379 CURVE SMOOTH",
"526 741 LINE",
"399 741 LINE",
"313 379 LINE SMOOTH",
"294.32 289.1 OFFCURVE",
"278.66 210.44 OFFCURVE",
"266 143 CURVE",
"262 143 LINE",
"257.89 172.85 OFFCURVE",
"251.49 217.44 OFFCURVE",
"242.79 276.79 CURVE SMOOTH",
"236.12 322.25 OFFCURVE",
"231.19 356.32 OFFCURVE",
"228 379 CURVE SMOOTH",
"169 741 LINE",
"19 741 LINE"
);
}
);
vertWidth = 1000;
width = 915;
}
);
note = W;
unicode = 0057;
},
{
glyphname = X;
layers = (
{
hints = (
{
horizontal = 1;
place = "{0, 21}";
target = up;
type = BottomGhost;
},
{
horizontal = 1;
place = "{741, -20}";
target = down;
type = TopGhost;
},
{
place = "{14, 599}";
type = Stem;
}
);
layerId = "B7A40619-0288-44E4-A367-A835A45E2561";
paths = (
{
closed = 1;
nodes = (
"14 0 LINE",
"171 0 LINE",
"250 164 LINE SMOOTH",
"272.04 210.56 OFFCURVE",
"290.04 251.22 OFFCURVE",
"304 286 CURVE",
"308 286 LINE",
"314.79 272.1 OFFCURVE",
"324.3 252.02 OFFCURVE",
"336.55 225.75 CURVE SMOOTH",
"349.49 197.96 OFFCURVE",
"359.31 177.38 OFFCURVE",
"366 164 CURVE SMOOTH",
"449 0 LINE",
"613 0 LINE",
"405 375 LINE",
"600 741 LINE",
"444 741 LINE",
"374 588 LINE SMOOTH",
"359.24 555.67 OFFCURVE",
"342.91 516.67 OFFCURVE",
"325 471 CURVE",
"320 471 LINE",
"314.08 483.4 OFFCURVE",
"305.95 500.92 OFFCURVE",
"295.6 523.56 CURVE SMOOTH",
"282.24 552.83 OFFCURVE",
"272.04 574.31 OFFCURVE",
"265 588 CURVE SMOOTH",
"191 741 LINE",
"27 741 LINE",
"222 382 LINE"
);
}
);
vertWidth = 1000;
width = 627;
}
);
note = X;
unicode = 0058;
},
{
glyphname = Y;
layers = (
{
hints = (
{
horizontal = 1;
place = "{0, 21}";
target = up;
type = BottomGhost;
},
{
horizontal = 1;
place = "{741, -20}";
target = down;
type = TopGhost;
},
{
place = "{216, 148}";
type = Stem;
}
);
layerId = "B7A40619-0288-44E4-A367-A835A45E2561";
paths = (
{
closed = 1;
nodes = (
"216 0 LINE",
"364 0 LINE",
"364 271 LINE",
"587 741 LINE",
"433 741 LINE",
"359 560 LINE SMOOTH",
"357.15 555.17 OFFCURVE",
"335.15 500.5 OFFCURVE",
"293 396 CURVE",
"289 396 LINE",
"271.99 438.19 OFFCURVE",
"250.65 492.85 OFFCURVE",
"225 560 CURVE SMOOTH",
"151 741 LINE",
"-6 741 LINE",
"216 271 LINE"
);
}
);
vertWidth = 1000;
width = 581;
}
);
note = Y;
unicode = 0059;
},
{
glyphname = Z;
layers = (
{
hints = (
{
horizontal = 1;
place = "{0, 124}";
type = Stem;
},
{
horizontal = 1;
place = "{617, 124}";
type = Stem;
},
{
place = "{43, 530}";
type = Stem;
}
);
layerId = "B7A40619-0288-44E4-A367-A835A45E2561";
paths = (
{
closed = 1;
nodes = (
"43 0 LINE",
"573 0 LINE",
"573 124 LINE",
"225 124 LINE",
"570 652 LINE",
"570 741 LINE",
"76 741 LINE",
"76 617 LINE",
"388 617 LINE",
"43 89 LINE"
);
}
);
vertWidth = 1000;
width = 613;
}
);
note = Z;
unicode = 005A;
},
{
glyphname = a;
layers = (
{
hints = (
{
horizontal = 1;
place = "{-14, 115}";
type = Stem;
},
{
horizontal = 1;
place = "{456, 118}";
type = Stem;
},
{
place = "{51, 140}";
type = Stem;
},
{
place = "{374, 146}";
type = Stem;
},
{
horizontal = 1;
place = "{0, 21}";
target = up;
type = BottomGhost;
}
);
layerId = "B7A40619-0288-44E4-A367-A835A45E2561";
paths = (
{
closed = 1;
nodes = (
"272.11 -14 OFFCURVE",
"328.44 10.67 OFFCURVE",
"386 60 CURVE",
"390 60 LINE",
"400 0 LINE",
"520 0 LINE",
"520 327 LINE SMOOTH",
"519.97 344.31 OFFCURVE",
"519.1 361.09 OFFCURVE",
"517.39 377.35 CURVE SMOOTH",
"503.01 508.45 OFFCURVE",
"432.21 574 OFFCURVE",
"305 574 CURVE SMOOTH",
"228.77 573.76 OFFCURVE",
"150.77 549.09 OFFCURVE",
"71 500 CURVE",
"124 403 LINE",
"184.73 437.94 OFFCURVE",
"236.06 455.61 OFFCURVE",
"278 456 CURVE SMOOTH",
"337.1 455.25 OFFCURVE",
"369.1 422.92 OFFCURVE",
"374 359 CURVE",
"296.61 350.72 OFFCURVE",
"233.75 337.62 OFFCURVE",
"185.41 319.71 CURVE SMOOTH",
"95.8 286.1 OFFCURVE",
"51 230.2 OFFCURVE",
"51 152 CURVE SMOOTH",
"51.2 116.44 OFFCURVE",
"60.12 84.7 OFFCURVE",
"77.77 56.78 CURVE SMOOTH",
"108.43 9.6 OFFCURVE",
"154.84 -14 OFFCURVE",
"217 -14 CURVE SMOOTH"
);
},
{
closed = 1;
nodes = (
"261.27 101.03 OFFCURVE",
"257.32 101.2 OFFCURVE",
"253.14 101.52 CURVE SMOOTH",
"211.72 105.25 OFFCURVE",
"191 126.07 OFFCURVE",
"191 164 CURVE SMOOTH",
"192.1 217.91 OFFCURVE",
"253.1 252.91 OFFCURVE",
"374 269 CURVE",
"374 156 LINE",
"373.34 155.36 OFFCURVE",
"372.35 154.41 OFFCURVE",
"371.04 153.14 CURVE SMOOTH",
"334.68 118.38 OFFCURVE",
"299.34 101 OFFCURVE",
"265 101 CURVE SMOOTH"
);
}
);
vertWidth = 1000;
width = 591;
}
);
note = a;
unicode = 0061;
},
{
glyphname = b;
layers = (
{
hints = (
{
horizontal = 1;
place = "{-14, 121}";
type = Stem;
},
{
horizontal = 1;
place = "{453, 121}";
type = Stem;
},
{
place = "{79, 147}";
type = Stem;
},
{
place = "{447, 151}";
type = Stem;
},
{
horizontal = 1;
place = "{0, 21}";
target = up;
type = BottomGhost;
}
);
layerId = "B7A40619-0288-44E4-A367-A835A45E2561";
paths = (
{
closed = 1;
nodes = (
"414.16 -13.71 OFFCURVE",
"462.51 5.83 OFFCURVE",
"505.04 44.63 CURVE SMOOTH",
"567.01 102.14 OFFCURVE",
"598 183.93 OFFCURVE",
"598 290 CURVE SMOOTH",
"597.85 358.2 OFFCURVE",
"585.08 416.31 OFFCURVE",
"559.69 464.33 CURVE SMOOTH",
"520.39 537.44 OFFCURVE",
"459.49 574 OFFCURVE",
"377 574 CURVE SMOOTH",
"323.13 573.66 OFFCURVE",
"271.47 551.33 OFFCURVE",
"222 507 CURVE",
"226 597 LINE",
"226 798 LINE",
"79 798 LINE",
"79 0 LINE",
"194 0 LINE",
"207 59 LINE",
"211 59 LINE",
"257.39 10.96 OFFCURVE",
"307.06 -13.37 OFFCURVE",
"360 -14 CURVE SMOOTH"
);
},
{
closed = 1;
nodes = (
"291.58 107.26 OFFCURVE",
"257.92 121.26 OFFCURVE",
"226 149 CURVE",
"226 395 LINE",
"263.26 432.96 OFFCURVE",
"299.93 452.29 OFFCURVE",
"336 453 CURVE SMOOTH",
"409.08 452.32 OFFCURVE",
"446.08 396.99 OFFCURVE",
"447 287 CURVE SMOOTH",
"446.89 249.36 OFFCURVE",
"441.9 216.63 OFFCURVE",
"432.01 188.8 CURVE SMOOTH",
"412.06 134.27 OFFCURVE",
"377.06 107 OFFCURVE",
"327 107 CURVE SMOOTH"
);
}
);
vertWidth = 1000;
width = 644;
}
);
note = b;
unicode = 0062;
},
{
glyphname = c;
layers = (
{
hints = (
{
horizontal = 1;
place = "{-14, 120}";
type = Stem;
},
{
horizontal = 1;
place = "{454, 120}";
type = Stem;
},
{
place = "{44, 150}";
type = Stem;
}
);
layerId = "B7A40619-0288-44E4-A367-A835A45E2561";
paths = (
{
closed = 1;
nodes = (
"387.21 -13.74 OFFCURVE",
"448.54 8.93 OFFCURVE",
"501 54 CURVE",
"442 151 LINE",
"406.48 121.48 OFFCURVE",
"370.14 106.48 OFFCURVE",
"333 106 CURVE SMOOTH",
"305.91 106.22 OFFCURVE",
"281.34 113.89 OFFCURVE",
"259.29 129.03 CURVE SMOOTH",
"215.76 159.95 OFFCURVE",
"194 210.27 OFFCURVE",
"194 280 CURVE SMOOTH",
"194.15 317.74 OFFCURVE",
"201.5 350.94 OFFCURVE",
"216.05 379.61 CURVE SMOOTH",
"241.91 429.2 OFFCURVE",
"282.56 454 OFFCURVE",
"338 454 CURVE SMOOTH",
"365.89 454 OFFCURVE",
"394.22 441.67 OFFCURVE",
"423 417 CURVE",
"493 512 LINE",
"444.77 552.9 OFFCURVE",
"390.44 573.57 OFFCURVE",
"330 574 CURVE SMOOTH",
"260.4 573.76 OFFCURVE",
"199.66 553.2 OFFCURVE",
"147.8 512.33 CURVE SMOOTH",
"78.6 457 OFFCURVE",
"44 379.56 OFFCURVE",
"44 280 CURVE SMOOTH",
"44.23 200.37 OFFCURVE",
"64.96 134.24 OFFCURVE",
"106.21 81.61 CURVE SMOOTH",
"156.97 17.87 OFFCURVE",
"227.23 -14 OFFCURVE",
"317 -14 CURVE SMOOTH"
);
}
);
vertWidth = 1000;
width = 527;
}
);
note = c;
unicode = 0063;
},
{
glyphname = d;
layers = (
{
hints = (
{
horizontal = 1;
place = "{-14, 121}";
type = Stem;
},
{
horizontal = 1;
place = "{453, 121}";
type = Stem;
},
{
place = "{47, 151}";
type = Stem;
},
{
place = "{419, 146}";
type = Stem;
},
{
horizontal = 1;
place = "{0, 21}";
target = up;
type = BottomGhost;
}
);
layerId = "B7A40619-0288-44E4-A367-A835A45E2561";
paths = (
{
closed = 1;
nodes = (
"329.78 -13.62 OFFCURVE",
"381.45 10.38 OFFCURVE",
"431 58 CURVE",
"435 58 LINE",
"446 0 LINE",
"565 0 LINE",
"565 798 LINE",
"419 798 LINE",
"419 601 LINE",
"424 513 LINE",
"421.45 515.34 OFFCURVE",
"418.64 517.88 OFFCURVE",
"415.56 520.62 CURVE SMOOTH",
"375.04 556.21 OFFCURVE",
"330.52 574 OFFCURVE",
"282 574 CURVE SMOOTH",
"227.54 573.7 OFFCURVE",
"178.81 553.32 OFFCURVE",
"135.81 512.86 CURVE SMOOTH",
"76.61 456.2 OFFCURVE",
"47 378.58 OFFCURVE",
"47 280 CURVE SMOOTH",
"47.16 206.87 OFFCURVE",
"61 145.31 OFFCURVE",
"88.52 95.33 CURVE SMOOTH",
"129.31 22.44 OFFCURVE",
"191.8 -14 OFFCURVE",
"276 -14 CURVE SMOOTH"
);
},
{
closed = 1;
nodes = (
"309.26 107.03 OFFCURVE",
"304.31 107.31 OFFCURVE",
"299.15 107.83 CURVE SMOOTH",
"231.72 115.59 OFFCURVE",
"198 173.31 OFFCURVE",
"198 281 CURVE SMOOTH",
"198.14 321.94 OFFCURVE",
"205.14 357.11 OFFCURVE",
"218.98 386.51 CURVE SMOOTH",
"240.45 430.84 OFFCURVE",
"272.12 453 OFFCURVE",
"314 453 CURVE SMOOTH",
"352.88 452.77 OFFCURVE",
"387.88 438.77 OFFCURVE",
"419 411 CURVE",
"419 165 LINE",
"388.89 127.13 OFFCURVE",
"353.89 107.8 OFFCURVE",
"314 107 CURVE SMOOTH"
);
}
);
vertWidth = 1000;
width = 644;
}
);
note = d;
unicode = 0064;
},
{
glyphname = e;
layers = (
{
hints = (
{
horizontal = 1;
place = "{-14, 113}";
type = Stem;
},
{
horizontal = 1;
place = "{239, 98}";
type = Stem;
},
{
horizontal = 1;
place = "{460, 114}";
type = Stem;
},
{
place = "{44, 141}";
type = Stem;
},
{
place = "{413, 126}";
type = Stem;
}
);
layerId = "B7A40619-0288-44E4-A367-A835A45E2561";
paths = (
{
closed = 1;
nodes = (
"392.83 -13.75 OFFCURVE",
"457.83 6.92 OFFCURVE",
"518 48 CURVE",
"468 138 LINE",
"426.74 112.4 OFFCURVE",
"384.74 99.4 OFFCURVE",
"342 99 CURVE SMOOTH",
"323.08 99.09 OFFCURVE",
"305.15 101.67 OFFCURVE",
"288.2 106.72 CURVE SMOOTH",
"229.87 124.87 OFFCURVE",
"196.13 168.96 OFFCURVE",
"187 239 CURVE",
"532 239 LINE",
"536.55 254.37 OFFCURVE",
"538.88 277.03 OFFCURVE",
"539 307 CURVE SMOOTH",
"538.85 365.27 OFFCURVE",
"527.73 415.93 OFFCURVE",
"505.65 459 CURVE SMOOTH",
"465.63 535.67 OFFCURVE",
"398.75 574 OFFCURVE",
"305 574 CURVE SMOOTH",
"242.98 573.71 OFFCURVE",
"187.64 551.98 OFFCURVE",
"138.96 508.79 CURVE SMOOTH",
"75.66 451.78 OFFCURVE",
"44 375.52 OFFCURVE",
"44 280 CURVE SMOOTH",
"44.24 199.63 OFFCURVE",
"66.21 132.88 OFFCURVE",
"109.91 79.76 CURVE SMOOTH",
"162.15 17.25 OFFCURVE",
"233.18 -14 OFFCURVE",
"323 -14 CURVE SMOOTH"
);
},
{
closed = 1;
nodes = (
"185 337 LINE",
"188.19 359.59 OFFCURVE",
"194.64 379.93 OFFCURVE",
"204.34 398.02 CURVE SMOOTH",
"227.23 439.34 OFFCURVE",
"261.45 460 OFFCURVE",
"307 460 CURVE SMOOTH",
"315.31 459.94 OFFCURVE",
"323.53 459.24 OFFCURVE",
"331.65 457.9 CURVE SMOOTH",
"385.88 448.06 OFFCURVE",
"413 407.76 OFFCURVE",
"413 337 CURVE"
);
}
);
vertWidth = 1000;
width = 581;
}
);
note = e;
unicode = 0065;
},
{
glyphname = f;
layers = (
{
hints = (
{
horizontal = 1;
place = "{0, 21}";
target = up;
type = BottomGhost;
},
{
horizontal = 1;
place = "{444, 116}";
type = Stem;
},
{
horizontal = 1;
place = "{696, 116}";
type = Stem;
},
{
place = "{104, 147}";
type = Stem;
},
{
horizontal = 1;
place = "{444, 115}";
type = Stem;
}
);
layerId = "B7A40619-0288-44E4-A367-A835A45E2561";
paths = (
{
closed = 1;
nodes = (
"104 0 LINE",
"251 0 LINE",
"251 444 LINE",
"356 444 LINE",
"356 560 LINE",
"251 560 LINE",
"251 608 LINE SMOOTH",
"251.51 665.27 OFFCURVE",
"274.18 694.6 OFFCURVE",
"319 696 CURVE SMOOTH",
"339.08 695.85 OFFCURVE",
"358.75 691.85 OFFCURVE",
"378 684 CURVE",
"405 793 LINE",
"370.02 805.5 OFFCURVE",
"334.68 811.83 OFFCURVE",
"299 812 CURVE SMOOTH",
"269.55 811.9 OFFCURVE",
"242.9 807.86 OFFCURVE",
"219.04 799.89 CURVE SMOOTH",
"142.35 773.42 OFFCURVE",
"104 708.45 OFFCURVE",
"104 605 CURVE SMOOTH",
"104 559 LINE",
"29 553 LINE",
"29 444 LINE",
"104 444 LINE"
);
}
);
vertWidth = 1000;
width = 372;
}
);
note = f;
unicode = 0066;
},
{
glyphname = g;
layers = (
{
hints = (
{
horizontal = 1;
place = "{-243, 93}";
type = Stem;
},
{
horizontal = 1;
place = "{-11, 107}";
type = Stem;
},
{
horizontal = 1;
place = "{177, 91}";
type = Stem;
},
{
place = "{71, 118}";
type = Stem;
},
{
place = "{440, 141}";
type = Stem;
},
{
horizontal = 1;
place = "{-19, 115}";
type = Stem;
},
{
horizontal = 1;
place = "{452, 108}";
type = Stem;
},
{
place = "{373, 128}";
type = Stem;
},
{
place = "{59, 138}";
type = Stem;
},
{
place = "{373, 198}";
type = Stem;
},
{
horizontal = 1;
place = "{474, 100}";
type = Stem;
},
{
place = "{42, 123}";
type = Stem;
}
);
layerId = "B7A40619-0288-44E4-A367-A835A45E2561";
paths = (
{
closed = 1;
nodes = (
"359.64 -242.83 OFFCURVE",
"429.36 -226.61 OFFCURVE",
"485.16 -194.35 CURVE SMOOTH",
"549.06 -156.85 OFFCURVE",
"581 -106.73 OFFCURVE",
"581 -44 CURVE SMOOTH",
"580.33 48.4 OFFCURVE",
"510.66 95.06 OFFCURVE",
"372 96 CURVE SMOOTH",
"277 96 LINE SMOOTH",
"267 96.03 OFFCURVE",
"257.58 96.43 OFFCURVE",
"248.75 97.21 CURVE SMOOTH",
"208.92 101.03 OFFCURVE",
"189 115.96 OFFCURVE",
"189 142 CURVE SMOOTH",
"189.29 159.44 OFFCURVE",
"197.29 175.44 OFFCURVE",
"213 190 CURVE",
"238.66 181.55 OFFCURVE",
"262.66 177.22 OFFCURVE",
"285 177 CURVE SMOOTH",
"328.96 177.14 OFFCURVE",
"368.03 185.46 OFFCURVE",
"402.22 201.94 CURVE SMOOTH",
"468.07 234.39 OFFCURVE",
"501 289.41 OFFCURVE",
"501 367 CURVE SMOOTH",
"500.75 400.57 OFFCURVE",
"492.42 428.9 OFFCURVE",
"476 452 CURVE",
"571 452 LINE",
"571 560 LINE",
"369 560 LINE",
"342.36 569.14 OFFCURVE",
"314.36 573.81 OFFCURVE",
"285 574 CURVE SMOOTH",
"235.26 573.82 OFFCURVE",
"190.94 562.3 OFFCURVE",
"152.05 539.44 CURVE SMOOTH",
"90.02 502.29 OFFCURVE",
"59 446.48 OFFCURVE",
"59 372 CURVE SMOOTH",
"59.06 362.26 OFFCURVE",
"59.89 352.26 OFFCURVE",
"61.52 342.02 CURVE SMOOTH",
"69.89 292.69 OFFCURVE",
"94.05 253.68 OFFCURVE",
"134 225 CURVE",
"134 221 LINE",
"132.39 219.85 OFFCURVE",
"130.47 218.43 OFFCURVE",
"128.22 216.74 CURVE SMOOTH",
"90.07 187.37 OFFCURVE",
"71 153.79 OFFCURVE",
"71 116 CURVE SMOOTH",
"71.41 76.32 OFFCURVE",
"88.41 44.98 OFFCURVE",
"122 22 CURVE",
"122 17 LINE",
"69.54 -13.25 OFFCURVE",
"42.88 -51.92 OFFCURVE",
"42 -99 CURVE SMOOTH",
"42.21 -124.85 OFFCURVE",
"49.35 -147.95 OFFCURVE",
"63.42 -168.3 CURVE SMOOTH",
"99.22 -218.1 OFFCURVE",
"170.08 -243 OFFCURVE",
"276 -243 CURVE SMOOTH"
);
},
{
closed = 1;
nodes = (
"272.6 268.14 OFFCURVE",
"260.72 270.59 OFFCURVE",
"249.37 275.36 CURVE SMOOTH",
"214.46 290.99 OFFCURVE",
"197 323.2 OFFCURVE",
"197 372 CURVE SMOOTH",
"197.13 390.21 OFFCURVE",
"200.19 406.83 OFFCURVE",
"206.2 421.86 CURVE SMOOTH",
"220.84 456.62 OFFCURVE",
"247.1 474 OFFCURVE",
"285 474 CURVE SMOOTH",
"297.37 473.87 OFFCURVE",
"309.19 471.51 OFFCURVE",
"320.47 466.94 CURVE SMOOTH",
"355.49 451.77 OFFCURVE",
"373 420.12 OFFCURVE",
"373 372 CURVE SMOOTH",
"372.87 353.03 OFFCURVE",
"369.66 335.79 OFFCURVE",
"363.37 320.27 CURVE SMOOTH",
"348.51 285.42 OFFCURVE",
"322.39 268 OFFCURVE",
"285 268 CURVE SMOOTH"
);
},
{
closed = 1;
nodes = (
"275.96 -149.93 OFFCURVE",
"255.84 -147.89 OFFCURVE",
"237.63 -143.88 CURVE SMOOTH",
"189.21 -132.77 OFFCURVE",
"165 -110.14 OFFCURVE",
"165 -76 CURVE SMOOTH",
"165.35 -52.29 OFFCURVE",
"177.35 -30.62 OFFCURVE",
"201 -11 CURVE",
"222.15 -16.21 OFFCURVE",
"248.15 -18.87 OFFCURVE",
"279 -19 CURVE SMOOTH",
"347 -19 LINE SMOOTH",
"362.81 -19.03 OFFCURVE",
"376.46 -19.81 OFFCURVE",
"387.95 -21.34 CURVE SMOOTH",
"422.65 -26.27 OFFCURVE",
"440 -42.16 OFFCURVE",
"440 -69 CURVE SMOOTH",
"439.72 -81.87 OFFCURVE",
"434.7 -94.28 OFFCURVE",
"424.93 -106.21 CURVE SMOOTH",
"399.54 -135.4 OFFCURVE",
"357.23 -150 OFFCURVE",
"298 -150 CURVE SMOOTH"
);
}
);
vertWidth = 1000;
width = 597;
}
);
note = g;
unicode = 0067;
},
{
glyphname = h;
layers = (
{
hints = (
{
horizontal = 1;
place = "{0, 21}";
target = up;
type = BottomGhost;
},
{
horizontal = 1;
place = "{448, 126}";
type = Stem;
},
{
place = "{79, 147}";
type = Stem;
},
{
place = "{421, 147}";
type = Stem;
}
);
layerId = "B7A40619-0288-44E4-A367-A835A45E2561";
paths = (
{
closed = 1;
nodes = (
"79 0 LINE",
"226 0 LINE",
"226 385 LINE",
"233.19 392.17 OFFCURVE",
"239.95 398.67 OFFCURVE",
"246.29 404.5 CURVE SMOOTH",
"278.13 433.5 OFFCURVE",
"310.04 448 OFFCURVE",
"342 448 CURVE SMOOTH",
"354.46 447.9 OFFCURVE",
"365.53 446.2 OFFCURVE",
"375.21 442.88 CURVE SMOOTH",
"405.74 431.52 OFFCURVE",
"421 394.23 OFFCURVE",
"421 331 CURVE SMOOTH",
"421 0 LINE",
"568 0 LINE",
"568 349 LINE SMOOTH",
"567.51 497.75 OFFCURVE",
"509.84 572.75 OFFCURVE",
"395 574 CURVE SMOOTH",
"336.72 573.65 OFFCURVE",
"278.06 546.32 OFFCURVE",
"219 492 CURVE",
"226 597 LINE",
"226 798 LINE",
"79 798 LINE"
);
}
);
vertWidth = 1000;
width = 640;
}
);
note = h;
unicode = 0068;
},
{
glyphname = i;
layers = (
{
hints = (
{
horizontal = 1;
place = "{0, 21}";
target = up;
type = BottomGhost;
},
{
horizontal = 1;
place = "{560, -20}";
target = down;
type = TopGhost;
},
{
horizontal = 1;
place = "{650, 161}";
type = Stem;
},
{
place = "{79, 147}";
type = Stem;
},
{
place = "{67, 171}";
type = Stem;
}
);
layerId = "B7A40619-0288-44E4-A367-A835A45E2561";
paths = (
{
closed = 1;
nodes = (
"79 0 LINE",
"226 0 LINE",
"226 560 LINE",
"79 560 LINE"
);
},
{
closed = 1;
nodes = (
"166 650.12 OFFCURVE",
"178.3 652.37 OFFCURVE",
"189.9 656.73 CURVE SMOOTH",
"221.97 669.6 OFFCURVE",
"238 694.35 OFFCURVE",
"238 731 CURVE SMOOTH",
"237.86 743.38 OFFCURVE",
"235.43 755.09 OFFCURVE",
"230.71 766.13 CURVE SMOOTH",
"217.01 796.04 OFFCURVE",
"191.11 811 OFFCURVE",
"153 811 CURVE SMOOTH",
"139.34 810.88 OFFCURVE",
"126.49 808.5 OFFCURVE",
"114.45 803.87 CURVE SMOOTH",
"82.81 790.92 OFFCURVE",
"67 766.63 OFFCURVE",
"67 731 CURVE SMOOTH",
"67.13 719.05 OFFCURVE",
"69.31 707.71 OFFCURVE",
"73.55 696.98 CURVE SMOOTH",
"86.82 665.66 OFFCURVE",
"113.31 650 OFFCURVE",
"153 650 CURVE SMOOTH"
);
}
);
vertWidth = 1000;
width = 304;
}
);
note = i;
unicode = 0069;
},
{
glyphname = j;
layers = (
{
hints = (
{
horizontal = 1;
place = "{-229, 116}";
type = Stem;
},
{
horizontal = 1;
place = "{560, -20}";
target = down;
type = TopGhost;
},
{
horizontal = 1;
place = "{650, 161}";
type = Stem;
},
{
place = "{80, 147}";
type = Stem;
},
{
horizontal = 1;
place = "{-214, 21}";
target = up;
type = BottomGhost;
},
{
place = "{68, 171}";
type = Stem;
}
);
layerId = "B7A40619-0288-44E4-A367-A835A45E2561";
paths = (
{
closed = 1;
nodes = (
"159.49 -225.95 OFFCURVE",
"221.82 -154.28 OFFCURVE",
"227 -14 CURVE",
"227 560 LINE",
"80 560 LINE",
"80 -18 LINE SMOOTH",
"79.96 -34 OFFCURVE",
"78.96 -47.93 OFFCURVE",
"77.01 -59.8 CURVE SMOOTH",
"70.79 -95.27 OFFCURVE",
"51.45 -113 OFFCURVE",
"19 -113 CURVE SMOOTH",
"4.04 -112.89 OFFCURVE",
"-11.62 -110.22 OFFCURVE",
"-28 -105 CURVE",
"-54 -214 LINE",
"-26.71 -223.83 OFFCURVE",
"4.62 -228.83 OFFCURVE",
"40 -229 CURVE SMOOTH"
);
},
{
closed = 1;
nodes = (
"166.1 650.12 OFFCURVE",
"178.47 652.31 OFFCURVE",
"190.12 656.58 CURVE SMOOTH",
"222.71 669.31 OFFCURVE",
"239 694.11 OFFCURVE",
"239 731 CURVE SMOOTH",
"238.86 743.25 OFFCURVE",
"236.48 754.84 OFFCURVE",
"231.85 765.77 CURVE SMOOTH",
"218.18 795.92 OFFCURVE",
"191.9 811 OFFCURVE",
"153 811 CURVE SMOOTH",
"139.44 810.87 OFFCURVE",
"126.67 808.44 OFFCURVE",
"114.68 803.71 CURVE SMOOTH",
"83.56 790.62 OFFCURVE",
"68 766.39 OFFCURVE",
"68 731 CURVE SMOOTH",
"68.14 718.36 OFFCURVE",
"70.57 706.45 OFFCURVE",
"75.29 695.25 CURVE SMOOTH",
"88.91 665.08 OFFCURVE",
"114.82 650 OFFCURVE",
"153 650 CURVE SMOOTH"
);
}
);
vertWidth = 1000;
width = 306;
}
);
note = j;
unicode = 006A;
},
{
glyphname = k;
layers = (
{
hints = (
{
horizontal = 1;
place = "{0, 21}";
target = up;
type = BottomGhost;
},
{
horizontal = 1;
place = "{560, -20}";
target = down;
type = TopGhost;
},
{
place = "{79, 143}";
type = Stem;
}
);
layerId = "B7A40619-0288-44E4-A367-A835A45E2561";
paths = (
{
closed = 1;
nodes = (
"79 0 LINE",
"222 0 LINE",
"222 140 LINE",
"303 232 LINE",
"439 0 LINE",
"598 0 LINE",
"386 331 LINE",
"580 560 LINE",
"420 560 LINE",
"227 318 LINE",
"222 318 LINE",
"222 798 LINE",
"79 798 LINE"
);
}
);
vertWidth = 1000;
width = 605;
}
);
note = k;
unicode = 006B;
},
{
glyphname = l;
layers = (
{
hints = (
{
horizontal = 1;
place = "{-14, 21}";
target = up;
type = BottomGhost;
},
{
place = "{79, 147}";
type = Stem;
},
{
horizontal = 1;
place = "{-14, 120}";
type = Stem;
}
);
layerId = "B7A40619-0288-44E4-A367-A835A45E2561";
paths = (
{
closed = 1;
nodes = (
"246.03 -13.87 OFFCURVE",
"271.36 -9.54 OFFCURVE",
"293 -1 CURVE",
"275 108 LINE",
"269.03 106.86 OFFCURVE",
"262.37 106.19 OFFCURVE",
"255 106 CURVE SMOOTH",
"236.29 106.66 OFFCURVE",
"226.62 121.66 OFFCURVE",
"226 151 CURVE SMOOTH",
"226 798 LINE",
"79 798 LINE",
"79 157 LINE SMOOTH",
"79.46 44.21 OFFCURVE",
"125.46 -12.79 OFFCURVE",
"217 -14 CURVE SMOOTH"
);
}
);
vertWidth = 1000;
width = 315;
}
);
note = l;
unicode = 006C;
},
{
glyphname = m;
layers = (
{
hints = (
{
horizontal = 1;
place = "{0, 21}";
target = up;
type = BottomGhost;
},
{
horizontal = 1;
place = "{448, 126}";
type = Stem;
},
{
place = "{79, 147}";
type = Stem;
},
{
place = "{412, 146}";
type = Stem;
},
{
place = "{744, 147}";
type = Stem;
},
{
horizontal = 1;
place = "{560, -20}";
target = down;
type = TopGhost;
}
);
layerId = "B7A40619-0288-44E4-A367-A835A45E2561";
paths = (
{
closed = 1;
nodes = (
"79 0 LINE",
"226 0 LINE",
"226 385 LINE",
"264.58 426.22 OFFCURVE",
"300.25 447.22 OFFCURVE",
"333 448 CURVE SMOOTH",
"342.72 447.92 OFFCURVE",
"351.73 446.8 OFFCURVE",
"360.04 444.64 CURVE SMOOTH",
"394.68 434.76 OFFCURVE",
"412 396.88 OFFCURVE",
"412 331 CURVE SMOOTH",
"412 0 LINE",
"558 0 LINE",
"558 385 LINE",
"598 427 OFFCURVE",
"634 448 OFFCURVE",
"666 448 CURVE SMOOTH",
"676.63 447.91 OFFCURVE",
"686.34 446.57 OFFCURVE",
"695.11 443.98 CURVE SMOOTH",
"727.71 433.46 OFFCURVE",
"744 395.8 OFFCURVE",
"744 331 CURVE SMOOTH",
"744 0 LINE",
"891 0 LINE",
"891 349 LINE SMOOTH",
"890.96 368.12 OFFCURVE",
"889.91 386.44 OFFCURVE",
"887.84 403.96 CURVE SMOOTH",
"873.92 517.32 OFFCURVE",
"816.97 574 OFFCURVE",
"717 574 CURVE SMOOTH",
"707.69 573.95 OFFCURVE",
"698.18 573.17 OFFCURVE",
"688.47 571.68 CURVE SMOOTH",
"641.8 563.98 OFFCURVE",
"591.97 532.08 OFFCURVE",
"539 476 CURVE",
"510.47 540.53 OFFCURVE",
"459.14 573.2 OFFCURVE",
"385 574 CURVE SMOOTH",
"379.89 573.97 OFFCURVE",
"374.49 573.75 OFFCURVE",
"368.8 573.33 CURVE SMOOTH",
"317.26 569 OFFCURVE",
"265.33 539.56 OFFCURVE",
"213 485 CURVE",
"210 485 LINE",
"199 560 LINE",
"79 560 LINE"
);
}
);
vertWidth = 1000;
width = 964;
}
);
note = m;
unicode = 006D;
},
{
glyphname = n;
layers = (
{
hints = (
{
horizontal = 1;
place = "{0, 21}";
target = up;
type = BottomGhost;
},
{
horizontal = 1;
place = "{448, 126}";
type = Stem;
},
{
place = "{79, 147}";
type = Stem;
},
{
place = "{421, 147}";
type = Stem;
},
{
horizontal = 1;
place = "{560, -20}";
target = down;
type = TopGhost;
}
);
layerId = "B7A40619-0288-44E4-A367-A835A45E2561";
paths = (
{
closed = 1;
nodes = (
"79 0 LINE",
"226 0 LINE",
"226 385 LINE",
"233.19 392.17 OFFCURVE",
"239.95 398.67 OFFCURVE",
"246.29 404.5 CURVE SMOOTH",
"278.13 433.5 OFFCURVE",
"310.04 448 OFFCURVE",
"342 448 CURVE SMOOTH",
"354.46 447.9 OFFCURVE",
"365.53 446.2 OFFCURVE",
"375.21 442.88 CURVE SMOOTH",
"405.74 431.52 OFFCURVE",
"421 394.23 OFFCURVE",
"421 331 CURVE SMOOTH",
"421 0 LINE",
"568 0 LINE",
"568 349 LINE SMOOTH",
"567.51 497.75 OFFCURVE",
"509.84 572.75 OFFCURVE",
"395 574 CURVE SMOOTH",
"334.03 573.65 OFFCURVE",
"273.36 544.31 OFFCURVE",
"213 486 CURVE",
"210 486 LINE",
"199 560 LINE",
"79 560 LINE"
);
}
);
vertWidth = 1000;
width = 641;
}
);
note = n;
unicode = 006E;
},
{
glyphname = o;
layers = (
{
hints = (
{
horizontal = 1;
place = "{-14, 120}";
type = Stem;
},
{
horizontal = 1;
place = "{454, 120}";
type = Stem;
},
{
place = "{44, 150}";
type = Stem;
},
{
place = "{432, 150}";
type = Stem;
}
);
layerId = "B7A40619-0288-44E4-A367-A835A45E2561";
paths = (
{
closed = 1;
nodes = (
"376.85 -13.74 OFFCURVE",
"433.2 6.51 OFFCURVE",
"482.06 46.75 CURVE SMOOTH",
"548.69 102.47 OFFCURVE",
"582 180.21 OFFCURVE",
"582 280 CURVE SMOOTH",
"581.73 365.67 OFFCURVE",
"556.07 436.19 OFFCURVE",
"505.02 491.54 CURVE SMOOTH",
"453.53 546.51 OFFCURVE",
"389.53 574 OFFCURVE",
"313 574 CURVE SMOOTH",
"249.15 573.74 OFFCURVE",
"192.8 553.49 OFFCURVE",
"143.94 513.25 CURVE SMOOTH",
"77.31 457.53 OFFCURVE",
"44 379.79 OFFCURVE",
"44 280 CURVE SMOOTH",
"44.27 194.33 OFFCURVE",
"69.93 123.81 OFFCURVE",
"120.98 68.46 CURVE SMOOTH",
"172.47 13.49 OFFCURVE",
"236.47 -14 OFFCURVE",
"313 -14 CURVE SMOOTH"
);
},
{
closed = 1;
nodes = (
"294.02 106 OFFCURVE",
"276.97 110.19 OFFCURVE",
"261.84 118.56 CURVE SMOOTH",
"216.62 143.59 OFFCURVE",
"194 197.4 OFFCURVE",
"194 280 CURVE SMOOTH",
"194.09 312.15 OFFCURVE",
"198.14 340.94 OFFCURVE",
"206.13 366.37 CURVE SMOOTH",
"225.04 424.79 OFFCURVE",
"260.67 454 OFFCURVE",
"313 454 CURVE SMOOTH",
"331.93 453.83 OFFCURVE",
"349.32 449.4 OFFCURVE",
"365.17 440.73 CURVE SMOOTH",
"409.72 415.13 OFFCURVE",
"432 361.55 OFFCURVE",
"432 280 CURVE SMOOTH",
"431.91 248.19 OFFCURVE",
"428.01 219.71 OFFCURVE",
"420.31 194.56 CURVE SMOOTH",
"401.68 135.52 OFFCURVE",
"365.91 106 OFFCURVE",
"313 106 CURVE SMOOTH"
);
}
);
vertWidth = 1000;
width = 626;
}
);
note = o;
unicode = 006F;
},
{
glyphname = p;
layers = (
{
hints = (
{
horizontal = 1;
place = "{-215, 21}";
target = up;
type = BottomGhost;
},
{
horizontal = 1;
place = "{-14, 121}";
type = Stem;
},
{
horizontal = 1;
place = "{453, 121}";
type = Stem;
},
{
place = "{79, 147}";
type = Stem;
},
{
place = "{447, 151}";
type = Stem;
},
{
horizontal = 1;
place = "{560, -20}";
target = down;
type = TopGhost;
}
);
layerId = "B7A40619-0288-44E4-A367-A835A45E2561";
paths = (
{
closed = 1;
nodes = (
"79 -215 LINE",
"226 -215 LINE",
"226 -45 LINE",
"221 47 LINE",
"265.56 6.89 OFFCURVE",
"311.89 -13.44 OFFCURVE",
"360 -14 CURVE SMOOTH",
"414.33 -13.71 OFFCURVE",
"462.81 5.93 OFFCURVE",
"505.45 44.93 CURVE SMOOTH",
"567.15 102.34 OFFCURVE",
"598 183.69 OFFCURVE",
"598 289 CURVE SMOOTH",
"597.85 356.78 OFFCURVE",
"585.5 414.58 OFFCURVE",
"560.95 462.4 CURVE SMOOTH",
"522.11 536.8 OFFCURVE",
"461.13 574 OFFCURVE",
"378 574 CURVE SMOOTH",
"324.4 574 OFFCURVE",
"269.4 550 OFFCURVE",
"213 502 CURVE",
"210 502 LINE",
"199 560 LINE",
"79 560 LINE"
);
},
{
closed = 1;
nodes = (
"291.58 107.26 OFFCURVE",
"257.92 121.26 OFFCURVE",
"226 149 CURVE",
"226 395 LINE",
"263.26 432.96 OFFCURVE",
"299.93 452.29 OFFCURVE",
"336 453 CURVE SMOOTH",
"409.08 452.32 OFFCURVE",
"446.08 396.99 OFFCURVE",
"447 287 CURVE SMOOTH",
"446.89 249.36 OFFCURVE",
"441.9 216.63 OFFCURVE",
"432.01 188.8 CURVE SMOOTH",
"412.06 134.27 OFFCURVE",
"377.06 107 OFFCURVE",
"327 107 CURVE SMOOTH"
);
}
);
vertWidth = 1000;
width = 644;
}
);
note = p;
unicode = 0070;
},
{
glyphname = q;
layers = (
{
hints = (
{
horizontal = 1;
place = "{-215, 21}";
target = up;
type = BottomGhost;
},
{
horizontal = 1;
place = "{-14, 121}";
type = Stem;
},
{
horizontal = 1;
place = "{560, -20}";
target = down;
type = TopGhost;
},
{
place = "{47, 151}";
type = Stem;
},
{
place = "{419, 146}";
type = Stem;
},
{
horizontal = 1;
place = "{453, 121}";
type = Stem;
}
);
layerId = "B7A40619-0288-44E4-A367-A835A45E2561";
paths = (
{
closed = 1;
nodes = (
"419 -215 LINE",
"565 -215 LINE",
"565 560 LINE",
"450 560 LINE",
"438 505 LINE",
"434 505 LINE",
"390.24 550.38 OFFCURVE",
"339.57 573.38 OFFCURVE",
"282 574 CURVE SMOOTH",
"227.54 573.7 OFFCURVE",
"178.81 553.32 OFFCURVE",
"135.81 512.86 CURVE SMOOTH",
"76.61 456.2 OFFCURVE",
"47 378.58 OFFCURVE",
"47 280 CURVE SMOOTH",
"47.16 206.87 OFFCURVE",
"61 145.31 OFFCURVE",
"88.52 95.33 CURVE SMOOTH",
"129.31 22.44 OFFCURVE",
"191.8 -14 OFFCURVE",
"276 -14 CURVE SMOOTH",
"328.49 -11.51 OFFCURVE",
"377.83 10.83 OFFCURVE",
"424 53 CURVE",
"419 -37 LINE"
);
},
{
closed = 1;
nodes = (
"309.26 107.03 OFFCURVE",
"304.31 107.31 OFFCURVE",
"299.15 107.83 CURVE SMOOTH",
"231.72 115.59 OFFCURVE",
"198 173.31 OFFCURVE",
"198 281 CURVE SMOOTH",
"198.14 321.94 OFFCURVE",
"205.14 357.11 OFFCURVE",
"218.98 386.51 CURVE SMOOTH",
"240.45 430.84 OFFCURVE",
"272.12 453 OFFCURVE",
"314 453 CURVE SMOOTH",
"352.88 452.77 OFFCURVE",
"387.88 438.77 OFFCURVE",
"419 411 CURVE",
"419 165 LINE",
"388.89 127.13 OFFCURVE",
"353.89 107.8 OFFCURVE",
"314 107 CURVE SMOOTH"
);
}
);
vertWidth = 1000;
width = 644;
}
);
note = q;
unicode = 0071;
},
{
glyphname = r;
layers = (
{
hints = (
{
horizontal = 1;
place = "{0, 21}";
target = up;
type = BottomGhost;
},
{
horizontal = 1;
place = "{444, 130}";
type = Stem;
},
{
place = "{79, 147}";
type = Stem;
},
{
horizontal = 1;
place = "{562, -20}";
target = down;
type = TopGhost;
},
{
horizontal = 1;
place = "{560, -20}";
target = down;
type = TopGhost;
}
);
layerId = "B7A40619-0288-44E4-A367-A835A45E2561";
paths = (
{
closed = 1;
nodes = (
"79 0 LINE",
"226 0 LINE",
"226 334 LINE",
"231.09 347.12 OFFCURVE",
"237.01 359.55 OFFCURVE",
"243.78 371.27 CURVE SMOOTH",
"272.39 419.75 OFFCURVE",
"309.13 444 OFFCURVE",
"354 444 CURVE SMOOTH",
"372.84 443.92 OFFCURVE",
"392.51 440.92 OFFCURVE",
"413 435 CURVE",
"438 562 LINE",
"418.88 569.79 OFFCURVE",
"396.88 573.79 OFFCURVE",
"372 574 CURVE SMOOTH",
"362.53 574 OFFCURVE",
"353.02 572.94 OFFCURVE",
"343.48 570.82 CURVE SMOOTH",
"291.08 559.19 OFFCURVE",
"247.59 522.58 OFFCURVE",
"213 461 CURVE",
"210 461 LINE",
"199 560 LINE",
"79 560 LINE"
);
}
);
vertWidth = 1000;
width = 436;
}
);
note = r;
unicode = 0072;
},
{
glyphname = s;
layers = (
{
hints = (
{
horizontal = 1;
place = "{-14, 110}";
type = Stem;
},
{
horizontal = 1;
place = "{464, 110}";
type = Stem;
},
{
place = "{57, 138}";
type = Stem;
},
{
place = "{324, 138}";
type = Stem;
}
);
layerId = "B7A40619-0288-44E4-A367-A835A45E2561";
paths = (
{
closed = 1;
nodes = (
"295.39 -13.83 OFFCURVE",
"342.9 -2.27 OFFCURVE",
"381.53 20.66 CURVE SMOOTH",
"435.18 53.21 OFFCURVE",
"462 100.65 OFFCURVE",
"462 163 CURVE SMOOTH",
"461.78 197.72 OFFCURVE",
"452.22 227.81 OFFCURVE",
"433.33 253.27 CURVE SMOOTH",
"411.32 281.96 OFFCURVE",
"368.88 308.2 OFFCURVE",
"306 332 CURVE SMOOTH",
"274.37 343.77 OFFCURVE",
"255.16 351.11 OFFCURVE",
"248.36 354.03 CURVE SMOOTH",
"212.79 369.54 OFFCURVE",
"195 388.19 OFFCURVE",
"195 410 CURVE",
"198.34 441.82 OFFCURVE",
"223.34 459.82 OFFCURVE",
"270 464 CURVE",
"305.56 463.73 OFFCURVE",
"345.56 447.73 OFFCURVE",
"390 416 CURVE",
"456 505 LINE",
"395.77 550.63 OFFCURVE",
"332.44 573.63 OFFCURVE",
"266 574 CURVE SMOOTH",
"216.46 573.83 OFFCURVE",
"173.75 563.51 OFFCURVE",
"137.87 543.04 CURVE SMOOTH",
"83.96 511.59 OFFCURVE",
"57 464.91 OFFCURVE",
"57 403 CURVE SMOOTH",
"57.1 388.41 OFFCURVE",
"59.11 374.26 OFFCURVE",
"63.04 360.56 CURVE SMOOTH",
"78.27 310.22 OFFCURVE",
"126.26 269.7 OFFCURVE",
"207 239 CURVE SMOOTH",
"236.08 227.68 OFFCURVE",
"254.48 220.33 OFFCURVE",
"262.22 216.93 CURVE SMOOTH",
"303.41 198.63 OFFCURVE",
"324 177.99 OFFCURVE",
"324 155 CURVE SMOOTH",
"321.37 119.07 OFFCURVE",
"294.37 99.4 OFFCURVE",
"243 96 CURVE",
"195.48 96.27 OFFCURVE",
"145.48 116.6 OFFCURVE",
"93 157 CURVE",
"26 65 LINE",
"32.54 59.67 OFFCURVE",
"39.75 54.26 OFFCURVE",
"47.61 48.77 CURVE SMOOTH",
"108.48 6.92 OFFCURVE",
"172.27 -14 OFFCURVE",
"239 -14 CURVE SMOOTH"
);
}
);
vertWidth = 1000;
width = 495;
}
);
note = s;
unicode = 0073;
},
{
glyphname = t;
layers = (
{
hints = (
{
horizontal = 1;
place = "{-14, 116}";
type = Stem;
},
{
horizontal = 1;
place = "{444, 116}";
type = Stem;
},
{
place = "{100, 147}";
type = Stem;
}
);
layerId = "B7A40619-0288-44E4-A367-A835A45E2561";
paths = (
{
closed = 1;
nodes = (
"320.26 -13.86 OFFCURVE",
"359.59 -6.86 OFFCURVE",
"402 7 CURVE",
"378 114 LINE",
"358.21 106.22 OFFCURVE",
"339.88 102.22 OFFCURVE",
"323 102 CURVE SMOOTH",
"273.39 102.64 OFFCURVE",
"248.06 133.97 OFFCURVE",
"247 196 CURVE SMOOTH",
"247 444 LINE",
"385 444 LINE",
"385 560 LINE",
"247 560 LINE",
"247 711 LINE",
"125 711 LINE",
"108 560 LINE",
"21 553 LINE",
"21 444 LINE",
"100 444 LINE",
"100 196 LINE SMOOTH",
"100.54 57.19 OFFCURVE",
"161.88 -12.81 OFFCURVE",
"284 -14 CURVE SMOOTH"
);
}
);
vertWidth = 1000;
width = 420;
}
);
note = t;
unicode = 0074;
},
{
glyphname = u;
layers = (
{
hints = (
{
horizontal = 1;
place = "{-14, 126}";
type = Stem;
},
{
horizontal = 1;
place = "{560, -20}";
target = down;
type = TopGhost;
},
{
place = "{73, 147}";
type = Stem;
},
{
place = "{412, 147}";
type = Stem;
},
{
horizontal = 1;
place = "{0, 21}";
target = up;
type = BottomGhost;
}
);
layerId = "B7A40619-0288-44E4-A367-A835A45E2561";
paths = (
{
closed = 1;
nodes = (
"311.35 -13.64 OFFCURVE",
"370.68 17.69 OFFCURVE",
"424 80 CURVE",
"428 80 LINE",
"439 0 LINE",
"559 0 LINE",
"559 560 LINE",
"412 560 LINE",
"412 182 LINE",
"406.19 174.4 OFFCURVE",
"400.36 167.24 OFFCURVE",
"394.5 160.52 CURVE SMOOTH",
"365.88 128.17 OFFCURVE",
"333.72 112 OFFCURVE",
"298 112 CURVE SMOOTH",
"287.2 112.09 OFFCURVE",
"277.37 113.46 OFFCURVE",
"268.5 116.12 CURVE SMOOTH",
"236.16 126.7 OFFCURVE",
"220 164.33 OFFCURVE",
"220 229 CURVE SMOOTH",
"220 560 LINE",
"73 560 LINE",
"73 210 LINE SMOOTH",
"73.49 61.91 OFFCURVE",
"131.16 -12.75 OFFCURVE",
"246 -14 CURVE SMOOTH"
);
}
);
vertWidth = 1000;
width = 637;
}
);
note = u;
unicode = 0075;
},
{
glyphname = v;
layers = (
{
hints = (
{
horizontal = 1;
place = "{0, 111}";
type = Stem;
},
{
horizontal = 1;
place = "{560, -20}";
target = down;
type = TopGhost;
},
{
place = "{14, 548}";
type = Stem;
}
);
layerId = "B7A40619-0288-44E4-A367-A835A45E2561";
paths = (
{
closed = 1;
nodes = (
"205 0 LINE",
"375 0 LINE",
"562 560 LINE",
"421 560 LINE",
"339 281 LINE SMOOTH",
"334.09 262.98 OFFCURVE",
"319.09 206.31 OFFCURVE",
"294 111 CURVE",
"289 111 LINE",
"264.32 204.8 OFFCURVE",
"249.32 261.47 OFFCURVE",
"244 281 CURVE SMOOTH",
"162 560 LINE",
"14 560 LINE"
);
}
);
vertWidth = 1000;
width = 576;
}
);
note = v;
unicode = 0076;
},
{
glyphname = w;
layers = (
{
hints = (
{
horizontal = 1;
place = "{0, 120}";
type = Stem;
},
{
horizontal = 1;
place = "{407, 153}";
type = Stem;
},
{
place = "{27, 808}";
type = Stem;
},
{
horizontal = 1;
place = "{560, -20}";
target = down;
type = TopGhost;
}
);
layerId = "B7A40619-0288-44E4-A367-A835A45E2561";
paths = (
{
closed = 1;
nodes = (
"172 0 LINE",
"340 0 LINE",
"397 244 LINE SMOOTH",
"399.01 252.73 OFFCURVE",
"409.34 307.06 OFFCURVE",
"428 407 CURVE",
"433 407 LINE",
"448.07 326.12 OFFCURVE",
"458.74 271.79 OFFCURVE",
"465 244 CURVE SMOOTH",
"524 0 LINE",
"697 0 LINE",
"835 560 LINE",
"699 560 LINE",
"638 284 LINE SMOOTH",
"634.54 264.94 OFFCURVE",
"629.64 236.31 OFFCURVE",
"623.29 198.12 CURVE SMOOTH",
"617.59 163.73 OFFCURVE",
"613.16 137.69 OFFCURVE",
"610 120 CURVE",
"605 120 LINE",
"602.27 132.77 OFFCURVE",
"598.26 151.97 OFFCURVE",
"592.98 177.62 CURVE SMOOTH",
"583.31 224.64 OFFCURVE",
"575.65 260.1 OFFCURVE",
"570 284 CURVE SMOOTH",
"500 560 LINE",
"370 560 LINE",
"302 284 LINE SMOOTH",
"294.42 254.68 OFFCURVE",
"282.76 200.01 OFFCURVE",
"267 120 CURVE",
"263 120 LINE",
"260.34 134.94 OFFCURVE",
"256.62 157.31 OFFCURVE",
"251.82 187.13 CURVE SMOOTH",
"244.96 229.95 OFFCURVE",
"239.35 262.24 OFFCURVE",
"235 284 CURVE SMOOTH",
"174 560 LINE",
"27 560 LINE"
);
}
);
vertWidth = 1000;
width = 863;
}
);
note = w;
unicode = 0077;
},
{
glyphname = x;
layers = (
{
hints = (
{
horizontal = 1;
place = "{0, 21}";
target = up;
type = BottomGhost;
},
{
horizontal = 1;
place = "{560, -20}";
target = down;
type = TopGhost;
},
{
place = "{16, 530}";
type = Stem;
}
);
layerId = "B7A40619-0288-44E4-A367-A835A45E2561";
paths = (
{
closed = 1;
nodes = (
"16 0 LINE",
"168 0 LINE",
"220 103 LINE SMOOTH",
"224.2 111.67 OFFCURVE",
"230.55 125 OFFCURVE",
"239.05 142.97 CURVE SMOOTH",
"251.33 168.95 OFFCURVE",
"260.64 188.29 OFFCURVE",
"267 201 CURVE",
"272 201 LINE",
"277.88 190.54 OFFCURVE",
"286.88 174.2 OFFCURVE",
"299 152 CURVE SMOOTH",
"311 130 OFFCURVE",
"320 113.67 OFFCURVE",
"326 103 CURVE SMOOTH",
"388 0 LINE",
"546 0 LINE",
"371 275 LINE",
"535 560 LINE",
"383 560 LINE",
"336 461 LINE SMOOTH",
"331.2 449.23 OFFCURVE",
"323.5 431.31 OFFCURVE",
"312.9 407.22 CURVE SMOOTH",
"304.76 388.79 OFFCURVE",
"298.8 375.05 OFFCURVE",
"295 366 CURVE",
"291 366 LINE",
"272.34 400.06 OFFCURVE",
"255.67 431.72 OFFCURVE",
"241 461 CURVE SMOOTH",
"185 560 LINE",
"27 560 LINE",
"191 292 LINE"
);
}
);
vertWidth = 1000;
width = 562;
}
);
note = x;
unicode = 0078;
},
{
glyphname = y;
layers = (
{
hints = (
{
horizontal = 1;
place = "{-225, 117}";
type = Stem;
},
{
horizontal = 1;
place = "{560, -20}";
target = down;
type = TopGhost;
},
{
place = "{14, 547}";
type = Stem;
},
{
horizontal = 1;
place = "{-214, 21}";
target = up;
type = BottomGhost;
}
);
layerId = "B7A40619-0288-44E4-A367-A835A45E2561";
paths = (
{
closed = 1;
nodes = (
"169.53 -224.84 OFFCURVE",
"205.76 -216.01 OFFCURVE",
"236.68 -198.51 CURVE SMOOTH",
"285.92 -169.91 OFFCURVE",
"327.69 -109.41 OFFCURVE",
"362 -17 CURVE SMOOTH",
"561 560 LINE",
"420 560 LINE",
"343 300 LINE SMOOTH",
"338.72 282.88 OFFCURVE",
"332.05 256.54 OFFCURVE",
"323 221 CURVE SMOOTH",
"314 185.67 OFFCURVE",
"307.33 159.33 OFFCURVE",
"303 142 CURVE",
"298 142 LINE",
"268.19 242.75 OFFCURVE",
"252.53 295.42 OFFCURVE",
"251 300 CURVE SMOOTH",
"162 560 LINE",
"14 560 LINE",
"232 10 LINE",
"222 -23 LINE SMOOTH",
"203.36 -78.74 OFFCURVE",
"168.36 -107.07 OFFCURVE",
"117 -108 CURVE SMOOTH",
"106.56 -108 OFFCURVE",
"93.56 -105.67 OFFCURVE",
"78 -101 CURVE",
"51 -214 LINE",
"73.73 -221.15 OFFCURVE",
"99.4 -224.82 OFFCURVE",
"128 -225 CURVE SMOOTH"
);
}
);
vertWidth = 1000;
width = 574;
}
);
note = y;
unicode = 0079;
},
{
glyphname = z;
layers = (
{
hints = (
{
horizontal = 1;
place = "{0, 116}";
type = Stem;
},
{
horizontal = 1;
place = "{444, 116}";
type = Stem;
},
{
place = "{41, 443}";
type = Stem;
}
);
layerId = "B7A40619-0288-44E4-A367-A835A45E2561";
paths = (
{
closed = 1;
nodes = (
"41 0 LINE",
"484 0 LINE",
"484 116 LINE",
"224 116 LINE",
"475 481 LINE",
"475 560 LINE",
"69 560 LINE",
"69 444 LINE",
"292 444 LINE",
"41 79 LINE"
);
}
);
vertWidth = 1000;
width = 511;
}
);
note = z;
unicode = 007A;
},
{
glyphname = uni4E00;
layers = (
{
hints = (
{
horizontal = 1;
place = "{325, 129}";
type = Stem;
},
{
place = "{41, 920}";
type = Stem;
}
);
layerId = "B7A40619-0288-44E4-A367-A835A45E2561";
paths = (
{
closed = 1;
nodes = (
"41 454 LINE",
"41 325 LINE",
"961 325 LINE",
"961 454 LINE"
);
}
);
vertWidth = 1000;
width = 1000;
}
);
note = uni4E00;
unicode = 4E00;
},
{
glyphname = uni4E66;
layers = (
{
hints = (
{
horizontal = 1;
place = "{0, 108}";
type = Stem;
},
{
horizontal = 1;
place = "{300, 112}";
type = Stem;
},
{
horizontal = 1;
place = "{565, 115}";
type = Stem;
},
{
place = "{386, 123}";
type = Stem;
},
{
place = "{692, 120}";
type = Stem;
},
{
place = "{827, 130}";
type = Stem;
},
{
horizontal = 1;
place = "{664, 16}";
type = Stem;
}
);
layerId = "B7A40619-0288-44E4-A367-A835A45E2561";
paths = (
{
closed = 1;
nodes = (
"509 565 LINE",
"692 565 LINE",
"692 412 LINE",
"509 412 LINE"
);
},
{
closed = 1;
nodes = (
"812 412 LINE",
"812 664 LINE",
"848.02 638.41 OFFCURVE",
"873.35 618.41 OFFCURVE",
"888 604 CURVE",
"961 695 LINE",
"915.67 732.27 OFFCURVE",
"846.67 776.93 OFFCURVE",
"754 829 CURVE",
"685 749 LINE",
"710.79 733.64 OFFCURVE",
"745.79 710.64 OFFCURVE",
"790 680 CURVE",
"509 680 LINE",
"509 843 LINE",
"386 843 LINE",
"386 680 LINE",
"113 680 LINE",
"113 565 LINE",
"386 565 LINE",
"386 412 LINE",
"59 412 LINE",
"59 300 LINE",
"386 300 LINE",
"386 -82 LINE",
"509 -82 LINE",
"509 300 LINE",
"827 300 LINE",
"817.61 195.74 OFFCURVE",
"803.94 135.08 OFFCURVE",
"786 118 CURVE",
"777.29 111.73 OFFCURVE",
"762.63 108.4 OFFCURVE",
"742 108 CURVE SMOOTH",
"681.69 108 OFFCURVE",
"631.02 110 OFFCURVE",
"590 114 CURVE",
"614.04 80.1 OFFCURVE",
"628.04 42.1 OFFCURVE",
"632 0 CURVE",
"701.55 -2.25 OFFCURVE",
"753.88 -1.92 OFFCURVE",
"789 1 CURVE SMOOTH",
"789.52 1.04 OFFCURVE",
"790.38 1.1 OFFCURVE",
"791.56 1.19 CURVE SMOOTH",
"834.37 4.46 OFFCURVE",
"866.85 18.4 OFFCURVE",
"889 43 CURVE SMOOTH",
"891.92 46.13 OFFCURVE",
"894.99 49.99 OFFCURVE",
"898.19 54.61 CURVE SMOOTH",
"922.71 91.89 OFFCURVE",
"941.31 194.68 OFFCURVE",
"954 363 CURVE SMOOTH",
"955.92 395 OFFCURVE",
"956.92 411.33 OFFCURVE",
"957 412 CURVE"
);
}
);
vertWidth = 1000;
width = 1000;
}
);
note = uni4E66;
unicode = 4E66;
},
{
glyphname = uni4F20;
layers = (
{
hints = (
{
horizontal = 1;
place = "{250, 111}";
type = Stem;
},
{
horizontal = 1;
place = "{445, 110}";
type = Stem;
},
{
horizontal = 1;
place = "{633, 108}";
type = Stem;
},
{
place = "{142, 115}";
type = Stem;
}
);
layerId = "B7A40619-0288-44E4-A367-A835A45E2561";
paths = (
{
closed = 1;
nodes = (
"242 843 LINE",
"233.88 819.85 OFFCURVE",
"224.62 796.27 OFFCURVE",
"214.24 772.27 CURVE SMOOTH",
"160.84 649.51 OFFCURVE",
"94.43 548.42 OFFCURVE",
"15 469 CURVE",
"16.24 467.18 OFFCURVE",
"17.76 464.89 OFFCURVE",
"19.55 462.14 CURVE SMOOTH",
"45.25 422.06 OFFCURVE",
"65.06 383.01 OFFCURVE",
"79 345 CURVE",
"97.44 365.24 OFFCURVE",
"118.44 389.9 OFFCURVE",
"142 419 CURVE",
"142 -86 LINE",
"257 -86 LINE",
"257 596 LINE",
"293.75 662.84 OFFCURVE",
"326.42 733.18 OFFCURVE",
"355 807 CURVE"
);
},
{
closed = 1;
nodes = (
"962 445 LINE",
"962 555 LINE",
"601 555 LINE",
"621 633 LINE",
"910 633 LINE",
"910 741 LINE",
"648 741 LINE",
"668 821 LINE",
"550 836 LINE",
"540.81 795.31 OFFCURVE",
"533.48 763.65 OFFCURVE",
"528 741 CURVE",
"352 741 LINE",
"352 633 LINE",
"502 633 LINE",
"481 555 LINE",
"295 555 LINE",
"295 445 LINE",
"449 445 LINE",
"435.42 397.85 OFFCURVE",
"415.08 332.85 OFFCURVE",
"388 250 CURVE",
"725 250 LINE",
"703.15 226.19 OFFCURVE",
"667.48 188.86 OFFCURVE",
"618 138 CURVE",
"590.52 155.63 OFFCURVE",
"562.19 172.29 OFFCURVE",
"533 188 CURVE",
"450 116 LINE",
"464.64 107.26 OFFCURVE",
"480.12 97.62 OFFCURVE",
"496.47 87.09 CURVE SMOOTH",
"596.17 22.61 OFFCURVE",
"672.35 -36.42 OFFCURVE",
"725 -90 CURVE",
"809 0 LINE",
"782.79 23.93 OFFCURVE",
"750.46 49.26 OFFCURVE",
"712 76 CURVE",
"798.38 164.63 OFFCURVE",
"872.38 243.63 OFFCURVE",
"934 313 CURVE",
"851 367 LINE",
"833 361 LINE",
"547 361 LINE",
"555 388 OFFCURVE",
"563 416 OFFCURVE",
"571 445 CURVE"
);
}
);
vertWidth = 1000;
width = 1000;
}
);
note = uni4F20;
unicode = 4F20;
},
{
glyphname = uni4F53;
layers = (
{
hints = (
{
horizontal = 1;
place = "{556, 113}";
type = Stem;
},
{
place = "{143, 113}";
type = Stem;
},
{
place = "{435, 9}";
type = Stem;
},
{
place = "{566, 116}";
type = Stem;
},
{
place = "{805, 11}";
type = Stem;
},
{
horizontal = 1;
place = "{81, 106}";
type = Stem;
},
{
horizontal = 1;
place = "{173, 14}";
type = Stem;
},
{
horizontal = 1;
place = "{169, 18}";
type = Stem;
}
);
layerId = "B7A40619-0288-44E4-A367-A835A45E2561";
paths = (
{
closed = 1;
nodes = (
"223 843 LINE",
"216.86 823.83 OFFCURVE",
"209.99 804.25 OFFCURVE",
"202.39 784.27 CURVE SMOOTH",
"153.03 655.24 OFFCURVE",
"90.9 550.15 OFFCURVE",
"16 469 CURVE",
"17.54 466.87 OFFCURVE",
"19.38 464.23 OFFCURVE",
"21.52 461.1 CURVE SMOOTH",
"46.81 423.34 OFFCURVE",
"66.97 384.64 OFFCURVE",
"82 345 CURVE",
"101.12 367.98 OFFCURVE",
"121.45 393.98 OFFCURVE",
"143 423 CURVE",
"143 -85 LINE",
"256 -85 LINE",
"256 616 LINE",
"287.15 680.41 OFFCURVE",
"313.82 744.75 OFFCURVE",
"336 809 CURVE"
);
},
{
closed = 1;
nodes = (
"682 187 LINE",
"682 448 LINE",
"717.13 351.08 OFFCURVE",
"758.13 264.08 OFFCURVE",
"805 187 CURVE"
);
},
{
closed = 1;
nodes = (
"444 187 LINE",
"491.09 261.31 OFFCURVE",
"531.76 345.98 OFFCURVE",
"566 441 CURVE",
"566 187 LINE"
);
},
{
closed = 1;
nodes = (
"958 556 LINE",
"958 669 LINE",
"682 669 LINE",
"682 842 LINE",
"566 842 LINE",
"566 669 LINE",
"313 669 LINE",
"313 556 LINE",
"510 556 LINE",
"498.84 524.02 OFFCURVE",
"486.09 491.92 OFFCURVE",
"471.76 459.68 CURVE SMOOTH",
"411.5 324.74 OFFCURVE",
"341.25 221.51 OFFCURVE",
"261 150 CURVE",
"261.57 149.57 OFFCURVE",
"262.49 148.88 OFFCURVE",
"263.74 147.93 CURVE SMOOTH",
"292.73 125.51 OFFCURVE",
"320.15 96.2 OFFCURVE",
"346 60 CURVE",
"375.17 89.32 OFFCURVE",
"404.84 126.99 OFFCURVE",
"435 173 CURVE",
"435 81 LINE",
"566 81 LINE",
"566 -80 LINE",
"682 -80 LINE",
"682 81 LINE",
"816 81 LINE",
"816 169 LINE",
"842.67 128.06 OFFCURVE",
"869.34 92.73 OFFCURVE",
"896 63 CURVE",
"896.24 63.34 OFFCURVE",
"896.7 64.02 OFFCURVE",
"897.4 65.03 CURVE SMOOTH",
"919.52 96.79 OFFCURVE",
"948.72 126.77 OFFCURVE",
"985 155 CURVE",
"967.64 171.36 OFFCURVE",
"949.98 190.23 OFFCURVE",
"932.01 211.6 CURVE SMOOTH",
"852.75 306.57 OFFCURVE",
"789.08 421.37 OFFCURVE",
"741 556 CURVE"
);
}
);
vertWidth = 1000;
width = 1000;
}
);
note = uni4F53;
unicode = 4F53;
},
{
glyphname = uni5973;
layers = (
{
hints = (
{
horizontal = 1;
place = "{498, 128}";
type = Stem;
},
{
place = "{41, 907}";
type = Stem;
}
);
layerId = "B7A40619-0288-44E4-A367-A835A45E2561";
paths = (
{
closed = 1;
nodes = (
"643 498 LINE",
"615.52 386.54 OFFCURVE",
"575.85 299.88 OFFCURVE",
"524 238 CURVE",
"456.6 267.83 OFFCURVE",
"393.93 295.16 OFFCURVE",
"336 320 CURVE",
"363.95 381.78 OFFCURVE",
"388.62 441.11 OFFCURVE",
"410 498 CURVE"
);
},
{
closed = 1;
nodes = (
"948 498 LINE",
"948 626 LINE",
"457 626 LINE",
"480.7 692.49 OFFCURVE",
"501.37 762.49 OFFCURVE",
"519 836 CURVE",
"392 854 LINE",
"372.84 780.54 OFFCURVE",
"348.51 704.54 OFFCURVE",
"319 626 CURVE",
"58 626 LINE",
"58 498 LINE",
"269 498 LINE",
"229.51 406.63 OFFCURVE",
"191.51 328.29 OFFCURVE",
"155 263 CURVE",
"237.26 230.62 OFFCURVE",
"325.59 191.95 OFFCURVE",
"420 147 CURVE",
"332.85 92.86 OFFCURVE",
"206.51 56.53 OFFCURVE",
"41 38 CURVE",
"68.23 4.14 OFFCURVE",
"89.56 -36.19 OFFCURVE",
"105 -83 CURVE",
"113 -81.68 OFFCURVE",
"121.22 -80.29 OFFCURVE",
"129.65 -78.82 CURVE SMOOTH",
"317.97 -45.85 OFFCURVE",
"458.42 7.76 OFFCURVE",
"551 82 CURVE",
"658.85 27.11 OFFCURVE",
"758.19 -29.56 OFFCURVE",
"849 -88 CURVE",
"942 26 LINE",
"855.27 76.17 OFFCURVE",
"756.61 127.5 OFFCURVE",
"646 180 CURVE",
"705.21 260.22 OFFCURVE",
"749.21 366.22 OFFCURVE",
"778 498 CURVE"
);
}
);
vertWidth = 1000;
width = 1000;
}
);
note = uni5973;
unicode = 5973;
},
{
glyphname = uni7EDF;
layers = (
{
hints = (
{
horizontal = 1;
place = "{-70, 100}";
type = Stem;
},
{
horizontal = 1;
place = "{611, 106}";
type = Stem;
},
{
place = "{398, 9}";
type = Stem;
},
{
place = "{492, 117}";
type = Stem;
},
{
place = "{680, 117}";
type = Stem;
},
{
place = "{869, 101}";
type = Stem;
}
);
layerId = "B7A40619-0288-44E4-A367-A835A45E2561";
paths = (
{
closed = 1;
nodes = (
"964 368 LINE",
"937.77 427.79 OFFCURVE",
"890.11 502.79 OFFCURVE",
"821 593 CURVE",
"730 548 LINE",
"746.71 523.47 OFFCURVE",
"762.38 499.81 OFFCURVE",
"777 477 CURVE",
"579 461 LINE",
"602.64 489.8 OFFCURVE",
"640.64 539.8 OFFCURVE",
"693 611 CURVE",
"953 611 LINE",
"953 717 LINE",
"678 717 LINE",
"742 735 LINE",
"732.41 766.55 OFFCURVE",
"715.75 805.55 OFFCURVE",
"692 852 CURVE",
"580 824 LINE",
"592.38 794.69 OFFCURVE",
"605.38 759.02 OFFCURVE",
"619 717 CURVE",
"398 717 LINE",
"398 611 LINE",
"554 611 LINE",
"497.74 536.93 OFFCURVE",
"461.74 491.93 OFFCURVE",
"446 476 CURVE SMOOTH",
"428.88 461.55 OFFCURVE",
"404.54 450.55 OFFCURVE",
"373 443 CURVE",
"389.68 404.23 OFFCURVE",
"401.35 366.23 OFFCURVE",
"408 329 CURVE",
"413.4 331.34 OFFCURVE",
"419.42 333.53 OFFCURVE",
"426.06 335.57 CURVE SMOOTH",
"456.45 344.53 OFFCURVE",
"591.43 361.33 OFFCURVE",
"831 386 CURVE",
"847.3 353.39 OFFCURVE",
"858.3 329.73 OFFCURVE",
"864 315 CURVE"
);
},
{
closed = 1;
nodes = (
"236 331 LINE",
"300.92 412.78 OFFCURVE",
"357.92 497.11 OFFCURVE",
"407 584 CURVE",
"304 649 LINE",
"289.26 617.88 OFFCURVE",
"270.93 583.21 OFFCURVE",
"249 545 CURVE",
"176 539 LINE",
"233.3 619.39 OFFCURVE",
"281.63 706.72 OFFCURVE",
"321 801 CURVE",
"200 857 LINE",
"191.8 829.62 OFFCURVE",
"181.38 800.15 OFFCURVE",
"168.76 768.57 CURVE SMOOTH",
"137.13 689.87 OFFCURVE",
"107.88 630.68 OFFCURVE",
"81 591 CURVE SMOOTH",
"79.29 588.52 OFFCURVE",
"77.5 585.93 OFFCURVE",
"75.62 583.23 CURVE SMOOTH",
"54.64 553.25 OFFCURVE",
"36.44 536.51 OFFCURVE",
"21 533 CURVE",
"36.78 496.96 OFFCURVE",
"50.78 457.3 OFFCURVE",
"63 414 CURVE",
"78.18 421.98 OFFCURVE",
"117.18 429.64 OFFCURVE",
"180 437 CURVE",
"151.71 395.61 OFFCURVE",
"128.37 364.94 OFFCURVE",
"110 345 CURVE SMOOTH",
"78.95 308.07 OFFCURVE",
"52.61 286.74 OFFCURVE",
"31 281 CURVE",
"45.01 250.65 OFFCURVE",
"57.68 213.98 OFFCURVE",
"69 171 CURVE",
"70.43 171.83 OFFCURVE",
"72.17 172.82 OFFCURVE",
"74.24 173.97 CURVE SMOOTH",
"101.22 188.56 OFFCURVE",
"201.48 215.9 OFFCURVE",
"375 256 CURVE",
"370.86 290.2 OFFCURVE",
"370.86 324.87 OFFCURVE",
"375 360 CURVE"
);
},
{
closed = 1;
nodes = (
"373 184 LINE",
"188.36 119.96 OFFCURVE",
"76.36 82.29 OFFCURVE",
"37 71 CURVE",
"64 -47 LINE",
"172.39 -6.75 OFFCURVE",
"282.72 36.91 OFFCURVE",
"395 84 CURVE"
);
},
{
closed = 1;
nodes = (
"492 345 LINE",
"488.63 250.34 OFFCURVE",
"479.11 182.4 OFFCURVE",
"463.43 141.19 CURVE SMOOTH",
"440.22 81.27 OFFCURVE",
"392.74 36.2 OFFCURVE",
"321 6 CURVE",
"322.26 4.91 OFFCURVE",
"323.87 3.48 OFFCURVE",
"325.84 1.7 CURVE SMOOTH",
"352.4 -23.01 OFFCURVE",
"375.12 -54.24 OFFCURVE",
"394 -92 CURVE",
"473.87 -55.04 OFFCURVE",
"530.13 -0.88 OFFCURVE",
"562.76 70.47 CURVE SMOOTH",
"588.84 128.96 OFFCURVE",
"604.26 220.47 OFFCURVE",
"609 345 CURVE"
);
},
{
closed = 1;
nodes = (
"813 30 LINE SMOOTH",
"810.18 30.05 OFFCURVE",
"807.57 30.35 OFFCURVE",
"805.16 30.9 CURVE SMOOTH",
"799.72 32.72 OFFCURVE",
"797 44.09 OFFCURVE",
"797 65 CURVE SMOOTH",
"797 346 LINE",
"680 346 LINE",
"680 64 LINE SMOOTH",
"680.08 21.48 OFFCURVE",
"684.89 -9.56 OFFCURVE",
"694.43 -29.13 CURVE SMOOTH",
"708.35 -56.38 OFFCURVE",
"740.21 -70 OFFCURVE",
"790 -70 CURVE SMOOTH",
"859 -70 LINE SMOOTH",
"887.16 -69.81 OFFCURVE",
"909.05 -62.46 OFFCURVE",
"924.66 -47.96 CURVE SMOOTH",
"949.4 -23.66 OFFCURVE",
"964.51 36.33 OFFCURVE",
"970 132 CURVE",
"927.13 143.61 OFFCURVE",
"893.46 158.95 OFFCURVE",
"869 178 CURVE",
"867.66 122.2 OFFCURVE",
"865.98 84.6 OFFCURVE",
"863.95 65.22 CURVE SMOOTH",
"861.39 41.74 OFFCURVE",
"855.74 30 OFFCURVE",
"847 30 CURVE SMOOTH"
);
}
);
vertWidth = 1000;
width = 1000;
}
);
note = uni7EDF;
unicode = 7EDF;
},
{
glyphname = u16FE1;
layers = (
{
hints = (
{
horizontal = 1;
place = "{203, 149}";
type = Stem;
},
{
horizontal = 1;
place = "{636, 149}";
type = Stem;
},
{
place = "{111, 142}";
type = Stem;
},
{
place = "{321, 142}";
type = Stem;
},
{
place = "{614, 113}";
type = Stem;
}
);
layerId = "B7A40619-0288-44E4-A367-A835A45E2561";
paths = (
{
closed = 1;
nodes = (
"644.21 747.45 OFFCURVE",
"653.87 870.45 OFFCURVE",
"650 1000 CURVE",
"534 997 LINE",
"534.72 967.74 OFFCURVE",
"534.77 938.48 OFFCURVE",
"534.14 909.21 CURVE SMOOTH",
"529.07 684.17 OFFCURVE",
"487.03 508.76 OFFCURVE",
"408 383 CURVE",
"246 717 LINE",
"141 667 LINE",
"356 235 LINE",
"442 227 LINE",
"498.07 295.87 OFFCURVE",
"543.4 379.2 OFFCURVE",
"578 477 CURVE",
"601.62 436.01 OFFCURVE",
"613.62 392.01 OFFCURVE",
"614 345 CURVE SMOOTH",
"613.69 229.66 OFFCURVE",
"556.69 98.66 OFFCURVE",
"443 -48 CURVE",
"535 -120 LINE",
"662.46 40.9 OFFCURVE",
"726.46 192.9 OFFCURVE",
"727 336 CURVE SMOOTH",
"726.77 433.21 OFFCURVE",
"691.43 531.55 OFFCURVE",
"621 631 CURVE"
);
},
{
closed = 1;
nodes = (
"403.03 636.15 OFFCURVE",
"413.64 638.56 OFFCURVE",
"423.81 643.23 CURVE SMOOTH",
"449.93 656.12 OFFCURVE",
"463 678.37 OFFCURVE",
"463 710 CURVE SMOOTH",
"462.86 722.03 OFFCURVE",
"460.44 733.52 OFFCURVE",
"455.74 744.47 CURVE SMOOTH",
"443.32 771.49 OFFCURVE",
"422.08 785 OFFCURVE",
"392 785 CURVE SMOOTH",
"380.34 784.82 OFFCURVE",
"369.13 781.95 OFFCURVE",
"358.37 776.38 CURVE SMOOTH",
"333.45 762.56 OFFCURVE",
"321 740.43 OFFCURVE",
"321 710 CURVE SMOOTH",
"321.16 697.83 OFFCURVE",
"323.94 686.11 OFFCURVE",
"329.32 674.84 CURVE SMOOTH",
"342.53 648.95 OFFCURVE",
"363.42 636 OFFCURVE",
"392 636 CURVE SMOOTH"
);
},
{
closed = 1;
nodes = (
"170.34 351.82 OFFCURVE",
"159.13 348.95 OFFCURVE",
"148.37 343.38 CURVE SMOOTH",
"123.45 329.56 OFFCURVE",
"111 307.43 OFFCURVE",
"111 277 CURVE SMOOTH",
"111.16 264.83 OFFCURVE",
"113.94 253.11 OFFCURVE",
"119.32 241.84 CURVE SMOOTH",
"132.53 215.95 OFFCURVE",
"153.42 203 OFFCURVE",
"182 203 CURVE SMOOTH",
"193.03 203.15 OFFCURVE",
"203.64 205.56 OFFCURVE",
"213.81 210.23 CURVE SMOOTH",
"239.93 223.12 OFFCURVE",
"253 245.37 OFFCURVE",
"253 277 CURVE SMOOTH",
"252.86 289.03 OFFCURVE",
"250.44 300.52 OFFCURVE",
"245.74 311.47 CURVE SMOOTH",
"233.32 338.49 OFFCURVE",
"212.08 352 OFFCURVE",
"182 352 CURVE SMOOTH"
);
}
);
vertWidth = 1000;
width = 850;
}
);
note = u16FE1;
unicode = 16FE1;
},
{
glyphname = u1B170;
layers = (
{
hints = (
{
place = "{548, 123}";
type = Stem;
}
);
layerId = "B7A40619-0288-44E4-A367-A835A45E2561";
paths = (
{
closed = 1;
nodes = (
"204 -120 LINE",
"294.35 -35.34 OFFCURVE",
"371.1 54.96 OFFCURVE",
"434.24 150.91 CURVE SMOOTH",
"584.36 379.98 OFFCURVE",
"663.28 662.01 OFFCURVE",
"671 997 CURVE",
"548 1000 LINE",
"544.99 869.83 OFFCURVE",
"531.19 749.56 OFFCURVE",
"506.58 639.2 CURVE SMOOTH",
"447.67 376.56 OFFCURVE",
"318.81 153.16 OFFCURVE",
"120 -31 CURVE"
);
}
);
vertWidth = 1000;
width = 850;
}
);
note = u1B170;
unicode = 1B170;
},
{
glyphname = u1B171;
layers = (
{
hints = (
{
place = "{607, 122}";
type = Stem;
}
);
layerId = "B7A40619-0288-44E4-A367-A835A45E2561";
paths = (
{
closed = 1;
nodes = (
"203 217 LINE",
"248.07 243.59 OFFCURVE",
"290.82 272.26 OFFCURVE",
"331.23 302.99 CURVE SMOOTH",
"561.32 478.66 OFFCURVE",
"693.91 706 OFFCURVE",
"729 985 CURVE",
"607 1000 LINE",
"593.2 893.82 OFFCURVE",
"559.13 791.61 OFFCURVE",
"504.81 693.36 CURVE SMOOTH",
"419.88 540.59 OFFCURVE",
"298.61 417.47 OFFCURVE",
"141 324 CURVE"
);
},
{
closed = 1;
nodes = (
"179 -120 LINE",
"384.32 -1.52 OFFCURVE",
"564.65 139.81 OFFCURVE",
"720 304 CURVE",
"633 391 LINE",
"617.86 374.95 OFFCURVE",
"601.58 358.39 OFFCURVE",
"584.18 341.3 CURVE SMOOTH",
"448.18 208.21 OFFCURVE",
"293.45 90.45 OFFCURVE",
"120 -12 CURVE"
);
}
);
vertWidth = 1000;
width = 850;
}
);
note = u1B171;
unicode = 1B171;
},
{
glyphname = u1B172;
layers = (
{
hints = (
{
place = "{440, 115}";
type = Stem;
},
{
place = "{614, 115}";
type = Stem;
}
);
layerId = "B7A40619-0288-44E4-A367-A835A45E2561";
paths = (
{
closed = 1;
nodes = (
"614 1000 LINE",
"601.52 850.07 OFFCURVE",
"557.86 718.41 OFFCURVE",
"483 605 CURVE",
"455.3 673.61 OFFCURVE",
"418.64 747.95 OFFCURVE",
"373 828 CURVE",
"269 770 LINE",
"329.08 665.04 OFFCURVE",
"372.08 574.38 OFFCURVE",
"398 498 CURVE",
"325.39 419.53 OFFCURVE",
"232.73 345.86 OFFCURVE",
"120 277 CURVE",
"178 173 LINE",
"277 230 OFFCURVE",
"362 292 OFFCURVE",
"433 359 CURVE",
"437.55 331.32 OFFCURVE",
"439.89 301.99 OFFCURVE",
"440 271 CURVE SMOOTH",
"439.77 155.01 OFFCURVE",
"400.1 49.01 OFFCURVE",
"321 -47 CURVE",
"414 -120 LINE",
"507.5 -3.23 OFFCURVE",
"554.5 126.43 OFFCURVE",
"555 269 CURVE SMOOTH",
"554.91 330.74 OFFCURVE",
"546.24 395.41 OFFCURVE",
"529 463 CURVE",
"646.87 611.67 OFFCURVE",
"713.54 787.33 OFFCURVE",
"729 990 CURVE"
);
}
);
vertWidth = 1000;
width = 850;
}
);
note = u1B172;
unicode = 1B172;
},
{
glyphname = u1B173;
layers = (
{
hints = (
{
place = "{425, 122}";
type = Stem;
}
);
layerId = "B7A40619-0288-44E4-A367-A835A45E2561";
paths = (
{
closed = 1;
nodes = (
"753 -12 LINE",
"670.81 189.94 OFFCURVE",
"579.14 359.28 OFFCURVE",
"478 496 CURVE",
"516.99 646.26 OFFCURVE",
"539.99 813.26 OFFCURVE",
"547 997 CURVE",
"425 1000 LINE",
"415.86 784.38 OFFCURVE",
"384.78 595.29 OFFCURVE",
"331.75 432.73 CURVE SMOOTH",
"280.26 275.56 OFFCURVE",
"196.34 116.32 OFFCURVE",
"80 -45 CURVE",
"176 -120 LINE",
"289.96 31.77 OFFCURVE",
"375.63 188.1 OFFCURVE",
"433 349 CURVE",
"514.22 222.39 OFFCURVE",
"583.22 86.73 OFFCURVE",
"640 -58 CURVE"
);
}
);
vertWidth = 1000;
width = 850;
}
);
note = u1B173;
unicode = 1B173;
},
{
glyphname = u1B174;
layers = (
{
hints = (
{
place = "{238, 121}";
type = Stem;
},
{
place = "{496, 120}";
type = Stem;
}
);
layerId = "B7A40619-0288-44E4-A367-A835A45E2561";
paths = (
{
closed = 1;
nodes = (
"496.18 408.36 OFFCURVE",
"541.52 246.7 OFFCURVE",
"632 79 CURVE",
"740 140 LINE",
"657.72 290.61 OFFCURVE",
"616.38 431.94 OFFCURVE",
"616 564 CURVE SMOOTH",
"616.13 687.7 OFFCURVE",
"643.13 819.7 OFFCURVE",
"697 960 CURVE",
"581 1000 LINE",
"524.62 865.39 OFFCURVE",
"496.29 720.05 OFFCURVE",
"496 564 CURVE SMOOTH"
);
},
{
closed = 1;
nodes = (
"217 -120 LINE",
"311.29 41.87 OFFCURVE",
"358.62 207.87 OFFCURVE",
"359 378 CURVE SMOOTH",
"358.84 514.04 OFFCURVE",
"324.84 657.71 OFFCURVE",
"257 809 CURVE",
"146 760 LINE",
"207.01 624.9 OFFCURVE",
"237.68 497.56 OFFCURVE",
"238 378 CURVE SMOOTH",
"237.8 226.56 OFFCURVE",
"195.13 80.23 OFFCURVE",
"110 -61 CURVE"
);
}
);
vertWidth = 1000;
width = 850;
}
);
note = u1B174;
unicode = 1B174;
},
{
glyphname = u1B175;
layers = (
{
hints = (
{
place = "{593, 116}";
type = Stem;
}
);
layerId = "B7A40619-0288-44E4-A367-A835A45E2561";
paths = (
{
closed = 1;
nodes = (
"730 2 LINE",
"669.96 117.7 OFFCURVE",
"603.62 229.37 OFFCURVE",
"531 337 CURVE",
"536.31 347.47 OFFCURVE",
"541.66 358.36 OFFCURVE",
"547.05 369.66 CURVE SMOOTH",
"623.1 529.73 OFFCURVE",
"677.08 735.51 OFFCURVE",
"709 987 CURVE",
"593 1000 LINE",
"563.25 775.83 OFFCURVE",
"516.58 592.17 OFFCURVE",
"453 449 CURVE",
"379.59 547.15 OFFCURVE",
"309.26 629.48 OFFCURVE",
"242 696 CURVE",
"160 618 LINE",
"239.27 533.56 OFFCURVE",
"317.27 438.23 OFFCURVE",
"394 332 CURVE",
"322.15 208.23 OFFCURVE",
"223.15 85.56 OFFCURVE",
"97 -36 CURVE",
"177 -120 LINE",
"296.82 -6.92 OFFCURVE",
"393.82 107.74 OFFCURVE",
"468 224 CURVE",
"530.08 130.29 OFFCURVE",
"583.41 38.96 OFFCURVE",
"628 -50 CURVE"
);
}
);
vertWidth = 1000;
width = 850;
}
);
note = u1B175;
unicode = 1B175;
},
{
glyphname = u1B176;
layers = (
{
hints = (
{
horizontal = 1;
place = "{339, 169}";
type = Stem;
},
{
place = "{170, 158}";
type = Stem;
},
{
place = "{551, 129}";
type = Stem;
}
);
layerId = "B7A40619-0288-44E4-A367-A835A45E2561";
paths = (
{
closed = 1;
nodes = (
"382 -120 LINE",
"437.49 -77.32 OFFCURVE",
"486.29 -29.26 OFFCURVE",
"528.4 24.19 CURVE SMOOTH",
"629.47 153.42 OFFCURVE",
"680 296.02 OFFCURVE",
"680 452 CURVE SMOOTH",
"679.94 496.94 OFFCURVE",
"675.62 542.05 OFFCURVE",
"667.06 587.32 CURVE SMOOTH",
"636.33 747.4 OFFCURVE",
"559.31 884.96 OFFCURVE",
"436 1000 CURVE",
"353 913 LINE",
"376.8 888.39 OFFCURVE",
"398.98 862.12 OFFCURVE",
"419.53 834.18 CURVE SMOOTH",
"507.18 714.2 OFFCURVE",
"551 584.8 OFFCURVE",
"551 446 CURVE SMOOTH",
"550.94 415.93 OFFCURVE",
"548.2 385.7 OFFCURVE",
"542.78 355.31 CURVE SMOOTH",
"516.92 213.46 OFFCURVE",
"437.32 89.69 OFFCURVE",
"304 -16 CURVE"
);
},
{
closed = 1;
nodes = (
"261.97 339 OFFCURVE",
"273.89 341.69 OFFCURVE",
"284.78 347.08 CURVE SMOOTH",
"313.59 361.34 OFFCURVE",
"328 386.65 OFFCURVE",
"328 423 CURVE SMOOTH",
"327.86 437.07 OFFCURVE",
"325.18 450.31 OFFCURVE",
"319.94 462.72 CURVE SMOOTH",
"306.41 492.91 OFFCURVE",
"282.76 508 OFFCURVE",
"249 508 CURVE SMOOTH",
"237.58 507.87 OFFCURVE",
"226.66 505.74 OFFCURVE",
"216.24 501.61 CURVE SMOOTH",
"185.41 488.49 OFFCURVE",
"170 462.29 OFFCURVE",
"170 423 CURVE SMOOTH",
"170.14 409.03 OFFCURVE",
"172.89 395.88 OFFCURVE",
"178.24 383.52 CURVE SMOOTH",
"191.91 353.84 OFFCURVE",
"215.5 339 OFFCURVE",
"249 339 CURVE SMOOTH"
);
}
);
vertWidth = 1000;
width = 850;
}
);
note = u1B176;
unicode = 1B176;
},
{
glyphname = u1B177;
layers = (
{
hints = (
{
horizontal = 1;
place = "{349, 169}";
type = Stem;
},
{
place = "{170, 129}";
type = Stem;
},
{
place = "{522, 158}";
type = Stem;
}
);
layerId = "B7A40619-0288-44E4-A367-A835A45E2561";
paths = (
{
closed = 1;
nodes = (
"534 -18 LINE",
"514.25 -1.02 OFFCURVE",
"495.3 16.79 OFFCURVE",
"477.14 35.43 CURVE SMOOTH",
"358.38 158.13 OFFCURVE",
"299 292.65 OFFCURVE",
"299 439 CURVE SMOOTH",
"299.04 460.27 OFFCURVE",
"300.39 481.92 OFFCURVE",
"303.05 503.96 CURVE SMOOTH",
"321.19 649.89 OFFCURVE",
"393.51 783.9 OFFCURVE",
"520 906 CURVE",
"434 1001 LINE",
"397.16 967.85 OFFCURVE",
"363.51 932.2 OFFCURVE",
"333.06 894.05 CURVE SMOOTH",
"224.35 756.98 OFFCURVE",
"170 606.63 OFFCURVE",
"170 443 CURVE SMOOTH",
"170.07 397.48 OFFCURVE",
"174.68 352.04 OFFCURVE",
"183.85 306.7 CURVE SMOOTH",
"217.73 141.51 OFFCURVE",
"305.78 -0.72 OFFCURVE",
"448 -120 CURVE"
);
},
{
closed = 1;
nodes = (
"613.97 349 OFFCURVE",
"625.89 351.69 OFFCURVE",
"636.78 357.08 CURVE SMOOTH",
"665.59 371.34 OFFCURVE",
"680 396.65 OFFCURVE",
"680 433 CURVE SMOOTH",
"679.86 447.07 OFFCURVE",
"677.18 460.31 OFFCURVE",
"671.94 472.72 CURVE SMOOTH",
"658.41 502.91 OFFCURVE",
"634.76 518 OFFCURVE",
"601 518 CURVE SMOOTH",
"588.17 518 OFFCURVE",
"576.37 515.36 OFFCURVE",
"565.59 510.08 CURVE SMOOTH",
"536.53 495.83 OFFCURVE",
"522 470.14 OFFCURVE",
"522 433 CURVE SMOOTH",
"522.14 419.03 OFFCURVE",
"524.89 405.88 OFFCURVE",
"530.24 393.52 CURVE SMOOTH",
"543.91 363.84 OFFCURVE",
"567.5 349 OFFCURVE",
"601 349 CURVE SMOOTH"
);
}
);
vertWidth = 1000;
width = 850;
}
);
note = u1B177;
unicode = 1B177;
},
{
glyphname = u1B178;
layers = (
{
hints = (
{
place = "{180, 118}";
type = Stem;
},
{
place = "{413, 121}";
type = Stem;
},
{
place = "{574, 119}";
type = Stem;
}
);
layerId = "B7A40619-0288-44E4-A367-A835A45E2561";
paths = (
{
closed = 1;
nodes = (
"306 -120 LINE",
"317.74 -106.32 OFFCURVE",
"329.28 -91.95 OFFCURVE",
"340.62 -76.91 CURVE SMOOTH",
"469.54 95.29 OFFCURVE",
"534 334.26 OFFCURVE",
"534 640 CURVE SMOOTH",
"533.96 743.78 OFFCURVE",
"526.96 863.78 OFFCURVE",
"513 1000 CURVE",
"393 986 LINE",
"406.25 855.08 OFFCURVE",
"412.92 739.74 OFFCURVE",
"413 640 CURVE SMOOTH",
"412.98 595.01 OFFCURVE",
"411.63 551.72 OFFCURVE",
"408.94 510.13 CURVE SMOOTH",
"393.42 273.84 OFFCURVE",
"328.44 88.8 OFFCURVE",
"214 -45 CURVE"
);
},
{
closed = 1;
nodes = (
"162 47 LINE",
"252.14 146.95 OFFCURVE",
"297.48 269.28 OFFCURVE",
"298 414 CURVE SMOOTH",
"297.91 483.13 OFFCURVE",
"287.57 558.13 OFFCURVE",
"267 639 CURVE",
"153 610 LINE",
"170.83 539.46 OFFCURVE",
"179.83 474.46 OFFCURVE",
"180 415 CURVE SMOOTH",
"179.78 298.19 OFFCURVE",
"145.11 200.19 OFFCURVE",
"76 121 CURVE"
);
},
{
closed = 1;
nodes = (
"733 -41 LINE",
"706.57 35.52 OFFCURVE",
"693.24 107.52 OFFCURVE",
"693 175 CURVE SMOOTH",
"693.19 275.48 OFFCURVE",
"723.86 378.81 OFFCURVE",
"785 485 CURVE",
"681 541 LINE",
"610.05 421.75 OFFCURVE",
"574.39 299.41 OFFCURVE",
"574 174 CURVE SMOOTH",
"574.13 87.63 OFFCURVE",
"590.79 1.63 OFFCURVE",
"624 -84 CURVE"
);
}
);
vertWidth = 1000;
width = 850;
}
);
note = u1B178;
unicode = 1B178;
},
{
glyphname = u1B179;
layers = (
{
hints = (
{
place = "{373, 119}";
type = Stem;
},
{
place = "{494, 116}";
type = Stem;
},
{
place = "{612, 116}";
type = Stem;
}
);
layerId = "B7A40619-0288-44E4-A367-A835A45E2561";
paths = (
{
closed = 1;
nodes = (
"609.9 574.22 OFFCURVE",
"603.23 617.56 OFFCURVE",
"590 665 CURVE",
"657.65 751.56 OFFCURVE",
"703.65 854.89 OFFCURVE",
"728 975 CURVE",
"612 1000 LINE",
"604.74 968.22 OFFCURVE",
"595.56 937.5 OFFCURVE",
"584.47 907.82 CURVE SMOOTH",
"516.46 727.53 OFFCURVE",
"370.63 593.92 OFFCURVE",
"147 507 CURVE",
"187 398 LINE",
"311 443 OFFCURVE",
"413 499 OFFCURVE",
"493 566 CURVE",
"493.58 561.49 OFFCURVE",
"493.91 554.16 OFFCURVE",
"494 544 CURVE SMOOTH",
"493.78 497.33 OFFCURVE",
"479.56 453.84 OFFCURVE",
"451.34 413.53 CURVE SMOOTH",
"399.84 341.31 OFFCURVE",
"289.39 271.47 OFFCURVE",
"120 204 CURVE",
"157 94 LINE",
"242.26 125.53 OFFCURVE",
"315.59 159.53 OFFCURVE",
"377 196 CURVE",
"388.92 95.88 OFFCURVE",
"387.58 -4.79 OFFCURVE",
"373 -106 CURVE",
"492 -120 LINE",
"492.21 -118.48 OFFCURVE",
"492.46 -116.62 OFFCURVE",
"492.76 -114.42 CURVE SMOOTH",
"510.56 18.45 OFFCURVE",
"508.64 148.26 OFFCURVE",
"487 275 CURVE",
"568.39 350.64 OFFCURVE",
"609.39 437.3 OFFCURVE",
"610 535 CURVE SMOOTH"
);
}
);
vertWidth = 1000;
width = 850;
}
);
note = u1B179;
unicode = 1B179;
},
{
glyphname = u1B17A;
layers = (
{
hints = (
{
place = "{559, 116}";
type = Stem;
}
);
layerId = "B7A40619-0288-44E4-A367-A835A45E2561";
paths = (
{
closed = 1;
nodes = (
"599.36 728.82 OFFCURVE",
"646.03 846.15 OFFCURVE",
"675 975 CURVE",
"559 1000 LINE",
"532.91 896.02 OFFCURVE",
"494.57 800.69 OFFCURVE",
"444 714 CURVE",
"375.9 777.01 OFFCURVE",
"303.23 835.01 OFFCURVE",
"226 888 CURVE",
"159 795 LINE",
"228.69 744.99 OFFCURVE",
"301.02 683.66 OFFCURVE",
"376 611 CURVE",
"307.3 520.63 OFFCURVE",
"221.96 438.29 OFFCURVE",
"120 364 CURVE",
"190 268 LINE",
"296.75 341.3 OFFCURVE",
"388.09 425.3 OFFCURVE",
"464 520 CURVE",
"528.78 447.7 OFFCURVE",
"583.78 377.04 OFFCURVE",
"629 308 CURVE",
"730 375 LINE",
"672.49 463.65 OFFCURVE",
"607.49 546.31 OFFCURVE",
"535 623 CURVE"
);
},
{
closed = 1;
nodes = (
"389 349 LINE",
"404.31 183.92 OFFCURVE",
"398.31 33.59 OFFCURVE",
"371 -102 CURVE",
"489 -120 LINE",
"519.17 25.98 OFFCURVE",
"525.84 186.32 OFFCURVE",
"509 361 CURVE"
);
}
);
vertWidth = 1000;
width = 850;
}
);
note = u1B17A;
unicode = 1B17A;
},
{
glyphname = u1B17B;
layers = (
{
hints = (
{
place = "{571, 112}";
type = Stem;
}
);
layerId = "B7A40619-0288-44E4-A367-A835A45E2561";
paths = (
{
closed = 1;
nodes = (
"486 535 LINE",
"590.89 662.33 OFFCURVE",
"656.56 813.66 OFFCURVE",
"683 989 CURVE",
"571 1000 LINE",
"551.5 869.51 OFFCURVE",
"504.17 753.51 OFFCURVE",
"429 652 CURVE",
"319 877 LINE",
"215 827 LINE",
"347 557 LINE",
"288.83 498.02 OFFCURVE",
"213.16 436.35 OFFCURVE",
"120 372 CURVE",
"181 274 LINE",
"264.48 327.48 OFFCURVE",
"338.15 384.48 OFFCURVE",
"402 445 CURVE",
"450 346 LINE",
"368.3 209.38 OFFCURVE",
"268.97 80.38 OFFCURVE",
"152 -41 CURVE",
"239 -120 LINE",
"338.48 -19.41 OFFCURVE",
"429.48 93.92 OFFCURVE",
"512 220 CURVE",
"626 -14 LINE",
"730 37 LINE"
);
}
);
vertWidth = 1000;
width = 850;
}
);
note = u1B17B;
unicode = 1B17B;
},
{
glyphname = u1B17C;
layers = (
{
hints = (
{
place = "{512, 120}";
type = Stem;
}
);
layerId = "B7A40619-0288-44E4-A367-A835A45E2561";
paths = (
{
closed = 1;
nodes = (
"735 -14 LINE",
"692.72 60.96 OFFCURVE",
"638.05 135.29 OFFCURVE",
"571 209 CURVE",
"611.34 283.15 OFFCURVE",
"631.67 365.82 OFFCURVE",
"632 457 CURVE SMOOTH",
"631.87 546.83 OFFCURVE",
"612.2 646.83 OFFCURVE",
"573 757 CURVE",
"598.17 823.37 OFFCURVE",
"619.84 899.03 OFFCURVE",
"638 984 CURVE",
"518 1000 LINE",
"512.9 975.3 OFFCURVE",
"506.92 950.34 OFFCURVE",
"500.03 925.13 CURVE SMOOTH",
"443.59 719.76 OFFCURVE",
"339.58 539.05 OFFCURVE",
"188 383 CURVE",
"188 378 LINE",
"270.13 316.87 OFFCURVE",
"343.47 255.54 OFFCURVE",
"408 194 CURVE",
"351.31 130.7 OFFCURVE",
"255.31 61.03 OFFCURVE",
"120 -15 CURVE",
"179 -120 LINE",
"317.97 -52.91 OFFCURVE",
"423.64 21.42 OFFCURVE",
"496 103 CURVE",
"549 44 OFFCURVE",
"594 -17 OFFCURVE",
"631 -80 CURVE"
);
},
{
closed = 1;
nodes = (
"413.23 459.23 OFFCURVE",
"458.57 524.56 OFFCURVE",
"497 594 CURVE",
"506.84 548.42 OFFCURVE",
"511.84 505.75 OFFCURVE",
"512 466 CURVE SMOOTH",
"511.87 404.74 OFFCURVE",
"500.53 349.74 OFFCURVE",
"478 301 CURVE",
"443.3 332.83 OFFCURVE",
"404.3 365.16 OFFCURVE",
"361 398 CURVE"
);
}
);
vertWidth = 1000;
width = 850;
}
);
note = u1B17C;
unicode = 1B17C;
},
{
glyphname = u1B17D;
layers = (
{
hints = (
{
horizontal = 1;
place = "{62, 173}";
type = Stem;
},
{
place = "{313, 122}";
type = Stem;
},
{
place = "{522, 118}";
type = Stem;
},
{
place = "{608, 160}";
type = Stem;
}
);
layerId = "B7A40619-0288-44E4-A367-A835A45E2561";
paths = (
{
closed = 1;
nodes = (
"522 1000 LINE",
"493.01 887.44 OFFCURVE",
"454.28 787.43 OFFCURVE",
"405.81 699.99 CURVE SMOOTH",
"333.62 570.39 OFFCURVE",
"225.02 448.39 OFFCURVE",
"80 334 CURVE",
"147 239 LINE",
"236.15 301.54 OFFCURVE",
"314.15 371.54 OFFCURVE",
"381 449 CURVE",
"389.9 276.77 OFFCURVE",
"367.23 97.1 OFFCURVE",
"313 -90 CURVE",
"435 -120 LINE",
"445.42 -82.77 OFFCURVE",
"454.65 -45.93 OFFCURVE",
"462.7 -9.46 CURVE SMOOTH",
"503.83 177.73 OFFCURVE",
"512.93 381.88 OFFCURVE",
"490 603 CURVE",
"554.03 709.94 OFFCURVE",
"604.03 834.94 OFFCURVE",
"640 978 CURVE"
);
},
{
closed = 1;
nodes = (
"676.42 234.87 OFFCURVE",
"665.39 232.73 OFFCURVE",
"654.91 228.58 CURVE SMOOTH",
"623.63 215.27 OFFCURVE",
"608 188.41 OFFCURVE",
"608 148 CURVE SMOOTH",
"608.12 134.68 OFFCURVE",
"610.3 122.17 OFFCURVE",
"614.56 110.45 CURVE SMOOTH",
"627.07 78.15 OFFCURVE",
"651.55 62 OFFCURVE",
"688 62 CURVE SMOOTH",
"699.74 62.13 OFFCURVE",
"710.88 64.26 OFFCURVE",
"721.43 68.41 CURVE SMOOTH",
"752.48 81.5 OFFCURVE",
"768 108.03 OFFCURVE",
"768 148 CURVE SMOOTH",
"767.88 161.76 OFFCURVE",
"765.56 174.69 OFFCURVE",
"761.03 186.78 CURVE SMOOTH",
"748.22 218.93 OFFCURVE",
"723.88 235 OFFCURVE",
"688 235 CURVE SMOOTH"
);
}
);
vertWidth = 1000;
width = 850;
}
);
note = u1B17D;
unicode = 1B17D;
},
{
glyphname = u1B17E;
layers = (
{
hints = (
{
place = "{293, 129}";
type = Stem;
},
{
place = "{460, 126}";
type = Stem;
},
{
place = "{593, 123}";
type = Stem;
}
);
layerId = "B7A40619-0288-44E4-A367-A835A45E2561";
paths = (
{
closed = 1;
nodes = (
"553 841 OFFCURVE",
"573 910 OFFCURVE",
"586 984 CURVE",
"460 1000 LINE",
"450.77 945.78 OFFCURVE",
"437.22 894.47 OFFCURVE",
"419.34 846.05 CURVE SMOOTH",
"367.86 707.77 OFFCURVE",
"270.08 579.75 OFFCURVE",
"126 462 CURVE",
"126 457 LINE",
"236.61 374.56 OFFCURVE",
"292.28 267.23 OFFCURVE",
"293 135 CURVE SMOOTH",
"292.86 68.05 OFFCURVE",
"278.53 -3.95 OFFCURVE",
"250 -81 CURVE",
"367 -120 LINE",
"403.38 -35.09 OFFCURVE",
"421.71 51.25 OFFCURVE",
"422 139 CURVE SMOOTH",
"421.75 267.29 OFFCURVE",
"382.08 376.29 OFFCURVE",
"303 466 CURVE",
"367.96 526.03 OFFCURVE",
"420.96 589.03 OFFCURVE",
"462 655 CURVE",
"544.93 553.91 OFFCURVE",
"588.59 420.91 OFFCURVE",
"593 256 CURVE",
"716 263 LINE",
"717.73 462.55 OFFCURVE",
"654.39 633.88 OFFCURVE",
"526 777 CURVE"
);
}
);
vertWidth = 1000;
width = 850;
}
);
note = u1B17E;
unicode = 1B17E;
},
{
glyphname = u1B17F;
layers = (
{
hints = (
{
place = "{87, 158}";
type = Stem;
},
{
place = "{391, 123}";
type = Stem;
},
{
place = "{603, 158}";
type = Stem;
},
{
horizontal = 1;
place = "{232, 167}";
type = Stem;
},
{
horizontal = 1;
place = "{210, 167}";
type = Stem;
}
);
layerId = "B7A40619-0288-44E4-A367-A835A45E2561";
paths = (
{
closed = 1;
nodes = (
"267 -120 LINE",
"281.1 -103.2 OFFCURVE",
"294.79 -86 OFFCURVE",
"308.09 -68.39 CURVE SMOOTH",
"412.92 71 OFFCURVE",
"478.86 231.74 OFFCURVE",
"505.91 413.82 CURVE SMOOTH",
"526.15 550.05 OFFCURVE",
"528.85 745.45 OFFCURVE",
"513.99 1000 CURVE",
"390.99 989 LINE",
"391.13 987 OFFCURVE",
"391.29 984.68 OFFCURVE",
"391.47 982.03 CURVE SMOOTH",
"407.9 740.65 OFFCURVE",
"405.16 553.82 OFFCURVE",
"383.27 421.54 CURVE SMOOTH",
"354.29 246.43 OFFCURVE",
"284.19 92.58 OFFCURVE",
"172.99 -40.01 CURVE"
);
},
{
closed = 1;
nodes = (
"603.16 300.66 OFFCURVE",
"606.57 286.97 OFFCURVE",
"613.21 273.92 CURVE SMOOTH",
"628.26 245.97 OFFCURVE",
"651.19 231.99 OFFCURVE",
"681.99 231.99 CURVE SMOOTH",
"694.68 232.14 OFFCURVE",
"706.74 234.89 OFFCURVE",
"718.15 240.24 CURVE SMOOTH",
"746.71 254.52 OFFCURVE",
"760.99 279.44 OFFCURVE",
"760.99 314.99 CURVE SMOOTH",
"760.85 328.96 OFFCURVE",
"758.1 342.11 OFFCURVE",
"752.75 354.47 CURVE SMOOTH",
"739.08 384.15 OFFCURVE",
"715.49 398.99 OFFCURVE",
"681.99 398.99 CURVE SMOOTH",
"668.72 398.81 OFFCURVE",
"656.07 395.53 OFFCURVE",
"644.05 389.16 CURVE SMOOTH",
"616.68 373.71 OFFCURVE",
"602.99 348.98 OFFCURVE",
"602.99 314.99 CURVE SMOOTH"
);
},
{
closed = 1;
nodes = (
"178.68 210.14 OFFCURVE",
"190.74 212.89 OFFCURVE",
"202.15 218.24 CURVE SMOOTH",
"230.71 232.52 OFFCURVE",
"244.99 257.44 OFFCURVE",
"244.99 292.99 CURVE SMOOTH",
"244.85 306.96 OFFCURVE",
"242.1 320.11 OFFCURVE",
"236.75 332.47 CURVE SMOOTH",
"223.08 362.15 OFFCURVE",
"199.49 376.99 OFFCURVE",
"165.99 376.99 CURVE SMOOTH",
"152.72 376.81 OFFCURVE",
"140.07 373.53 OFFCURVE",
"128.05 367.16 CURVE SMOOTH",
"100.68 351.71 OFFCURVE",
"86.99 326.98 OFFCURVE",
"86.99 292.99 CURVE SMOOTH",
"87.16 278.66 OFFCURVE",
"90.57 264.97 OFFCURVE",
"97.21 251.92 CURVE SMOOTH",
"112.26 223.97 OFFCURVE",
"135.19 209.99 OFFCURVE",
"165.99 209.99 CURVE SMOOTH"
);
}
);
vertWidth = 1000;
width = 850;
}
);
note = u1B17F;
unicode = 1B17F;
},
{
glyphname = u1B180;
layers = (
{
hints = (
{
place = "{509, 116}";
type = Stem;
}
);
layerId = "B7A40619-0288-44E4-A367-A835A45E2561";
paths = (
{
closed = 1;
nodes = (
"625 378 LINE",
"589.05 329.8 OFFCURVE",
"548.72 280.8 OFFCURVE",
"504 231 CURVE",
"424 394 LINE",
"455.67 435.23 OFFCURVE",
"483.43 478.37 OFFCURVE",
"507.28 523.4 CURVE SMOOTH",
"572.19 646.77 OFFCURVE",
"611.43 804.64 OFFCURVE",
"625 997 CURVE",
"509 1000 LINE",
"506.22 968.79 OFFCURVE",
"502.98 939.19 OFFCURVE",
"499.27 911.18 CURVE SMOOTH",
"478.22 753.6 OFFCURVE",
"433.13 622.21 OFFCURVE",
"364 517 CURVE",
"249 752 LINE",
"142 700 LINE",
"283 412 LINE",
"239.35 362.66 OFFCURVE",
"185.01 311.99 OFFCURVE",
"120 260 CURVE",
"193 168 LINE",
"248.93 211.79 OFFCURVE",
"297.6 254.79 OFFCURVE",
"339 297 CURVE",
"417 139 LINE",
"357.37 78.43 OFFCURVE",
"295.37 21.43 OFFCURVE",
"231 -32 CURVE",
"303 -120 LINE",
"307.87 -115.93 OFFCURVE",
"313.09 -111.54 OFFCURVE",
"318.65 -106.83 CURVE SMOOTH",
"469.92 21.63 OFFCURVE",
"602.03 159.9 OFFCURVE",
"715 308 CURVE"
);
}
);
vertWidth = 1000;
width = 850;
}
);
note = u1B180;
unicode = 1B180;
},
{
glyphname = u1B181;
layers = (
{
hints = (
{
place = "{484, 121}";
type = Stem;
}
);
layerId = "B7A40619-0288-44E4-A367-A835A45E2561";
paths = (
{
closed = 1;
nodes = (
"732 -64 LINE",
"685.02 24.63 OFFCURVE",
"624.68 109.96 OFFCURVE",
"551 192 CURVE",
"586.67 254.51 OFFCURVE",
"604.67 324.51 OFFCURVE",
"605 402 CURVE SMOOTH",
"604.82 491.2 OFFCURVE",
"583.82 570.53 OFFCURVE",
"542 640 CURVE",
"618.04 738.53 OFFCURVE",
"677.71 844.87 OFFCURVE",
"721 959 CURVE",
"611 1000 LINE",
"572.29 902.98 OFFCURVE",
"522.95 814.98 OFFCURVE",
"463 736 CURVE",
"397.11 797.71 OFFCURVE",
"305.78 851.05 OFFCURVE",
"189 896 CURVE",
"143 787 LINE",
"245.95 744.23 OFFCURVE",
"325.62 694.9 OFFCURVE",
"382 639 CURVE",
"316.72 569.24 OFFCURVE",
"230.05 493.24 OFFCURVE",
"122 411 CURVE",
"122 407 LINE",
"220.46 340.62 OFFCURVE",
"310.12 267.62 OFFCURVE",
"391 188 CURVE",
"333.55 132.71 OFFCURVE",
"246.89 84.04 OFFCURVE",
"131 42 CURVE",
"169 -71 LINE",
"301.74 -25.24 OFFCURVE",
"403.74 31.09 OFFCURVE",
"475 98 CURVE",
"532.16 30.85 OFFCURVE",
"582.16 -41.81 OFFCURVE",
"625 -120 CURVE"
);
},
{
closed = 1;
nodes = (
"473.71 498.26 OFFCURVE",
"483.71 452.26 OFFCURVE",
"484 402 CURVE SMOOTH",
"483.87 360.43 OFFCURVE",
"475.87 321.43 OFFCURVE",
"460 285 CURVE",
"410.31 331.57 OFFCURVE",
"358.97 373.57 OFFCURVE",
"306 411 CURVE",
"357.41 448.92 OFFCURVE",
"406.75 491.92 OFFCURVE",
"454 540 CURVE"
);
}
);
vertWidth = 1000;
width = 850;
}
);
note = u1B181;
unicode = 1B181;
},
{
glyphname = u1B182;
layers = (
{
hints = (
{
place = "{581, 122}";
type = Stem;
}
);
layerId = "B7A40619-0288-44E4-A367-A835A45E2561";
paths = (
{
closed = 1;
nodes = (
"682.27 831.79 OFFCURVE",
"709.6 902.12 OFFCURVE",
"729 976 CURVE",
"613 1000 LINE",
"569.29 844.21 OFFCURVE",
"487.96 704.54 OFFCURVE",
"369 581 CURVE",
"228 863 LINE",
"120 810 LINE",
"431 188 LINE",
"375.13 136.25 OFFCURVE",
"283.13 68.92 OFFCURVE",
"155 -14 CURVE",
"215 -120 LINE",
"328.4 -56.01 OFFCURVE",
"420.07 6.99 OFFCURVE",
"490 69 CURVE",
"576 -104 LINE",
"682 -46 LINE",
"579 160 LINE",
"661.16 259.55 OFFCURVE",
"702.5 368.21 OFFCURVE",
"703 486 CURVE SMOOTH",
"702.87 567.84 OFFCURVE",
"684.2 660.84 OFFCURVE",
"647 765 CURVE"
);
},
{
closed = 1;
nodes = (
"425 469 LINE",
"475.93 519.03 OFFCURVE",
"521.59 571.69 OFFCURVE",
"562 627 CURVE",
"574.49 572.62 OFFCURVE",
"580.83 526.29 OFFCURVE",
"581 488 CURVE SMOOTH",
"580.79 415.09 OFFCURVE",
"559.46 347.43 OFFCURVE",
"517 285 CURVE"
);
}
);
vertWidth = 1000;
width = 850;
}
);
note = u1B182;
unicode = 1B182;
},
{
glyphname = u1B183;
layers = (
{
hints = (
{
place = "{526, 122}";
type = Stem;
}
);
layerId = "B7A40619-0288-44E4-A367-A835A45E2561";
paths = (
{
closed = 1;
nodes = (
"635 382 LINE",
"590.95 327.82 OFFCURVE",
"548.95 279.82 OFFCURVE",
"509 238 CURVE",
"426 404 LINE",
"555.52 565.03 OFFCURVE",
"629.52 761.03 OFFCURVE",
"648 992 CURVE",
"526 1000 LINE",
"518.2 908.17 OFFCURVE",
"501.19 823.35 OFFCURVE",
"474.99 745.52 CURVE SMOOTH",
"414.55 567.27 OFFCURVE",
"296.22 412.77 OFFCURVE",
"120 282 CURVE",
"189 185 LINE",
"240.05 221 OFFCURVE",
"288.71 261 OFFCURVE",
"335 305 CURVE",
"416 142 LINE",
"355.24 82.28 OFFCURVE",
"292.58 26.95 OFFCURVE",
"228 -24 CURVE",
"298 -120 LINE",
"310.71 -110.03 OFFCURVE",
"323.8 -99.55 OFFCURVE",
"337.28 -88.55 CURVE SMOOTH",
"489.27 35.72 OFFCURVE",
"620.17 167.57 OFFCURVE",
"730 307 CURVE"
);
}
);
vertWidth = 1000;
width = 850;
}
);
note = u1B183;
unicode = 1B183;
},
{
glyphname = u1B184;
layers = (
{
hints = (
{
horizontal = 1;
place = "{199, 173}";
type = Stem;
},
{
place = "{263, 162}";
type = Stem;
},
{
place = "{535, 126}";
type = Stem;
}
);
layerId = "B7A40619-0288-44E4-A367-A835A45E2561";
paths = (
{
closed = 1;
nodes = (
"617 1000 LINE",
"612.54 991.9 OFFCURVE",
"607.81 983.5 OFFCURVE",
"602.79 974.81 CURVE SMOOTH",
"489.57 779.57 OFFCURVE",
"328.64 618.63 OFFCURVE",
"120 492 CURVE",
"179 387 LINE",
"280.03 443.69 OFFCURVE",
"374.03 512.36 OFFCURVE",
"461 593 CURVE",
"509.95 502.45 OFFCURVE",
"534.61 414.78 OFFCURVE",
"535 330 CURVE SMOOTH",
"534.62 201.39 OFFCURVE",
"459.95 85.39 OFFCURVE",
"311 -18 CURVE",
"377 -120 LINE",
"414.47 -96.99 OFFCURVE",
"448.79 -71.97 OFFCURVE",
"479.96 -44.94 CURVE SMOOTH",
"600.66 60.48 OFFCURVE",
"661 184.8 OFFCURVE",
"661 328 CURVE SMOOTH",
"660.81 454.04 OFFCURVE",
"625.48 574.71 OFFCURVE",
"555 690 CURVE",
"625.74 770.24 OFFCURVE",
"683.07 853.58 OFFCURVE",
"727 940 CURVE"
);
},
{
closed = 1;
nodes = (
"424.85 299.9 OFFCURVE",
"421.78 313.93 OFFCURVE",
"415.8 327.08 CURVE SMOOTH",
"401.38 357.03 OFFCURVE",
"377.44 372 OFFCURVE",
"344 372 CURVE SMOOTH",
"329.89 371.81 OFFCURVE",
"316.49 368.1 OFFCURVE",
"303.8 360.88 CURVE SMOOTH",
"276.6 344.46 OFFCURVE",
"263 319.16 OFFCURVE",
"263 285 CURVE SMOOTH",
"263.18 269.77 OFFCURVE",
"266.93 255.23 OFFCURVE",
"274.25 241.37 CURVE SMOOTH",
"289.98 213.12 OFFCURVE",
"313.23 199 OFFCURVE",
"344 199 CURVE SMOOTH",
"357.56 199.17 OFFCURVE",
"370.39 202.32 OFFCURVE",
"382.48 208.45 CURVE SMOOTH",
"410.82 223.75 OFFCURVE",
"425 249.26 OFFCURVE",
"425 285 CURVE SMOOTH"
);
}
);
vertWidth = 1000;
width = 850;
}
);
note = u1B184;
unicode = 1B184;
},
{
glyphname = u1B185;
layers = (
{
hints = (
{
place = "{363, 121}";
type = Stem;
},
{
place = "{340, 119}";
type = Stem;
}
);
layerId = "B7A40619-0288-44E4-A367-A835A45E2561";
paths = (
{
closed = 1;
nodes = (
"468.8 797.43 OFFCURVE",
"480.47 887.77 OFFCURVE",
"486 996 CURVE",
"365 1000 LINE",
"357.86 870.66 OFFCURVE",
"340.37 765.74 OFFCURVE",
"312.53 685.22 CURVE SMOOTH",
"274.48 576.1 OFFCURVE",
"203.64 474.69 OFFCURVE",
"100 381 CURVE",
"179 296 LINE",
"285.79 387.62 OFFCURVE",
"362.79 489.62 OFFCURVE",
"410 602 CURVE",
"487.18 525.66 OFFCURVE",
"565.52 430 OFFCURVE",
"645 315 CURVE",
"748 384 LINE",
"747.68 384.45 OFFCURVE",
"747.12 385.24 OFFCURVE",
"746.33 386.35 CURVE SMOOTH",
"659.24 508.95 OFFCURVE",
"560.79 621.83 OFFCURVE",
"451 725 CURVE"
);
},
{
closed = 1;
nodes = (
"363 391 LINE",
"383.39 217.18 OFFCURVE",
"375.73 54.85 OFFCURVE",
"340 -96 CURVE",
"459 -121 LINE",
"464.88 -96.28 OFFCURVE",
"470.18 -69.96 OFFCURVE",
"474.9 -42.06 CURVE SMOOTH",
"500.61 111.53 OFFCURVE",
"503.64 261.55 OFFCURVE",
"484 408 CURVE"
);
}
);
vertWidth = 1000;
width = 850;
}
);
note = u1B185;
unicode = 1B185;
},
{
glyphname = u1B186;
layers = (
{
hints = (
{
place = "{215, 121}";
type = Stem;
},
{
place = "{562, 118}";
type = Stem;
}
);
layerId = "B7A40619-0288-44E4-A367-A835A45E2561";
paths = (
{
closed = 1;
nodes = (
"554 566 LINE",
"621.58 687.75 OFFCURVE",
"663.58 829.42 OFFCURVE",
"680 991 CURVE",
"562 1000 LINE",
"540.33 782.29 OFFCURVE",
"462.66 601.96 OFFCURVE",
"329 459 CURVE",
"315.89 573 OFFCURVE",
"283.23 691.34 OFFCURVE",
"231 814 CURVE",
"120 765 LINE",
"178.1 625.28 OFFCURVE",
"209.77 491.95 OFFCURVE",
"215 365 CURVE SMOOTH",
"219.82 224.65 OFFCURVE",
"188.15 79.65 OFFCURVE",
"120 -70 CURVE",
"231 -120 LINE",
"294.54 17.98 OFFCURVE",
"329.54 157.98 OFFCURVE",
"336 300 CURVE",
"384.33 342.52 OFFCURVE",
"427.66 387.85 OFFCURVE",
"466 436 CURVE",
"571 43 LINE",
"684 77 LINE"
);
}
);
vertWidth = 1000;
width = 850;
}
);
note = u1B186;
unicode = 1B186;
},
{
glyphname = u1B187;
layers = (
{
hints = (
{
place = "{398, 119}";
type = Stem;
},
{
place = "{524, 115}";
type = Stem;
}
);
layerId = "B7A40619-0288-44E4-A367-A835A45E2561";
paths = (
{
closed = 1;
nodes = (
"644 521 LINE",
"601.91 467.3 OFFCURVE",
"551.58 413.63 OFFCURVE",
"493 360 CURVE",
"482.56 409.92 OFFCURVE",
"469.22 457.92 OFFCURVE",
"453 504 CURVE",
"455.09 506.44 OFFCURVE",
"457.45 509.22 OFFCURVE",
"460.08 512.34 CURVE SMOOTH",
"568.69 642.05 OFFCURVE",
"628.33 802.94 OFFCURVE",
"639 995 CURVE",
"524 1000 LINE",
"514.16 854.87 OFFCURVE",
"473.16 732.2 OFFCURVE",
"401 632 CURVE",
"363.21 709.55 OFFCURVE",
"319.88 783.88 OFFCURVE",
"271 855 CURVE",
"173 789 LINE",
"230.23 702.54 OFFCURVE",
"276.89 616.87 OFFCURVE",
"313 532 CURVE",
"264.78 484.82 OFFCURVE",
"200.45 434.16 OFFCURVE",
"120 380 CURVE",
"183 282 LINE",
"249.08 323.11 OFFCURVE",
"307.08 365.11 OFFCURVE",
"357 408 CURVE",
"371.29 357.31 OFFCURVE",
"381.63 311.31 OFFCURVE",
"388 270 CURVE",
"316.53 213.92 OFFCURVE",
"245.2 165.25 OFFCURVE",
"174 124 CURVE",
"230 22 LINE",
"289 56 OFFCURVE",
"345 92 OFFCURVE",
"398 130 CURVE",
"397.92 53.61 OFFCURVE",
"387.58 -21.39 OFFCURVE",
"367 -95 CURVE",
"486 -120 LINE",
"506.5 -32.8 OFFCURVE",
"516.83 51.53 OFFCURVE",
"517 133 CURVE SMOOTH",
"516.98 164.59 OFFCURVE",
"515.64 193.93 OFFCURVE",
"513 221 CURVE",
"592.65 287.81 OFFCURVE",
"665.98 362.81 OFFCURVE",
"733 446 CURVE"
);
}
);
vertWidth = 1000;
width = 850;
}
);
note = u1B187;
unicode = 1B187;
},
{
glyphname = u1B188;
layers = (
{
hints = (
{
horizontal = 1;
place = "{-40, 169}";
type = Stem;
},
{
place = "{120, 160}";
type = Stem;
},
{
place = "{534, 123}";
type = Stem;
}
);
layerId = "B7A40619-0288-44E4-A367-A835A45E2561";
paths = (
{
closed = 1;
nodes = (
"534 986 LINE",
"576.81 592.36 OFFCURVE",
"572.15 294.03 OFFCURVE",
"520 91 CURVE",
"333 533 LINE",
"215 486 LINE",
"470 -116 LINE",
"574 -120 LINE",
"587.26 -91.03 OFFCURVE",
"599.52 -60.03 OFFCURVE",
"610.8 -26.98 CURVE SMOOTH",
"697.21 228.07 OFFCURVE",
"712.61 570.4 OFFCURVE",
"657 1000 CURVE"
);
},
{
closed = 1;
nodes = (
"186.32 128.82 OFFCURVE",
"173.31 125.36 OFFCURVE",
"160.95 118.63 CURVE SMOOTH",
"133.65 102.85 OFFCURVE",
"120 77.97 OFFCURVE",
"120 44 CURVE SMOOTH",
"120.18 29.02 OFFCURVE",
"123.83 14.8 OFFCURVE",
"130.96 1.33 CURVE SMOOTH",
"146.38 -26.23 OFFCURVE",
"169.39 -40 OFFCURVE",
"200 -40 CURVE SMOOTH",
"213.07 -39.84 OFFCURVE",
"225.5 -36.86 OFFCURVE",
"237.3 -31.07 CURVE SMOOTH",
"265.76 -16.18 OFFCURVE",
"280 8.84 OFFCURVE",
"280 44 CURVE SMOOTH",
"279.86 57.84 OFFCURVE",
"277.17 70.93 OFFCURVE",
"271.92 83.28 CURVE SMOOTH",
"258.16 113.76 OFFCURVE",
"234.19 129 OFFCURVE",
"200 129 CURVE SMOOTH"
);
}
);
vertWidth = 1000;
width = 850;
}
);
note = u1B188;
unicode = 1B188;
},
{
glyphname = u1B189;
layers = (
{
hints = (
{
place = "{377, 119}";
type = Stem;
},
{
place = "{561, 117}";
type = Stem;
}
);
layerId = "B7A40619-0288-44E4-A367-A835A45E2561";
paths = (
{
closed = 1;
nodes = (
"640 545 LINE",
"596.07 500.24 OFFCURVE",
"543.07 454.24 OFFCURVE",
"481 407 CURVE",
"473.48 451.92 OFFCURVE",
"462.81 501.59 OFFCURVE",
"449 556 CURVE",
"563.02 669.37 OFFCURVE",
"639.36 809.71 OFFCURVE",
"678 977 CURVE",
"561 1000 LINE",
"543.09 919.03 OFFCURVE",
"514.71 846 OFFCURVE",
"475.86 780.92 CURVE SMOOTH",
"405.66 664.16 OFFCURVE",
"288.37 559.19 OFFCURVE",
"124 466 CURVE",
"176 366 LINE",
"241.81 398.45 OFFCURVE",
"299.15 432.78 OFFCURVE",
"348 469 CURVE",
"359.87 414.31 OFFCURVE",
"367.87 368.31 OFFCURVE",
"372 331 CURVE",
"287.55 278.28 OFFCURVE",
"203.55 233.61 OFFCURVE",
"120 197 CURVE",
"161 95 LINE",
"238 126 OFFCURVE",
"310 161 OFFCURVE",
"377 200 CURVE",
"373.74 100.89 OFFCURVE",
"352.08 8.56 OFFCURVE",
"312 -77 CURVE",
"422 -120 LINE",
"477.17 6.62 OFFCURVE",
"501.84 138.28 OFFCURVE",
"496 275 CURVE",
"575.82 330.5 OFFCURVE",
"651.49 392.83 OFFCURVE",
"723 462 CURVE"
);
}
);
vertWidth = 1000;
width = 850;
}
);
note = u1B189;
unicode = 1B189;
},
{
glyphname = u1B18A;
layers = (
{
layerId = "B7A40619-0288-44E4-A367-A835A45E2561";
paths = (
{
closed = 1;
nodes = (
"210 390 LINE",
"245.62 410.6 OFFCURVE",
"279.64 432.21 OFFCURVE",
"312.06 454.82 CURVE SMOOTH",
"498.94 585.7 OFFCURVE",
"627.92 756.09 OFFCURVE",
"699 966 CURVE",
"585 1000 LINE",
"514.42 794.21 OFFCURVE",
"369.76 623.88 OFFCURVE",
"151 489 CURVE"
);
},
{
closed = 1;
nodes = (
"221 141 LINE",
"400.94 242.42 OFFCURVE",
"552.27 361.76 OFFCURVE",
"675 499 CURVE",
"588 579 LINE",
"469.1 447.42 OFFCURVE",
"328.43 335.42 OFFCURVE",
"166 243 CURVE"
);
},
{
closed = 1;
nodes = (
"199 -120 LINE",
"373.84 -31.46 OFFCURVE",
"534.51 78.54 OFFCURVE",
"681 210 CURVE",
"603 301 LINE",
"456.22 172.68 OFFCURVE",
"303.89 67.02 OFFCURVE",
"146 -16 CURVE"
);
}
);
vertWidth = 1000;
width = 850;
}
);
note = u1B18A;
unicode = 1B18A;
},
{
glyphname = u1B18B;
layers = (
{
hints = (
{
place = "{253, 122}";
type = Stem;
},
{
place = "{584, 122}";
type = Stem;
},
{
place = "{564, 124}";
type = Stem;
}
);
layerId = "B7A40619-0288-44E4-A367-A835A45E2561";
paths = (
{
closed = 1;
nodes = (
"303 1000 LINE",
"302.9 979.9 OFFCURVE",
"302.44 959.99 OFFCURVE",
"301.61 940.27 CURVE SMOOTH",
"292.87 738.44 OFFCURVE",
"238.66 581.01 OFFCURVE",
"139 468 CURVE",
"139 458 LINE",
"159.49 435.77 OFFCURVE",
"178.11 412.12 OFFCURVE",
"194.86 387.06 CURVE SMOOTH",
"287.12 247.67 OFFCURVE",
"306.5 85.65 OFFCURVE",
"253 -99 CURVE",
"375 -120 LINE",
"387.96 -72.21 OFFCURVE",
"397.04 -26.17 OFFCURVE",
"402.23 18.11 CURVE SMOOTH",
"420.51 177.55 OFFCURVE",
"383.1 326.51 OFFCURVE",
"290 465 CURVE",
"379.7 593.12 OFFCURVE",
"425.7 770.79 OFFCURVE",
"428 998 CURVE"
);
},
{
closed = 1;
nodes = (
"584 856 LINE",
"581.52 818.69 OFFCURVE",
"577.84 784.12 OFFCURVE",
"572.96 752.31 CURVE SMOOTH",
"556.66 647.33 OFFCURVE",
"519 551.89 OFFCURVE",
"460 466 CURVE",
"460 459 LINE",
"490.3 417.77 OFFCURVE",
"514.18 377.04 OFFCURVE",
"531.65 336.8 CURVE SMOOTH",
"567.87 252.36 OFFCURVE",
"578.65 149.43 OFFCURVE",
"564 28 CURVE",
"688 18 LINE",
"712.65 183.12 OFFCURVE",
"683.65 332.45 OFFCURVE",
"601 466 CURVE",
"664.21 570.26 OFFCURVE",
"699.21 697.59 OFFCURVE",
"706 848 CURVE"
);
}
);
vertWidth = 1000;
width = 850;
}
);
note = u1B18B;
unicode = 1B18B;
},
{
glyphname = u1B18C;
layers = (
{
hints = (
{
horizontal = 1;
place = "{253, 159}";
type = Stem;
},
{
horizontal = 1;
place = "{476, 159}";
type = Stem;
},
{
place = "{85, 150}";
type = Stem;
},
{
place = "{289, 116}";
type = Stem;
},
{
place = "{443, 112}";
type = Stem;
},
{
place = "{615, 150}";
type = Stem;
}
);
layerId = "B7A40619-0288-44E4-A367-A835A45E2561";
paths = (
{
closed = 1;
nodes = (
"703 180 LINE",
"685.18 206.24 OFFCURVE",
"669.02 231.72 OFFCURVE",
"654.5 256.42 CURVE SMOOTH",
"588.17 369.78 OFFCURVE",
"555 481.31 OFFCURVE",
"555 591 CURVE SMOOTH",
"555.03 606.32 OFFCURVE",
"555.62 621.7 OFFCURVE",
"556.8 637.14 CURVE SMOOTH",
"564.19 730.15 OFFCURVE",
"600.92 832.44 OFFCURVE",
"667 944 CURVE",
"566 1000 LINE",
"556.8 983.84 OFFCURVE",
"548.01 967.76 OFFCURVE",
"539.64 951.74 CURVE SMOOTH",
"475.21 828.02 OFFCURVE",
"443 707.77 OFFCURVE",
"443 591 CURVE SMOOTH",
"443.03 566.69 OFFCURVE",
"444.2 542.47 OFFCURVE",
"446.52 518.33 CURVE SMOOTH",
"459.03 391.43 OFFCURVE",
"511.85 256.66 OFFCURVE",
"605 114 CURVE"
);
},
{
closed = 1;
nodes = (
"256 -120 LINE",
"269.85 -98.78 OFFCURVE",
"282.8 -77.78 OFFCURVE",
"294.87 -56.98 CURVE SMOOTH",
"368.29 70.16 OFFCURVE",
"405 197.49 OFFCURVE",
"405 325 CURVE SMOOTH",
"404.79 473.84 OFFCURVE",
"355.45 620.51 OFFCURVE",
"257 765 CURVE",
"161 704 LINE",
"245.87 578.29 OFFCURVE",
"288.54 451.96 OFFCURVE",
"289 325 CURVE SMOOTH",
"288.98 310.24 OFFCURVE",
"288.44 295.38 OFFCURVE",
"287.4 280.43 CURVE SMOOTH",
"279.51 172.51 OFFCURVE",
"236.04 59.7 OFFCURVE",
"157 -58 CURVE"
);
},
{
closed = 1;
nodes = (
"615.17 541.69 OFFCURVE",
"618.22 528.94 OFFCURVE",
"624.15 516.76 CURVE SMOOTH",
"638.22 489.59 OFFCURVE",
"660.17 476 OFFCURVE",
"690 476 CURVE SMOOTH",
"701.66 476.15 OFFCURVE",
"712.78 478.56 OFFCURVE",
"723.35 483.25 CURVE SMOOTH",
"751.12 496.46 OFFCURVE",
"765 520.38 OFFCURVE",
"765 555 CURVE SMOOTH",
"764.87 567.92 OFFCURVE",
"762.45 580.12 OFFCURVE",
"757.74 591.61 CURVE SMOOTH",
"745.1 620.53 OFFCURVE",
"722.52 635 OFFCURVE",
"690 635 CURVE SMOOTH",
"677.73 634.83 OFFCURVE",
"666.01 631.9 OFFCURVE",
"654.84 626.23 CURVE SMOOTH",
"628.28 611.8 OFFCURVE",
"615 588.06 OFFCURVE",
"615 555.01 CURVE SMOOTH"
);
},
{
closed = 1;
nodes = (
"171.66 253.16 OFFCURVE",
"182.78 255.57 OFFCURVE",
"193.35 260.26 CURVE SMOOTH",
"221.12 273.47 OFFCURVE",
"235 297.39 OFFCURVE",
"235 332.01 CURVE SMOOTH",
"234.87 344.93 OFFCURVE",
"232.45 357.13 OFFCURVE",
"227.74 368.62 CURVE SMOOTH",
"215.1 397.54 OFFCURVE",
"192.52 412.01 OFFCURVE",
"160 412.01 CURVE SMOOTH",
"147.73 411.84 OFFCURVE",
"136.01 408.91 OFFCURVE",
"124.84 403.24 CURVE SMOOTH",
"98.28 388.81 OFFCURVE",
"85 365.07 OFFCURVE",
"85 332.02 CURVE SMOOTH",
"85.17 318.71 OFFCURVE",
"88.22 305.96 OFFCURVE",
"94.15 293.78 CURVE SMOOTH",
"108.22 266.61 OFFCURVE",
"130.17 253.02 OFFCURVE",
"160 253.02 CURVE SMOOTH"
);
}
);
vertWidth = 1000;
width = 850;
}
);
note = u1B18C;
unicode = 1B18C;
},
{
glyphname = u1B18D;
layers = (
{
hints = (
{
place = "{239, 123}";
type = Stem;
}
);
layerId = "B7A40619-0288-44E4-A367-A835A45E2561";
paths = (
{
closed = 1;
nodes = (
"632.27 818.62 OFFCURVE",
"667.93 882.95 OFFCURVE",
"701 956 CURVE",
"582 1000 LINE",
"557.57 942.88 OFFCURVE",
"530.02 890.3 OFFCURVE",
"499.36 842.26 CURVE SMOOTH",
"414.11 709.37 OFFCURVE",
"291.99 600.28 OFFCURVE",
"133 515 CURVE",
"133 510 LINE",
"139.13 501.01 OFFCURVE",
"145.19 491.8 OFFCURVE",
"151.17 482.37 CURVE SMOOTH",
"213.27 383.87 OFFCURVE",
"242.54 282.75 OFFCURVE",
"239 179 CURVE SMOOTH",
"235.79 95.57 OFFCURVE",
"212.12 10.9 OFFCURVE",
"168 -75 CURVE",
"283 -120 LINE",
"331.2 -22.3 OFFCURVE",
"357.53 76.03 OFFCURVE",
"362 175 CURVE SMOOTH",
"365.03 277.6 OFFCURVE",
"341.69 378.94 OFFCURVE",
"292 479 CURVE",
"374.72 529.36 OFFCURVE",
"448.38 589.69 OFFCURVE",
"513 660 CURVE",
"563.43 550.44 OFFCURVE",
"589.76 433.44 OFFCURVE",
"592 309 CURVE",
"479 445 LINE",
"389 370 LINE",
"591 127 LINE",
"689 159 LINE",
"724.67 361.72 OFFCURVE",
"693 563.05 OFFCURVE",
"594 763 CURVE"
);
}
);
vertWidth = 1000;
width = 850;
}
);
note = u1B18D;
unicode = 1B18D;
},
{
glyphname = u1B18E;
layers = (
{
hints = (
{
horizontal = 1;
place = "{-120, 163}";
type = Stem;
},
{
place = "{373, 152}";
type = Stem;
},
{
place = "{554, 112}";
type = Stem;
}
);
layerId = "B7A40619-0288-44E4-A367-A835A45E2561";
paths = (
{
closed = 1;
nodes = (
"490 588 LINE",
"578.35 698.96 OFFCURVE",
"637.02 829.96 OFFCURVE",
"666 981 CURVE",
"554 1000 LINE",
"532.12 890.32 OFFCURVE",
"491.12 793.32 OFFCURVE",
"431 709 CURVE",
"329 917 LINE",
"225 867 LINE",
"350 612 LINE",
"290.66 551.84 OFFCURVE",
"213.99 490.51 OFFCURVE",
"120 428 CURVE",
"187 324 LINE",
"276.77 384.27 OFFCURVE",
"349.77 441.93 OFFCURVE",
"406 497 CURVE",
"447 411 LINE",
"351.73 279.02 OFFCURVE",
"244.73 160.02 OFFCURVE",
"126 54 CURVE",
"206 -35 LINE",
"312.23 58.81 OFFCURVE",
"412.56 167.47 OFFCURVE",
"507 291 CURVE",
"626 46 LINE",
"730 97 LINE"
);
},
{
closed = 1;
nodes = (
"436.25 42.82 OFFCURVE",
"424.14 39.72 OFFCURVE",
"412.67 33.7 CURVE SMOOTH",
"386.22 18.87 OFFCURVE",
"373 -5.37 OFFCURVE",
"373 -39 CURVE SMOOTH",
"373.16 -52.85 OFFCURVE",
"376.31 -66.07 OFFCURVE",
"382.44 -78.66 CURVE SMOOTH",
"396.67 -106.22 OFFCURVE",
"418.86 -120 OFFCURVE",
"449 -120 CURVE SMOOTH",
"461.82 -120 OFFCURVE",
"473.63 -117.14 OFFCURVE",
"484.43 -111.41 CURVE SMOOTH",
"511.48 -97.07 OFFCURVE",
"525 -72.93 OFFCURVE",
"525 -39 CURVE SMOOTH",
"524.87 -26.11 OFFCURVE",
"522.56 -13.89 OFFCURVE",
"518.06 -2.36 CURVE SMOOTH",
"505.48 27.88 OFFCURVE",
"482.46 43 OFFCURVE",
"449 43 CURVE SMOOTH"
);
}
);
vertWidth = 1000;
width = 850;
}
);
note = u1B18E;
unicode = 1B18E;
},
{
glyphname = u1B18F;
layers = (
{
hints = (
{
place = "{107, 156}";
type = Stem;
},
{
place = "{505, 120}";
type = Stem;
},
{
horizontal = 1;
place = "{284, 164}";
type = Stem;
},
{
place = "{605, 156}";
type = Stem;
},
{
horizontal = 1;
place = "{226, 164}";
type = Stem;
}
);
layerId = "B7A40619-0288-44E4-A367-A835A45E2561";
paths = (
{
closed = 1;
nodes = (
"505 1000 LINE",
"498.9 798.23 OFFCURVE",
"471.9 623.23 OFFCURVE",
"424 475 CURVE",
"378.78 557.63 OFFCURVE",
"326.12 640.29 OFFCURVE",
"266 723 CURVE",
"167 657 LINE",
"246.44 540.82 OFFCURVE",
"312.44 429.82 OFFCURVE",
"365 324 CURVE",
"306.85 199.11 OFFCURVE",
"226.52 77.77 OFFCURVE",
"124 -40 CURVE",
"211 -120 LINE",
"301.59 -19.12 OFFCURVE",
"374.92 81.88 OFFCURVE",
"431 183 CURVE",
"465.75 99.51 OFFCURVE",
"498.42 10.51 OFFCURVE",
"529 -84 CURVE",
"642 -48 LINE",
"596.2 92.28 OFFCURVE",
"548.87 216.28 OFFCURVE",
"500 324 CURVE",
"577.08 508.03 OFFCURVE",
"618.75 733.03 OFFCURVE",
"625 999 CURVE"
);
},
{
closed = 1;
nodes = (
"669.68 447.82 OFFCURVE",
"656.99 444.48 OFFCURVE",
"644.93 437.97 CURVE SMOOTH",
"618.31 422.7 OFFCURVE",
"605 398.71 OFFCURVE",
"605 366 CURVE SMOOTH",
"605.18 351.53 OFFCURVE",
"608.65 337.78 OFFCURVE",
"615.42 324.74 CURVE SMOOTH",
"630.35 297.58 OFFCURVE",
"652.88 284 OFFCURVE",
"683 284 CURVE SMOOTH",
"695.56 284.16 OFFCURVE",
"707.53 286.97 OFFCURVE",
"718.9 292.42 CURVE SMOOTH",
"746.97 306.79 OFFCURVE",
"761 331.31 OFFCURVE",
"761 366 CURVE SMOOTH",
"760.86 379.42 OFFCURVE",
"758.21 392.1 OFFCURVE",
"753.05 404.05 CURVE SMOOTH",
"739.57 433.35 OFFCURVE",
"716.23 448 OFFCURVE",
"683 448 CURVE SMOOTH"
);
},
{
closed = 1;
nodes = (
"197.56 226.16 OFFCURVE",
"209.53 228.97 OFFCURVE",
"220.9 234.42 CURVE SMOOTH",
"248.97 248.79 OFFCURVE",
"263 273.31 OFFCURVE",
"263 308 CURVE SMOOTH",
"262.86 321.42 OFFCURVE",
"260.21 334.1 OFFCURVE",
"255.05 346.05 CURVE SMOOTH",
"241.57 375.35 OFFCURVE",
"218.23 390 OFFCURVE",
"185 390 CURVE SMOOTH",
"171.68 389.82 OFFCURVE",
"158.99 386.48 OFFCURVE",
"146.93 379.97 CURVE SMOOTH",
"120.31 364.7 OFFCURVE",
"107 340.71 OFFCURVE",
"107 308 CURVE SMOOTH",
"107.18 293.53 OFFCURVE",
"110.65 279.78 OFFCURVE",
"117.42 266.74 CURVE SMOOTH",
"132.35 239.58 OFFCURVE",
"154.88 226 OFFCURVE",
"185 226 CURVE SMOOTH"
);
}
);
vertWidth = 1000;
width = 850;
}
);
note = u1B18F;
unicode = 1B18F;
},
{
glyphname = u1B190;
layers = (
{
hints = (
{
horizontal = 1;
place = "{-120, 98}";
type = Stem;
},
{
horizontal = 1;
place = "{130, 98}";
type = Stem;
},
{
place = "{480, 116}";
type = Stem;
},
{
place = "{243, 117}";
type = Stem;
},
{
place = "{300, 123}";
type = Stem;
},
{
place = "{505, 122}";
type = Stem;
}
);
layerId = "B7A40619-0288-44E4-A367-A835A45E2561";
paths = (
{
closed = 1;
nodes = (
"738 288 LINE",
"726.48 303.51 OFFCURVE",
"715.53 318.87 OFFCURVE",
"705.15 334.06 CURVE SMOOTH",
"632.38 441.11 OFFCURVE",
"596 540.76 OFFCURVE",
"596 633 CURVE SMOOTH",
"596.17 728.33 OFFCURVE",
"627.51 834 OFFCURVE",
"690 950 CURVE",
"585 1000 LINE",
"515.39 872.23 OFFCURVE",
"480.39 749.9 OFFCURVE",
"480 633 CURVE SMOOTH",
"480.24 497.47 OFFCURVE",
"535.24 358.14 OFFCURVE",
"645 215 CURVE"
);
},
{
closed = 1;
nodes = (
"206 113 LINE",
"308.14 236.52 OFFCURVE",
"359.47 365.86 OFFCURVE",
"360 501 CURVE SMOOTH",
"359.79 616.5 OFFCURVE",
"319.46 738.84 OFFCURVE",
"239 868 CURVE",
"140 809 LINE",
"208.21 697.63 OFFCURVE",
"242.55 594.96 OFFCURVE",
"243 501 CURVE SMOOTH",
"242.74 394.12 OFFCURVE",
"201.07 289.79 OFFCURVE",
"118 188 CURVE"
);
},
{
closed = 1;
nodes = (
"500.93 -119.77 OFFCURVE",
"533.01 -109.63 OFFCURVE",
"561.24 -89.57 CURVE SMOOTH",
"605.08 -57.55 OFFCURVE",
"627 -12.03 OFFCURVE",
"627 47 CURVE SMOOTH",
"626.8 88.66 OFFCURVE",
"616.29 125.53 OFFCURVE",
"595.48 157.6 CURVE SMOOTH",
"564.28 204.53 OFFCURVE",
"520.79 228 OFFCURVE",
"465 228 CURVE SMOOTH",
"427.86 227.75 OFFCURVE",
"394.74 216.32 OFFCURVE",
"365.64 193.71 CURVE SMOOTH",
"321.88 158.79 OFFCURVE",
"300 109.89 OFFCURVE",
"300 47 CURVE SMOOTH",
"300.23 8.8 OFFCURVE",
"310.92 -25.11 OFFCURVE",
"332.07 -54.73 CURVE SMOOTH",
"363.97 -98.24 OFFCURVE",
"408.28 -120 OFFCURVE",
"465 -120 CURVE SMOOTH"
);
},
{
closed = 1;
nodes = (
"437.78 -21.41 OFFCURVE",
"423.78 3.26 OFFCURVE",
"423 52 CURVE SMOOTH",
"423.32 102.65 OFFCURVE",
"437.32 128.65 OFFCURVE",
"465 130 CURVE SMOOTH",
"490.98 129.37 OFFCURVE",
"504.31 103.37 OFFCURVE",
"505 52 CURVE SMOOTH",
"504.66 4.03 OFFCURVE",
"491.33 -20.63 OFFCURVE",
"465 -22 CURVE SMOOTH"
);
}
);
vertWidth = 1000;
width = 850;
}
);
note = u1B190;
unicode = 1B190;
},
{
glyphname = u1B191;
layers = (
{
hints = (
{
place = "{336, 114}";
type = Stem;
},
{
place = "{474, 119}";
type = Stem;
},
{
place = "{557, 119}";
type = Stem;
}
);
layerId = "B7A40619-0288-44E4-A367-A835A45E2561";
paths = (
{
closed = 1;
nodes = (
"652 401 LINE",
"602.47 349.68 OFFCURVE",
"545.47 300.01 OFFCURVE",
"481 252 CURVE",
"479.98 286.19 OFFCURVE",
"477.98 320.86 OFFCURVE",
"475 356 CURVE",
"553 427.7 OFFCURVE",
"592.34 510.04 OFFCURVE",
"593 603 CURVE SMOOTH",
"592.9 639.07 OFFCURVE",
"586.9 678.73 OFFCURVE",
"575 722 CURVE",
"621.51 792.51 OFFCURVE",
"655.17 879.18 OFFCURVE",
"676 982 CURVE",
"557 1000 LINE",
"538.44 915.5 OFFCURVE",
"507.85 841.97 OFFCURVE",
"465.25 779.43 CURVE SMOOTH",
"397.5 680.81 OFFCURVE",
"284.42 594.33 OFFCURVE",
"126 520 CURVE",
"170 416 LINE",
"297.76 472.01 OFFCURVE",
"399.09 534.34 OFFCURVE",
"474 603 CURVE",
"474 602 LINE SMOOTH",
"473.82 569.74 OFFCURVE",
"465.21 538.52 OFFCURVE",
"448.15 508.33 CURVE SMOOTH",
"405.27 434.14 OFFCURVE",
"295.88 356.03 OFFCURVE",
"120 274 CURVE",
"164 169 LINE",
"248.35 207.96 OFFCURVE",
"315.01 242.96 OFFCURVE",
"364 274 CURVE",
"365.29 252.87 OFFCURVE",
"365.96 220.2 OFFCURVE",
"366 176 CURVE",
"286.51 128.17 OFFCURVE",
"201.51 85.5 OFFCURVE",
"111 48 CURVE",
"149 -60 LINE",
"222.75 -30.65 OFFCURVE",
"292.42 2.35 OFFCURVE",
"358 39 CURVE",
"352.56 -14.04 OFFCURVE",
"345.22 -61.04 OFFCURVE",
"336 -102 CURVE",
"450 -120 LINE",
"467.04 -47.75 OFFCURVE",
"477.71 30.59 OFFCURVE",
"482 115 CURVE",
"570.67 175.55 OFFCURVE",
"653.34 243.55 OFFCURVE",
"730 319 CURVE"
);
}
);
vertWidth = 1000;
width = 850;
}
);
note = u1B191;
unicode = 1B191;
},
{
glyphname = u1B192;
layers = (
{
hints = (
{
horizontal = 1;
place = "{55, 164}";
type = Stem;
},
{
place = "{103, 156}";
type = Stem;
},
{
place = "{384, 126}";
type = Stem;
},
{
place = "{616, 125}";
type = Stem;
}
);
layerId = "B7A40619-0288-44E4-A367-A835A45E2561";
paths = (
{
closed = 1;
nodes = (
"628 790.27 OFFCURVE",
"659.33 875.94 OFFCURVE",
"683 972 CURVE",
"558 1000 LINE",
"507.15 785.71 OFFCURVE",
"397.82 610.71 OFFCURVE",
"230 475 CURVE",
"230 470 LINE",
"332.1 357.54 OFFCURVE",
"383.44 237.21 OFFCURVE",
"384 109 CURVE SMOOTH",
"383.87 47.83 OFFCURVE",
"371.54 -17.84 OFFCURVE",
"347 -88 CURVE",
"468 -120 LINE",
"495.76 -44.32 OFFCURVE",
"509.76 32.01 OFFCURVE",
"510 109 CURVE SMOOTH",
"509.78 234.61 OFFCURVE",
"472.78 351.61 OFFCURVE",
"399 460 CURVE",
"442.31 501.45 OFFCURVE",
"481.64 546.79 OFFCURVE",
"517 596 CURVE",
"517.27 595.54 OFFCURVE",
"517.75 594.75 OFFCURVE",
"518.42 593.62 CURVE SMOOTH",
"580.41 489.06 OFFCURVE",
"612.94 363.18 OFFCURVE",
"616 216 CURVE",
"741 223 LINE",
"741.3 252.53 OFFCURVE",
"740.01 282.51 OFFCURVE",
"737.14 312.95 CURVE SMOOTH",
"722.42 465.21 OFFCURVE",
"673.04 599.22 OFFCURVE",
"589 715 CURVE"
);
},
{
closed = 1;
nodes = (
"168.44 218.84 OFFCURVE",
"156.47 216.03 OFFCURVE",
"145.1 210.58 CURVE SMOOTH",
"117.03 196.21 OFFCURVE",
"103 171.69 OFFCURVE",
"103 137 CURVE SMOOTH",
"103.16 123.04 OFFCURVE",
"106.33 109.73 OFFCURVE",
"112.49 97.09 CURVE SMOOTH",
"126.99 69.03 OFFCURVE",
"149.83 55 OFFCURVE",
"181 55 CURVE SMOOTH",
"193.31 55.15 OFFCURVE",
"204.98 57.67 OFFCURVE",
"216.01 62.58 CURVE SMOOTH",
"244.67 76.24 OFFCURVE",
"259 101.04 OFFCURVE",
"259 137 CURVE SMOOTH",
"258.87 149.88 OFFCURVE",
"256.48 162.1 OFFCURVE",
"251.84 173.64 CURVE SMOOTH",
"238.88 203.88 OFFCURVE",
"215.26 219 OFFCURVE",
"181 219 CURVE SMOOTH"
);
}
);
vertWidth = 1000;
width = 850;
}
);
note = u1B192;
unicode = 1B192;
},
{
glyphname = u1B193;
layers = (
{
hints = (
{
horizontal = 1;
place = "{-40, 169}";
type = Stem;
},
{
horizontal = 1;
place = "{505, 162}";
type = Stem;
},
{
place = "{120, 160}";
type = Stem;
},
{
place = "{354, 154}";
type = Stem;
},
{
place = "{564, 123}";
type = Stem;
}
);
layerId = "B7A40619-0288-44E4-A367-A835A45E2561";
paths = (
{
closed = 1;
nodes = (
"564 986 LINE",
"568.39 933.61 OFFCURVE",
"571.55 881.16 OFFCURVE",
"573.47 828.67 CURVE SMOOTH",
"584.4 525.08 OFFCURVE",
"555.25 275.2 OFFCURVE",
"486 79 CURVE",
"293 533 LINE",
"175 486 LINE",
"433 -118 LINE",
"532 -120 LINE",
"575.37 -38.39 OFFCURVE",
"610.89 57.06 OFFCURVE",
"638.56 166.37 CURVE SMOOTH",
"700.71 413.35 OFFCURVE",
"716.85 691.22 OFFCURVE",
"687 1000 CURVE"
);
},
{
closed = 1;
nodes = (
"444.1 505 OFFCURVE",
"456.13 507.86 OFFCURVE",
"467.08 513.59 CURVE SMOOTH",
"494.36 527.86 OFFCURVE",
"508 551.99 OFFCURVE",
"508 586 CURVE SMOOTH",
"507.86 599.33 OFFCURVE",
"505.21 611.94 OFFCURVE",
"500.07 623.81 CURVE SMOOTH",
"486.77 652.6 OFFCURVE",
"463.75 667 OFFCURVE",
"431 667 CURVE SMOOTH",
"418.04 666.83 OFFCURVE",
"405.73 663.73 OFFCURVE",
"394.05 657.7 CURVE SMOOTH",
"367.35 643.01 OFFCURVE",
"354 619.11 OFFCURVE",
"354 586 CURVE SMOOTH",
"354.17 572.18 OFFCURVE",
"357.4 558.96 OFFCURVE",
"363.68 546.34 CURVE SMOOTH",
"378.24 518.78 OFFCURVE",
"400.68 505 OFFCURVE",
"431 505 CURVE SMOOTH"
);
},
{
closed = 1;
nodes = (
"186.32 128.82 OFFCURVE",
"173.31 125.36 OFFCURVE",
"160.95 118.63 CURVE SMOOTH",
"133.65 102.85 OFFCURVE",
"120 77.97 OFFCURVE",
"120 44 CURVE SMOOTH",
"120.18 29.02 OFFCURVE",
"123.83 14.8 OFFCURVE",
"130.96 1.33 CURVE SMOOTH",
"146.38 -26.23 OFFCURVE",
"169.39 -40 OFFCURVE",
"200 -40 CURVE SMOOTH",
"213.07 -39.84 OFFCURVE",
"225.5 -36.86 OFFCURVE",
"237.3 -31.07 CURVE SMOOTH",
"265.76 -16.18 OFFCURVE",
"280 8.84 OFFCURVE",
"280 44 CURVE SMOOTH",
"279.86 57.84 OFFCURVE",
"277.17 70.93 OFFCURVE",
"271.92 83.28 CURVE SMOOTH",
"258.16 113.76 OFFCURVE",
"234.19 129 OFFCURVE",
"200 129 CURVE SMOOTH"
);
}
);
vertWidth = 1000;
width = 850;
}
);
note = u1B193;
unicode = 1B193;
},
{
glyphname = u1B194;
layers = (
{
hints = (
{
place = "{521, 113}";
type = Stem;
}
);
layerId = "B7A40619-0288-44E4-A367-A835A45E2561";
paths = (
{
closed = 1;
nodes = (
"547 412 LINE",
"608.55 474.66 OFFCURVE",
"664.55 540.32 OFFCURVE",
"715 609 CURVE",
"618 674 LINE",
"582.3 623.93 OFFCURVE",
"540.64 572.93 OFFCURVE",
"493 521 CURVE",
"452 606 LINE",
"540.78 715.76 OFFCURVE",
"601.45 840.09 OFFCURVE",
"634 979 CURVE",
"521 1000 LINE",
"495.81 897.77 OFFCURVE",
"453.81 805.44 OFFCURVE",
"395 723 CURVE",
"316 884 LINE",
"208 832 LINE",
"310 623 LINE",
"259.49 570.67 OFFCURVE",
"196.15 517 OFFCURVE",
"120 462 CURVE",
"184 368 LINE",
"255.82 416.31 OFFCURVE",
"315.82 463.98 OFFCURVE",
"364 511 CURVE",
"403 432 LINE",
"321.11 356.59 OFFCURVE",
"233.78 289.93 OFFCURVE",
"141 232 CURVE",
"199 135 LINE",
"290.76 192.92 OFFCURVE",
"376.09 256.25 OFFCURVE",
"455 325 CURVE",
"482 270 LINE",
"389.04 154.46 OFFCURVE",
"291.37 55.79 OFFCURVE",
"189 -26 CURVE",
"260 -120 LINE",
"364.04 -33.7 OFFCURVE",
"457.04 57.3 OFFCURVE",
"539 153 CURVE",
"621 -15 LINE",
"730 38 LINE"
);
}
);
vertWidth = 1000;
width = 850;
}
);
note = u1B194;
unicode = 1B194;
},
{
glyphname = u1B195;
layers = (
{
hints = (
{
place = "{105, 154}";
type = Stem;
},
{
place = "{407, 121}";
type = Stem;
},
{
place = "{591, 154}";
type = Stem;
},
{
place = "{433, 121}";
type = Stem;
},
{
horizontal = 1;
place = "{462, 167}";
type = Stem;
},
{
horizontal = 1;
place = "{372, 167}";
type = Stem;
}
);
layerId = "B7A40619-0288-44E4-A367-A835A45E2561";
paths = (
{
closed = 1;
nodes = (
"407 1000 LINE",
"402.3 832.36 OFFCURVE",
"386.17 686.14 OFFCURVE",
"358.61 561.33 CURVE SMOOTH",
"315.48 367.07 OFFCURVE",
"234.27 192.96 OFFCURVE",
"115 39 CURVE",
"210 -35 LINE",
"289.12 63.55 OFFCURVE",
"352.12 168.22 OFFCURVE",
"399 279 CURVE",
"423.48 160.98 OFFCURVE",
"434.81 27.98 OFFCURVE",
"433 -120 CURVE",
"554 -120 LINE",
"554.14 -103.64 OFFCURVE",
"554.13 -87.22 OFFCURVE",
"553.96 -70.75 CURVE SMOOTH",
"551.88 115.94 OFFCURVE",
"522.22 299.52 OFFCURVE",
"465 480 CURVE",
"500.87 623.81 OFFCURVE",
"521.87 796.81 OFFCURVE",
"528 999 CURVE"
);
},
{
closed = 1;
nodes = (
"193.89 462.14 OFFCURVE",
"205.09 464.47 OFFCURVE",
"215.62 468.98 CURVE SMOOTH",
"244.54 482.3 OFFCURVE",
"259 507.98 OFFCURVE",
"259 546 CURVE SMOOTH",
"258.87 558.68 OFFCURVE",
"256.53 570.85 OFFCURVE",
"251.97 582.53 CURVE SMOOTH",
"239.1 613.51 OFFCURVE",
"215.78 629 OFFCURVE",
"182 629 CURVE SMOOTH",
"168.42 628.8 OFFCURVE",
"155.52 625.14 OFFCURVE",
"143.31 618 CURVE SMOOTH",
"117.77 602.13 OFFCURVE",
"105 578.13 OFFCURVE",
"105 546 CURVE SMOOTH",
"105.15 531.77 OFFCURVE",
"108.09 518.3 OFFCURVE",
"113.83 505.59 CURVE SMOOTH",
"127.74 476.53 OFFCURVE",
"150.46 462 OFFCURVE",
"182 462 CURVE SMOOTH"
);
},
{
closed = 1;
nodes = (
"654.42 538.8 OFFCURVE",
"641.52 535.14 OFFCURVE",
"629.31 528 CURVE SMOOTH",
"603.77 512.13 OFFCURVE",
"591 488.13 OFFCURVE",
"591 456 CURVE SMOOTH",
"591.15 441.77 OFFCURVE",
"594.09 428.3 OFFCURVE",
"599.83 415.59 CURVE SMOOTH",
"613.74 386.53 OFFCURVE",
"636.46 372 OFFCURVE",
"668 372 CURVE SMOOTH",
"679.89 372.14 OFFCURVE",
"691.09 374.47 OFFCURVE",
"701.62 378.98 CURVE SMOOTH",
"730.54 392.3 OFFCURVE",
"745 417.98 OFFCURVE",
"745 456 CURVE SMOOTH",
"744.87 468.68 OFFCURVE",
"742.53 480.85 OFFCURVE",
"737.97 492.53 CURVE SMOOTH",
"725.1 523.51 OFFCURVE",
"701.78 539 OFFCURVE",
"668 539 CURVE SMOOTH"
);
}
);
vertWidth = 1000;
width = 850;
}
);
note = u1B195;
unicode = 1B195;
},
{
glyphname = u1B196;
layers = (
{
hints = (
{
place = "{293, 117}";
type = Stem;
},
{
place = "{434, 110}";
type = Stem;
},
{
place = "{647, 114}";
type = Stem;
}
);
layerId = "B7A40619-0288-44E4-A367-A835A45E2561";
paths = (
{
closed = 1;
nodes = (
"761 320 LINE",
"745.48 506.07 OFFCURVE",
"705.48 687.41 OFFCURVE",
"641 864 CURVE",
"546 863 LINE",
"446 626 LINE",
"421.03 680.2 OFFCURVE",
"395.37 729.2 OFFCURVE",
"369 773 CURVE",
"388.35 843.47 OFFCURVE",
"402.02 915.13 OFFCURVE",
"410 988 CURVE",
"293 1000 LINE",
"263.83 788.9 OFFCURVE",
"191.5 597.9 OFFCURVE",
"76 427 CURVE",
"172 360 LINE",
"229.4 442.71 OFFCURVE",
"276.4 527.37 OFFCURVE",
"313 614 CURVE",
"338.05 568.6 OFFCURVE",
"360.05 520.26 OFFCURVE",
"379 469 CURVE",
"187 15 LINE",
"293 -33 LINE",
"429 279 LINE",
"449.02 157.26 OFFCURVE",
"450.69 27.93 OFFCURVE",
"434 -109 CURVE",
"544 -120 LINE",
"568.97 87.76 OFFCURVE",
"556.3 280.43 OFFCURVE",
"506 458 CURVE",
"592 656 LINE",
"619.56 542.56 OFFCURVE",
"637.9 426.9 OFFCURVE",
"647 309 CURVE"
);
}
);
vertWidth = 1000;
width = 850;
}
);
note = u1B196;
unicode = 1B196;
},
{
glyphname = u1B197;
layers = (
{
hints = (
{
place = "{474, 113}";
type = Stem;
}
);
layerId = "B7A40619-0288-44E4-A367-A835A45E2561";
paths = (
{
closed = 1;
nodes = (
"665 369 LINE",
"628.51 319.02 OFFCURVE",
"591.18 272.02 OFFCURVE",
"553 228 CURVE",
"503 330 LINE",
"554.51 390.2 OFFCURVE",
"602.85 456.2 OFFCURVE",
"648 528 CURVE",
"554 594 LINE",
"524.87 546.77 OFFCURVE",
"489.2 497.11 OFFCURVE",
"447 445 CURVE",
"399 544 LINE",
"497.84 673.77 OFFCURVE",
"560.5 822.11 OFFCURVE",
"587 989 CURVE",
"474 1000 LINE",
"454.81 879.76 OFFCURVE",
"410.47 767.76 OFFCURVE",
"341 664 CURVE",
"237 876 LINE",
"128 825 LINE",
"258 558 LINE",
"212.08 505.53 OFFCURVE",
"156.08 452.86 OFFCURVE",
"90 400 CURVE",
"159 308 LINE",
"218.86 353.24 OFFCURVE",
"270.19 398.57 OFFCURVE",
"313 444 CURVE",
"361 347 LINE",
"314.2 298.46 OFFCURVE",
"257.87 247.12 OFFCURVE",
"192 193 CURVE",
"263 99 LINE",
"310.69 134.86 OFFCURVE",
"361.69 179.86 OFFCURVE",
"416 234 CURVE",
"464 134 LINE",
"410.88 79.99 OFFCURVE",
"350.88 25.66 OFFCURVE",
"284 -29 CURVE",
"350 -120 LINE",
"365.49 -107.91 OFFCURVE",
"381.42 -95.04 OFFCURVE",
"397.8 -81.39 CURVE SMOOTH",
"534.83 33.16 OFFCURVE",
"654.23 160.29 OFFCURVE",
"756 300 CURVE"
);
}
);
vertWidth = 1000;
width = 850;
}
);
note = u1B197;
unicode = 1B197;
},
{
glyphname = u1B198;
layers = (
{
hints = (
{
place = "{262, 121}";
type = Stem;
},
{
place = "{414, 113}";
type = Stem;
},
{
place = "{627, 114}";
type = Stem;
}
);
layerId = "B7A40619-0288-44E4-A367-A835A45E2561";
paths = (
{
closed = 1;
nodes = (
"554.56 847.28 OFFCURVE",
"576.56 903.94 OFFCURVE",
"595 966 CURVE",
"480 1000 LINE",
"467.71 956.43 OFFCURVE",
"452.96 914.85 OFFCURVE",
"435.74 875.25 CURVE SMOOTH",
"371.61 728.69 OFFCURVE",
"263.36 600.61 OFFCURVE",
"111 491 CURVE",
"111 486 LINE",
"211.05 384.58 OFFCURVE",
"261.38 282.25 OFFCURVE",
"262 179 CURVE SMOOTH",
"261.79 100.94 OFFCURVE",
"236.79 20.94 OFFCURVE",
"187 -61 CURVE",
"293 -120 LINE",
"352.6 -22.92 OFFCURVE",
"382.6 78.08 OFFCURVE",
"383 183 CURVE SMOOTH",
"382.75 282.23 OFFCURVE",
"346.08 380.23 OFFCURVE",
"273 477 CURVE",
"352.97 542.32 OFFCURVE",
"419.3 614.99 OFFCURVE",
"472 695 CURVE",
"493.73 676.45 OFFCURVE",
"512.4 658.12 OFFCURVE",
"528 640 CURVE",
"452.65 566.24 OFFCURVE",
"414.65 487.91 OFFCURVE",
"414 405 CURVE SMOOTH",
"414.04 393.23 OFFCURVE",
"414.77 381.26 OFFCURVE",
"416.2 369.07 CURVE SMOOTH",
"427.71 275.96 OFFCURVE",
"478.64 201.6 OFFCURVE",
"569 146 CURVE",
"645 155 LINE",
"708.46 226.55 OFFCURVE",
"740.46 308.22 OFFCURVE",
"741 400 CURVE SMOOTH",
"740.89 443.39 OFFCURVE",
"733.87 487.29 OFFCURVE",
"719.93 531.69 CURVE SMOOTH",
"686.5 636.62 OFFCURVE",
"622.86 724.72 OFFCURVE",
"529 796 CURVE"
);
},
{
closed = 1;
nodes = (
"615.7 496.21 OFFCURVE",
"626.7 450.21 OFFCURVE",
"627 404 CURVE SMOOTH",
"626.88 351.98 OFFCURVE",
"616.21 306.98 OFFCURVE",
"595 269 CURVE",
"550.35 305.36 OFFCURVE",
"527.68 350.36 OFFCURVE",
"527 404 CURVE SMOOTH",
"527.34 452.98 OFFCURVE",
"549.67 498.98 OFFCURVE",
"594 542 CURVE"
);
}
);
vertWidth = 1000;
width = 850;
}
);
note = u1B198;
unicode = 1B198;
},
{
glyphname = u1B199;
layers = (
{
hints = (
{
place = "{381, 118}";
type = Stem;
}
);
layerId = "B7A40619-0288-44E4-A367-A835A45E2561";
paths = (
{
closed = 1;
nodes = (
"515.43 525.31 OFFCURVE",
"587.76 437.31 OFFCURVE",
"648 340 CURVE",
"752 403 LINE",
"674.45 524.65 OFFCURVE",
"581.78 632.32 OFFCURVE",
"474 726 CURVE",
"493.85 801.99 OFFCURVE",
"503.85 892.65 OFFCURVE",
"504 998 CURVE",
"383 1000 LINE",
"382 868.91 OFFCURVE",
"363.65 759.82 OFFCURVE",
"327.94 672.75 CURVE SMOOTH",
"286.17 571.83 OFFCURVE",
"210.53 480.91 OFFCURVE",
"101 400 CURVE",
"170 305 LINE",
"292.07 393 OFFCURVE",
"379.07 492.66 OFFCURVE",
"431 604 CURVE"
);
},
{
closed = 1;
nodes = (
"485.62 288.96 OFFCURVE",
"495.62 350.29 OFFCURVE",
"499 420 CURVE",
"381 427 LINE",
"379.42 399.28 OFFCURVE",
"376.48 372.27 OFFCURVE",
"372.19 345.97 CURVE SMOOTH",
"347.17 195.17 OFFCURVE",
"270.11 70.18 OFFCURVE",
"141 -29 CURVE",
"208 -120 LINE",
"303 -50 OFFCURVE",
"375 31 OFFCURVE",
"424 123 CURVE",
"501.53 51.43 OFFCURVE",
"566.86 -28.24 OFFCURVE",
"620 -116 CURVE",
"720 -55 LINE",
"652.94 52.99 OFFCURVE",
"569.27 149.99 OFFCURVE",
"469 236 CURVE"
);
}
);
vertWidth = 1000;
width = 850;
}
);
note = u1B199;
unicode = 1B199;
},
{
glyphname = u1B19A;
layers = (
{
hints = (
{
place = "{239, 122}";
type = Stem;
},
{
place = "{463, 119}";
type = Stem;
},
{
place = "{642, 117}";
type = Stem;
}
);
layerId = "B7A40619-0288-44E4-A367-A835A45E2561";
paths = (
{
closed = 1;
nodes = (
"642 447 LINE",
"630.64 351.48 OFFCURVE",
"611.64 264.48 OFFCURVE",
"585 186 CURVE",
"466 433 LINE",
"479.57 454.18 OFFCURVE",
"492.11 476.1 OFFCURVE",
"503.63 498.76 CURVE SMOOTH",
"570.36 631.04 OFFCURVE",
"596.48 798.12 OFFCURVE",
"582 1000 CURVE",
"463 993 LINE",
"466.99 940.62 OFFCURVE",
"468.09 891.87 OFFCURVE",
"466.28 846.77 CURVE SMOOTH",
"460.32 704.71 OFFCURVE",
"419.56 581.46 OFFCURVE",
"344 477 CURVE",
"324.06 578.16 OFFCURVE",
"285.73 685.16 OFFCURVE",
"229 798 CURVE",
"120 743 LINE",
"198.96 586.75 OFFCURVE",
"238.63 442.42 OFFCURVE",
"239 310 CURVE SMOOTH",
"238.84 193.93 OFFCURVE",
"207.84 66.26 OFFCURVE",
"146 -73 CURVE",
"258 -120 LINE",
"324.37 28.88 OFFCURVE",
"358.7 169.55 OFFCURVE",
"361 302 CURVE",
"369.71 310.72 OFFCURVE",
"376.38 318.05 OFFCURVE",
"381 324 CURVE",
"542 -8 LINE",
"634 -9 LINE",
"699.21 117.77 OFFCURVE",
"740.88 265.1 OFFCURVE",
"759 433 CURVE"
);
}
);
vertWidth = 1000;
width = 850;
}
);
note = u1B19A;
unicode = 1B19A;
},
{
glyphname = u1B19B;
layers = (
{
hints = (
{
horizontal = 1;
place = "{213, 159}";
type = Stem;
},
{
horizontal = 1;
place = "{437, 159}";
type = Stem;
},
{
place = "{620, 115}";
type = Stem;
},
{
place = "{603, 110}";
type = Stem;
},
{
place = "{129, 152}";
type = Stem;
},
{
place = "{120, 152}";
type = Stem;
}
);
layerId = "B7A40619-0288-44E4-A367-A835A45E2561";
paths = (
{
closed = 1;
nodes = (
"620 1000 LINE",
"596.37 804.34 OFFCURVE",
"558.04 642.67 OFFCURVE",
"505 515 CURVE",
"453.32 631.2 OFFCURVE",
"403.32 731.2 OFFCURVE",
"355 815 CURVE",
"256 757 LINE",
"317.41 648.69 OFFCURVE",
"377.74 522.69 OFFCURVE",
"437 379 CURVE",
"374.49 273.45 OFFCURVE",
"286.82 166.12 OFFCURVE",
"174 57 CURVE",
"250 -30 LINE",
"345.64 59.84 OFFCURVE",
"425.64 150.84 OFFCURVE",
"490 243 CURVE",
"539 107.89 OFFCURVE",
"576.67 -13.11 OFFCURVE",
"603 -120 CURVE",
"713 -90 LINE",
"674.5 60.68 OFFCURVE",
"625.17 213.34 OFFCURVE",
"565 368 CURVE",
"569.64 376.75 OFFCURVE",
"574.35 385.9 OFFCURVE",
"579.13 395.44 CURVE SMOOTH",
"656.87 551.16 OFFCURVE",
"708.83 749.68 OFFCURVE",
"735 991 CURVE"
);
},
{
closed = 1;
nodes = (
"217.87 437 OFFCURVE",
"229.8 439.92 OFFCURVE",
"240.78 445.77 CURVE SMOOTH",
"267.6 460.05 OFFCURVE",
"281 483.46 OFFCURVE",
"281 516 CURVE SMOOTH",
"280.85 529.2 OFFCURVE",
"278.15 541.73 OFFCURVE",
"272.9 553.57 CURVE SMOOTH",
"259.53 581.86 OFFCURVE",
"236.9 596 OFFCURVE",
"205 596 CURVE SMOOTH",
"192.67 595.83 OFFCURVE",
"180.88 592.97 OFFCURVE",
"169.62 587.41 CURVE SMOOTH",
"142.54 573.13 OFFCURVE",
"129 549.32 OFFCURVE",
"129 516 CURVE SMOOTH",
"129.17 502.67 OFFCURVE",
"132.23 489.92 OFFCURVE",
"138.19 477.76 CURVE SMOOTH",
"152.33 450.59 OFFCURVE",
"174.6 437 OFFCURVE",
"205 437 CURVE SMOOTH"
);
},
{
closed = 1;
nodes = (
"271.84 305.72 OFFCURVE",
"268.85 318.7 OFFCURVE",
"263.03 330.94 CURVE SMOOTH",
"249.19 358.31 OFFCURVE",
"226.85 372 OFFCURVE",
"196 372 CURVE SMOOTH",
"183.19 371.82 OFFCURVE",
"170.96 368.66 OFFCURVE",
"159.32 362.51 CURVE SMOOTH",
"133.11 347.75 OFFCURVE",
"120 324.24 OFFCURVE",
"120 292 CURVE SMOOTH",
"120.18 278.17 OFFCURVE",
"123.55 264.97 OFFCURVE",
"130.12 252.41 CURVE SMOOTH",
"144.7 226.14 OFFCURVE",
"166.66 213 OFFCURVE",
"196 213 CURVE SMOOTH",
"208.96 213.18 OFFCURVE",
"221.32 216.41 OFFCURVE",
"233.09 222.69 CURVE SMOOTH",
"259.03 237.44 OFFCURVE",
"272 260.55 OFFCURVE",
"272 292 CURVE SMOOTH"
);
}
);
vertWidth = 1000;
width = 850;
}
);
note = u1B19B;
unicode = 1B19B;
},
{
glyphname = u1B19C;
layers = (
{
hints = (
{
place = "{203, 121}";
type = Stem;
},
{
place = "{482, 120}";
type = Stem;
},
{
place = "{531, 117}";
type = Stem;
}
);
layerId = "B7A40619-0288-44E4-A367-A835A45E2561";
paths = (
{
closed = 1;
nodes = (
"482 1000 LINE",
"478.91 813.41 OFFCURVE",
"454.24 658.41 OFFCURVE",
"408 535 CURVE",
"278 846 LINE",
"168 799 LINE",
"351 368 LINE",
"449 358 LINE",
"546.62 519.48 OFFCURVE",
"597.62 732.81 OFFCURVE",
"602 998 CURVE"
);
},
{
closed = 1;
nodes = (
"646 533 LINE",
"626.8 508.65 OFFCURVE",
"610.22 485.53 OFFCURVE",
"596.26 463.64 CURVE SMOOTH",
"552.75 394.87 OFFCURVE",
"531 321.65 OFFCURVE",
"531 244 CURVE SMOOTH",
"531.05 219.58 OFFCURVE",
"532.97 196.03 OFFCURVE",
"536.76 173.35 CURVE SMOOTH",
"547.95 108.37 OFFCURVE",
"583.03 35.92 OFFCURVE",
"642 -44 CURVE",
"735 30 LINE",
"724.96 43.77 OFFCURVE",
"715.92 56.72 OFFCURVE",
"707.87 68.87 CURVE SMOOTH",
"667.96 129.51 OFFCURVE",
"648 187.89 OFFCURVE",
"648 244 CURVE SMOOTH",
"648.04 255.62 OFFCURVE",
"648.79 267.21 OFFCURVE",
"650.25 278.76 CURVE SMOOTH",
"657.11 329.9 OFFCURVE",
"687.03 389.98 OFFCURVE",
"740 459 CURVE"
);
},
{
closed = 1;
nodes = (
"115 365 LINE",
"124.63 352.97 OFFCURVE",
"133.52 341.18 OFFCURVE",
"141.67 329.63 CURVE SMOOTH",
"182.56 271.21 OFFCURVE",
"203 210 OFFCURVE",
"203 146 CURVE SMOOTH",
"202.97 136.98 OFFCURVE",
"202.6 127.86 OFFCURVE",
"201.88 118.64 CURVE SMOOTH",
"197.44 65.75 OFFCURVE",
"173.81 6.53 OFFCURVE",
"131 -59 CURVE",
"233 -120 LINE",
"293.19 -35.58 OFFCURVE",
"323.53 52.76 OFFCURVE",
"324 145 CURVE SMOOTH",
"323.96 167.27 OFFCURVE",
"322.71 188.56 OFFCURVE",
"320.25 208.88 CURVE SMOOTH",
"310.23 288.83 OFFCURVE",
"273.14 366.54 OFFCURVE",
"209 442 CURVE"
);
}
);
vertWidth = 1000;
width = 850;
}
);
note = u1B19C;
unicode = 1B19C;
},
{
glyphname = u1B19D;
layers = (
{
hints = (
{
place = "{376, 121}";
type = Stem;
}
);
layerId = "B7A40619-0288-44E4-A367-A835A45E2561";
paths = (
{
closed = 1;
nodes = (
"777 360 LINE",
"695.22 493.12 OFFCURVE",
"592.22 614.46 OFFCURVE",
"468 724 CURVE",
"487.19 803.04 OFFCURVE",
"496.85 894.71 OFFCURVE",
"497 999 CURVE",
"376 1000 LINE",
"374.98 859.25 OFFCURVE",
"354.43 742.52 OFFCURVE",
"314.36 649.81 CURVE SMOOTH",
"269.35 546.58 OFFCURVE",
"189.23 453.3 OFFCURVE",
"74 370 CURVE",
"140 272 LINE",
"179.78 299.82 OFFCURVE",
"218.45 330.82 OFFCURVE",
"256 365 CURVE",
"296.32 321.49 OFFCURVE",
"333.99 274.82 OFFCURVE",
"369 225 CURVE",
"304.35 132.78 OFFCURVE",
"222.68 51.45 OFFCURVE",
"124 -19 CURVE",
"193 -120 LINE",
"290.42 -53.59 OFFCURVE",
"373.42 23.74 OFFCURVE",
"442 112 CURVE",
"477.27 51.83 OFFCURVE",
"509.27 -12.17 OFFCURVE",
"538 -80 CURVE",
"649 -27 LINE",
"615.06 57.65 OFFCURVE",
"571.39 141.98 OFFCURVE",
"518 226 CURVE",
"550.83 283.56 OFFCURVE",
"579.5 343.56 OFFCURVE",
"604 406 CURVE",
"627.77 375.12 OFFCURVE",
"653.1 338.45 OFFCURVE",
"680 296 CURVE"
);
},
{
closed = 1;
nodes = (
"405.76 379.54 OFFCURVE",
"372.42 418.54 OFFCURVE",
"338 455 CURVE",
"372.15 497.85 OFFCURVE",
"401.81 546.85 OFFCURVE",
"427 602 CURVE",
"456.8 574.14 OFFCURVE",
"485.47 545.48 OFFCURVE",
"513 516 CURVE",
"491.44 453.43 OFFCURVE",
"466.44 394.1 OFFCURVE",
"438 338 CURVE"
);
}
);
vertWidth = 1000;
width = 850;
}
);
note = u1B19D;
unicode = 1B19D;
},
{
glyphname = u1B19E;
layers = (
{
hints = (
{
place = "{495, 113}";
type = Stem;
}
);
layerId = "B7A40619-0288-44E4-A367-A835A45E2561";
paths = (
{
closed = 1;
nodes = (
"655 314 LINE",
"601.23 238.61 OFFCURVE",
"540.56 164.61 OFFCURVE",
"473 92 CURVE",
"480.69 157.05 OFFCURVE",
"485.02 219.71 OFFCURVE",
"486 280 CURVE",
"554.41 357.08 OFFCURVE",
"618.41 442.08 OFFCURVE",
"678 535 CURVE",
"581 600 LINE",
"551.35 552.45 OFFCURVE",
"518.35 506.11 OFFCURVE",
"482 461 CURVE",
"478.37 523.69 OFFCURVE",
"473.7 578.02 OFFCURVE",
"468 624 CURVE",
"534.44 730.17 OFFCURVE",
"581.11 849.84 OFFCURVE",
"608 983 CURVE",
"495 1000 LINE",
"484.23 946.42 OFFCURVE",
"469.58 895.15 OFFCURVE",
"451.04 846.19 CURVE SMOOTH",
"387.95 680.65 OFFCURVE",
"269.94 530.92 OFFCURVE",
"97 397 CURVE",
"163 303 LINE",
"236.53 357.29 OFFCURVE",
"302.2 416.29 OFFCURVE",
"360 480 CURVE",
"364.92 430.57 OFFCURVE",
"367.92 380.57 OFFCURVE",
"369 330 CURVE",
"305.26 262.24 OFFCURVE",
"237.26 199.57 OFFCURVE",
"165 142 CURVE",
"233 44 LINE",
"278 78 OFFCURVE",
"322 115 OFFCURVE",
"365 155 CURVE",
"360.16 81.16 OFFCURVE",
"350.5 4.16 OFFCURVE",
"336 -76 CURVE",
"418 -120 LINE",
"556.72 0.87 OFFCURVE",
"667.39 122.54 OFFCURVE",
"750 245 CURVE"
);
}
);
vertWidth = 1000;
width = 850;
}
);
note = u1B19E;
unicode = 1B19E;
},
{
glyphname = u1B19F;
layers = (
{
hints = (
{
place = "{157, 117}";
type = Stem;
},
{
place = "{564, 120}";
type = Stem;
}
);
layerId = "B7A40619-0288-44E4-A367-A835A45E2561";
paths = (
{
closed = 1;
nodes = (
"777 -4 LINE",
"739.23 69.39 OFFCURVE",
"691.23 141.06 OFFCURVE",
"633 211 CURVE",
"666.71 280.76 OFFCURVE",
"683.71 359.09 OFFCURVE",
"684 446 CURVE SMOOTH",
"683.89 531.31 OFFCURVE",
"668.22 626.64 OFFCURVE",
"637 732 CURVE",
"666.47 809.37 OFFCURVE",
"690.47 891.7 OFFCURVE",
"709 979 CURVE",
"590 1000 LINE",
"586.26 982.67 OFFCURVE",
"582.13 965.05 OFFCURVE",
"577.6 947.14 CURVE SMOOTH",
"522.18 729.37 OFFCURVE",
"425.31 540.66 OFFCURVE",
"287 381 CURVE",
"287 376 LINE",
"360.15 316.58 OFFCURVE",
"424.48 258.24 OFFCURVE",
"480 201 CURVE",
"425.92 131.56 OFFCURVE",
"333.92 59.56 OFFCURVE",
"204 -15 CURVE",
"255 -120 LINE",
"392.69 -50.5 OFFCURVE",
"495.69 24.83 OFFCURVE",
"564 106 CURVE",
"610.39 47.91 OFFCURVE",
"647.72 -8.76 OFFCURVE",
"676 -64 CURVE"
);
},
{
closed = 1;
nodes = (
"229 84 LINE",
"258.74 156.72 OFFCURVE",
"273.74 233.06 OFFCURVE",
"274 313 CURVE SMOOTH",
"273.84 404.29 OFFCURVE",
"254.17 489.96 OFFCURVE",
"215 570 CURVE",
"110 525 LINE",
"141.03 453.9 OFFCURVE",
"156.7 383.9 OFFCURVE",
"157 315 CURVE SMOOTH",
"156.88 254.2 OFFCURVE",
"144.54 188.2 OFFCURVE",
"120 117 CURVE"
);
},
{
closed = 1;
nodes = (
"487.3 442.68 OFFCURVE",
"521.97 497.34 OFFCURVE",
"554 554 CURVE",
"560.54 518.19 OFFCURVE",
"563.87 482.86 OFFCURVE",
"564 448 CURVE SMOOTH",
"563.89 399.36 OFFCURVE",
"556.22 353.36 OFFCURVE",
"541 310 CURVE",
"514.68 334.47 OFFCURVE",
"484.34 361.14 OFFCURVE",
"450 390 CURVE"
);
}
);
vertWidth = 1000;
width = 850;
}
);
note = u1B19F;
unicode = 1B19F;
},
{
glyphname = u1B1A0;
layers = (
{
hints = (
{
place = "{280, 124}";
type = Stem;
},
{
place = "{661, 117.47}";
type = Stem;
},
{
place = "{395, 117}";
type = Stem;
}
);
layerId = "B7A40619-0288-44E4-A367-A835A45E2561";
paths = (
{
closed = 1;
nodes = (
"779 331 LINE",
"778.85 332.91 OFFCURVE",
"778.68 335.16 OFFCURVE",
"778.47 337.74 CURVE SMOOTH",
"762.95 531.96 OFFCURVE",
"721.79 721.05 OFFCURVE",
"655 905 CURVE",
"551 899 LINE",
"522.91 794.23 OFFCURVE",
"489.58 688.23 OFFCURVE",
"451 581 CURVE",
"428.74 640.17 OFFCURVE",
"401.74 694.17 OFFCURVE",
"370 743 CURVE",
"387.42 823.59 OFFCURVE",
"398.75 907.59 OFFCURVE",
"404 995 CURVE",
"280 1000 LINE",
"260.91 748.55 OFFCURVE",
"190.57 520.88 OFFCURVE",
"69 317 CURVE",
"174 255 LINE",
"234.23 352.91 OFFCURVE",
"283.23 457.24 OFFCURVE",
"321 568 CURVE",
"370.03 463.99 OFFCURVE",
"394.7 346.66 OFFCURVE",
"395 216 CURVE SMOOTH",
"394.91 125.53 OFFCURVE",
"382.25 20.86 OFFCURVE",
"357 -98 CURVE",
"476 -120 LINE",
"499.87 -0.36 OFFCURVE",
"511.87 112.64 OFFCURVE",
"512 219 CURVE SMOOTH",
"511.96 267.99 OFFCURVE",
"508.96 316.66 OFFCURVE",
"503 365 CURVE",
"540.78 463.84 OFFCURVE",
"576.11 563.51 OFFCURVE",
"609 664 CURVE",
"637.74 532.81 OFFCURVE",
"655.07 418.15 OFFCURVE",
"661 320 CURVE"
);
}
);
vertWidth = 1000;
width = 850;
}
);
note = u1B1A0;
unicode = 1B1A0;
},
{
glyphname = u1B1A1;
layers = (
{
hints = (
{
horizontal = 1;
place = "{518, 169}";
type = Stem;
},
{
place = "{120, 160}";
type = Stem;
},
{
place = "{440, 123}";
type = Stem;
}
);
layerId = "B7A40619-0288-44E4-A367-A835A45E2561";
paths = (
{
closed = 1;
nodes = (
"664 353 LINE",
"636.72 254.86 OFFCURVE",
"599.72 157.86 OFFCURVE",
"553 62 CURVE",
"412 340 LINE",
"426.76 367.31 OFFCURVE",
"440.49 395.29 OFFCURVE",
"453.19 423.92 CURVE SMOOTH",
"522.08 580.1 OFFCURVE",
"558.68 771.8 OFFCURVE",
"563 999 CURVE",
"440 1000 LINE",
"437.47 816.46 OFFCURVE",
"412.58 661.41 OFFCURVE",
"365.32 534.83 CURVE SMOOTH",
"315.06 401.03 OFFCURVE",
"224.29 260.08 OFFCURVE",
"93 112 CURVE",
"178 25 LINE",
"240.3 91.53 OFFCURVE",
"292.3 154.53 OFFCURVE",
"334 214 CURVE",
"502 -119 LINE",
"585 -118 LINE",
"602.36 -92.53 OFFCURVE",
"620.21 -62.92 OFFCURVE",
"638.54 -29.17 CURVE SMOOTH",
"699.73 84.02 OFFCURVE",
"746.21 198.74 OFFCURVE",
"778 315 CURVE"
);
},
{
closed = 1;
nodes = (
"212.82 518.15 OFFCURVE",
"224.96 520.84 OFFCURVE",
"236.41 526.08 CURVE SMOOTH",
"265.47 540.27 OFFCURVE",
"280 565.57 OFFCURVE",
"280 602 CURVE SMOOTH",
"279.86 616.09 OFFCURVE",
"277.17 629.33 OFFCURVE",
"271.92 641.72 CURVE SMOOTH",
"258.32 671.91 OFFCURVE",
"234.35 687 OFFCURVE",
"200 687 CURVE SMOOTH",
"186.58 686.83 OFFCURVE",
"173.84 683.61 OFFCURVE",
"161.79 677.36 CURVE SMOOTH",
"133.93 661.98 OFFCURVE",
"120 636.86 OFFCURVE",
"120 602 CURVE SMOOTH",
"120.17 587.52 OFFCURVE",
"123.51 573.75 OFFCURVE",
"130.02 560.67 CURVE SMOOTH",
"145.02 532.22 OFFCURVE",
"168.34 518 OFFCURVE",
"200 518 CURVE SMOOTH"
);
}
);
vertWidth = 1000;
width = 850;
}
);
note = u1B1A1;
unicode = 1B1A1;
},
{
glyphname = u1B1A2;
layers = (
{
hints = (
{
place = "{507, 120}";
type = Stem;
}
);
layerId = "B7A40619-0288-44E4-A367-A835A45E2561";
paths = (
{
closed = 1;
nodes = (
"651 514 LINE",
"626.85 453.17 OFFCURVE",
"601.51 396.17 OFFCURVE",
"575 343 CURVE",
"497 472 LINE",
"565.39 637.2 OFFCURVE",
"608.72 809.2 OFFCURVE",
"627 988 CURVE",
"507 1000 LINE",
"491.64 862.45 OFFCURVE",
"461.64 730.45 OFFCURVE",
"417 604 CURVE",
"280 831 LINE",
"177 770 LINE",
"361 464 LINE",
"338.58 414.39 OFFCURVE",
"312.92 364.72 OFFCURVE",
"284 315 CURVE",
"196 491 LINE",
"89 439 LINE",
"360 -110 LINE",
"425 -120 LINE",
"434.07 -108.43 OFFCURVE",
"443.36 -96.27 OFFCURVE",
"452.89 -83.52 CURVE SMOOTH",
"574.45 79.63 OFFCURVE",
"676.82 263.8 OFFCURVE",
"760 469 CURVE"
);
},
{
closed = 1;
nodes = (
"348 186 LINE",
"378.96 234.45 OFFCURVE",
"408.3 285.78 OFFCURVE",
"436 340 CURVE",
"510 217 LINE",
"475.51 156.71 OFFCURVE",
"442.51 104.71 OFFCURVE",
"411 61 CURVE"
);
}
);
vertWidth = 1000;
width = 850;
}
);
note = u1B1A2;
unicode = 1B1A2;
},
{
glyphname = u1B1A3;
layers = (
{
hints = (
{
place = "{434, 127}";
type = Stem;
}
);
layerId = "B7A40619-0288-44E4-A367-A835A45E2561";
paths = (
{
closed = 1;
nodes = (
"560.91 435.85 OFFCURVE",
"554.58 480.85 OFFCURVE",
"542 526 CURVE",
"606.36 570.92 OFFCURVE",
"669.02 621.26 OFFCURVE",
"730 677 CURVE",
"654 760 LINE",
"613.06 721.69 OFFCURVE",
"562.39 679.69 OFFCURVE",
"502 634 CURVE",
"488 663 OFFCURVE",
"472 692 OFFCURVE",
"454 721 CURVE",
"532.42 790.7 OFFCURVE",
"590.75 868.37 OFFCURVE",
"629 954 CURVE",
"520 1000 LINE",
"457.32 865.5 OFFCURVE",
"323.98 746.5 OFFCURVE",
"120 643 CURVE",
"169 543 LINE",
"239.15 575.51 OFFCURVE",
"299.48 608.84 OFFCURVE",
"350 643 CURVE",
"364.97 618.24 OFFCURVE",
"379.3 590.57 OFFCURVE",
"393 560 CURVE",
"327.26 519.09 OFFCURVE",
"253.59 479.76 OFFCURVE",
"172 442 CURVE",
"218 344 LINE",
"291.81 376.41 OFFCURVE",
"361.48 412.41 OFFCURVE",
"427 452 CURVE",
"431.53 429.93 OFFCURVE",
"433.86 406.59 OFFCURVE",
"434 382 CURVE SMOOTH",
"433.8 327.61 OFFCURVE",
"419.13 277.94 OFFCURVE",
"390 233 CURVE",
"337.48 269.32 OFFCURVE",
"281.15 296.98 OFFCURVE",
"221 316 CURVE",
"178 211 LINE",
"222.47 194.8 OFFCURVE",
"264.14 172.8 OFFCURVE",
"303 145 CURVE",
"254.34 110.7 OFFCURVE",
"193.34 83.04 OFFCURVE",
"120 62 CURVE",
"155 -56 LINE",
"251.33 -29.05 OFFCURVE",
"331 9.62 OFFCURVE",
"394 60 CURVE",
"436.77 6.02 OFFCURVE",
"465.43 -53.98 OFFCURVE",
"480 -120 CURVE",
"595 -89 LINE",
"577.58 1.19 OFFCURVE",
"539.91 80.52 OFFCURVE",
"482 149 CURVE",
"534.24 220.7 OFFCURVE",
"560.57 301.37 OFFCURVE",
"561 391 CURVE SMOOTH"
);
}
);
vertWidth = 1000;
width = 850;
}
);
note = u1B1A3;
unicode = 1B1A3;
},
{
glyphname = u1B1A4;
layers = (
{
layerId = "B7A40619-0288-44E4-A367-A835A45E2561";
paths = (
{
closed = 1;
nodes = (
"643 719 LINE",
"585.83 648.66 OFFCURVE",
"520.83 578.99 OFFCURVE",
"448 510 CURVE",
"396 616 LINE",
"399.52 619.43 OFFCURVE",
"403.32 623.15 OFFCURVE",
"407.4 627.16 CURVE SMOOTH",
"520.96 738.93 OFFCURVE",
"603.49 844.21 OFFCURVE",
"655 943 CURVE",
"546 1000 LINE",
"537.26 983.11 OFFCURVE",
"527.71 966.07 OFFCURVE",
"517.34 948.89 CURVE SMOOTH",
"461.3 856.59 OFFCURVE",
"370.19 753.3 OFFCURVE",
"244 639 CURVE",
"350 421 LINE",
"282.25 362.58 OFFCURVE",
"205.58 301.91 OFFCURVE",
"120 239 CURVE",
"183 140 LINE",
"256.44 189.93 OFFCURVE",
"330.11 246.26 OFFCURVE",
"404 309 CURVE",
"452 210 LINE",
"371.33 134.38 OFFCURVE",
"282 60.38 OFFCURVE",
"184 -12 CURVE",
"250 -120 LINE",
"389.77 -14.34 OFFCURVE",
"509.77 84.99 OFFCURVE",
"610 178 CURVE",
"503 398 LINE",
"582.36 474.71 OFFCURVE",
"658.03 556.71 OFFCURVE",
"730 644 CURVE"
);
}
);
vertWidth = 1000;
width = 850;
}
);
note = u1B1A4;
unicode = 1B1A4;
},
{
glyphname = u1B1A5;
layers = (
{
hints = (
{
place = "{494, 118}";
type = Stem;
}
);
layerId = "B7A40619-0288-44E4-A367-A835A45E2561";
paths = (
{
closed = 1;
nodes = (
"638 628 LINE",
"611.43 589.6 OFFCURVE",
"580.43 549.94 OFFCURVE",
"545 509 CURVE",
"521.24 563.97 OFFCURVE",
"490.57 621.3 OFFCURVE",
"453 681 CURVE",
"507.8 765.41 OFFCURVE",
"552.8 862.08 OFFCURVE",
"588 971 CURVE",
"472 1000 LINE",
"457.97 957.03 OFFCURVE",
"442.34 916.39 OFFCURVE",
"425.11 878.06 CURVE SMOOTH",
"357.57 728.61 OFFCURVE",
"255.86 606.26 OFFCURVE",
"120 511 CURVE",
"120 506 LINE",
"188.17 412.45 OFFCURVE",
"222.51 320.45 OFFCURVE",
"223 230 CURVE SMOOTH",
"222.81 134.52 OFFCURVE",
"194.48 35.52 OFFCURVE",
"138 -67 CURVE",
"238 -120 LINE",
"295.4 -22.04 OFFCURVE",
"328.73 76.62 OFFCURVE",
"338 176 CURVE",
"392.44 211.99 OFFCURVE",
"442.11 247.99 OFFCURVE",
"487 284 CURVE",
"491.58 248.27 OFFCURVE",
"493.92 216.6 OFFCURVE",
"494 189 CURVE SMOOTH",
"493.92 129.73 OFFCURVE",
"486.25 66.73 OFFCURVE",
"471 0 CURVE",
"588 -24 LINE",
"603.85 53.59 OFFCURVE",
"611.85 126.59 OFFCURVE",
"612 195 CURVE SMOOTH",
"611.91 255.68 OFFCURVE",
"604.25 316.35 OFFCURVE",
"589 377 CURVE",
"647.15 436.28 OFFCURVE",
"697.48 498.62 OFFCURVE",
"740 564 CURVE"
);
},
{
closed = 1;
nodes = (
"321.61 376.36 OFFCURVE",
"300.95 430.36 OFFCURVE",
"271 482 CURVE",
"304.22 508.15 OFFCURVE",
"337.89 539.81 OFFCURVE",
"372 577 CURVE",
"404.93 523.37 OFFCURVE",
"431.6 470.03 OFFCURVE",
"452 417 CURVE",
"414.19 383.33 OFFCURVE",
"374.53 351 OFFCURVE",
"333 320 CURVE"
);
}
);
vertWidth = 1000;
width = 850;
}
);
note = u1B1A5;
unicode = 1B1A5;
},
{
glyphname = u1B1A6;
layers = (
{
hints = (
{
place = "{471, 114}";
type = Stem;
},
{
place = "{492, 112}";
type = Stem;
}
);
layerId = "B7A40619-0288-44E4-A367-A835A45E2561";
paths = (
{
closed = 1;
nodes = (
"767 209 LINE",
"724.18 296.66 OFFCURVE",
"682.18 373.33 OFFCURVE",
"641 439 CURVE",
"680 508 OFFCURVE",
"713 576 OFFCURVE",
"740 643 CURVE",
"632 690 LINE",
"614.5 645.41 OFFCURVE",
"592.83 598.74 OFFCURVE",
"567 550 CURVE",
"542.82 583.59 OFFCURVE",
"518.82 614.25 OFFCURVE",
"495 642 CURVE",
"535.3 737.98 OFFCURVE",
"565.3 851.98 OFFCURVE",
"585 984 CURVE",
"471 1000 LINE",
"457.26 906.36 OFFCURVE",
"435.59 820.03 OFFCURVE",
"406 741 CURVE",
"362.49 785.39 OFFCURVE",
"313.83 829.39 OFFCURVE",
"260 873 CURVE",
"187 783 LINE",
"243.65 734.77 OFFCURVE",
"299.31 680.77 OFFCURVE",
"354 621 CURVE",
"337.38 588.76 OFFCURVE",
"317.04 553.76 OFFCURVE",
"293 516 CURVE",
"259.12 552.63 OFFCURVE",
"219.12 591.97 OFFCURVE",
"173 634 CURVE",
"95 543 LINE",
"134.09 507.17 OFFCURVE",
"176.09 464.5 OFFCURVE",
"221 415 CURVE",
"179.4 363.64 OFFCURVE",
"141.4 320.31 OFFCURVE",
"107 285 CURVE",
"186 204 LINE",
"222.48 239.65 OFFCURVE",
"259.81 279.32 OFFCURVE",
"298 323 CURVE",
"323.17 288.22 OFFCURVE",
"343.17 259.56 OFFCURVE",
"358 237 CURVE",
"310.86 179.68 OFFCURVE",
"263.19 127.34 OFFCURVE",
"215 80 CURVE",
"291 -5 LINE",
"337.57 38.53 OFFCURVE",
"379.9 82.19 OFFCURVE",
"418 126 CURVE",
"454.99 46.92 OFFCURVE",
"479.65 -35.08 OFFCURVE",
"492 -120 CURVE",
"604 -100 LINE",
"583.69 24.38 OFFCURVE",
"549.69 134.05 OFFCURVE",
"502 229 CURVE",
"518.45 250.11 OFFCURVE",
"541.45 282.11 OFFCURVE",
"571 325 CURVE",
"603.57 269.97 OFFCURVE",
"633.57 213.64 OFFCURVE",
"661 156 CURVE"
);
},
{
closed = 1;
nodes = (
"418.78 366.85 OFFCURVE",
"398.12 394.51 OFFCURVE",
"375 424 CURVE",
"400.85 461.13 OFFCURVE",
"421.51 493.79 OFFCURVE",
"437 522 CURVE",
"459 494 OFFCURVE",
"480 465 OFFCURVE",
"500 435 CURVE",
"481.91 406.1 OFFCURVE",
"460.91 374.77 OFFCURVE",
"437 341 CURVE"
);
}
);
vertWidth = 1000;
width = 850;
}
);
note = u1B1A6;
unicode = 1B1A6;
},
{
glyphname = u1B1A7;
layers = (
{
hints = (
{
place = "{479, 115}";
type = Stem;
}
);
layerId = "B7A40619-0288-44E4-A367-A835A45E2561";
paths = (
{
closed = 1;
nodes = (
"665 368 LINE",
"624.67 314.27 OFFCURVE",
"586.33 267.94 OFFCURVE",
"550 229 CURVE",
"497 340 LINE",
"558.47 407.6 OFFCURVE",
"613.13 476.94 OFFCURVE",
"661 548 CURVE",
"566 612 LINE",
"530.65 559.08 OFFCURVE",
"489.65 505.75 OFFCURVE",
"443 452 CURVE",
"396 548 LINE",
"495.56 672.75 OFFCURVE",
"561.56 818.42 OFFCURVE",
"594 985 CURVE",
"479 1000 LINE",
"468.54 946.11 OFFCURVE",
"453.72 894.64 OFFCURVE",
"434.54 845.59 CURVE SMOOTH",
"374.02 691.9 OFFCURVE",
"259.84 550.71 OFFCURVE",
"92 422 CURVE",
"158 327 LINE",
"214.8 367.35 OFFCURVE",
"263.8 408.02 OFFCURVE",
"305 449 CURVE",
"351 355 LINE",
"295.46 300.59 OFFCURVE",
"237.8 251.26 OFFCURVE",
"178 207 CURVE",
"242 113 LINE",
"294.95 149.96 OFFCURVE",
"348.95 194.3 OFFCURVE",
"404 246 CURVE",
"458 135 LINE",
"392.24 73.68 OFFCURVE",
"327.24 20.02 OFFCURVE",
"263 -26 CURVE",
"323 -120 LINE",
"341.12 -107.38 OFFCURVE",
"359.63 -93.89 OFFCURVE",
"378.56 -79.55 CURVE SMOOTH",
"520.91 28.67 OFFCURVE",
"646.73 154.52 OFFCURVE",
"756 298 CURVE"
);
}
);
vertWidth = 1000;
width = 850;
}
);
note = u1B1A7;
unicode = 1B1A7;
},
{
glyphname = u1B1A8;
layers = (
{
hints = (
{
horizontal = 1;
place = "{-72, 153}";
type = Stem;
},
{
horizontal = 1;
place = "{139, 153}";
type = Stem;
},
{
place = "{168, 146}";
type = Stem;
},
{
place = "{510, 114}";
type = Stem;
},
{
place = "{401, 120}";
type = Stem;
},
{
place = "{596, 146}";
type = Stem;
}
);
layerId = "B7A40619-0288-44E4-A367-A835A45E2561";
paths = (
{
closed = 1;
nodes = (
"610 613 LINE",
"566.77 561.66 OFFCURVE",
"516.77 512 OFFCURVE",
"460 464 CURVE",
"448.06 499.73 OFFCURVE",
"433.4 539.4 OFFCURVE",
"416 583 CURVE",
"526.79 696.04 OFFCURVE",
"596.12 828.71 OFFCURVE",
"624 981 CURVE",
"510 1000 LINE",
"496.8 929.22 OFFCURVE",
"472.93 863.91 OFFCURVE",
"438.4 804.08 CURVE SMOOTH",
"373.86 693.19 OFFCURVE",
"259.73 588.17 OFFCURVE",
"96 489 CURVE",
"148 389 LINE",
"211.69 423.44 OFFCURVE",
"268.36 459.44 OFFCURVE",
"318 497 CURVE",
"335.86 450.52 OFFCURVE",
"349.2 412.19 OFFCURVE",
"358 382 CURVE",
"289.58 331 OFFCURVE",
"216.25 284 OFFCURVE",
"138 241 CURVE",
"186 139 LINE",
"255.6 175.79 OFFCURVE",
"322.6 216.46 OFFCURVE",
"387 261 CURVE",
"396.21 210.56 OFFCURVE",
"400.88 161.89 OFFCURVE",
"401 115 CURVE SMOOTH",
"400.93 41.22 OFFCURVE",
"393.27 -31.78 OFFCURVE",
"378 -104 CURVE",
"497 -120 LINE",
"512.87 -37.39 OFFCURVE",
"520.87 42.28 OFFCURVE",
"521 119 CURVE SMOOTH",
"520.92 190.88 OFFCURVE",
"512.25 265.21 OFFCURVE",
"495 342 CURVE",
"567.52 400.5 OFFCURVE",
"634.19 463.83 OFFCURVE",
"695 532 CURVE"
);
},
{
closed = 1;
nodes = (
"657.32 291.83 OFFCURVE",
"646.08 289.08 OFFCURVE",
"635.28 283.75 CURVE SMOOTH",
"609.09 269.9 OFFCURVE",
"596 246.98 OFFCURVE",
"596 215 CURVE SMOOTH",
"596.17 202.32 OFFCURVE",
"599.12 190.13 OFFCURVE",
"604.85 178.42 CURVE SMOOTH",
"618.56 152.14 OFFCURVE",
"639.94 139 OFFCURVE",
"669 139 CURVE SMOOTH",
"680.54 139.16 OFFCURVE",
"691.62 141.74 OFFCURVE",
"702.22 146.74 CURVE SMOOTH",
"728.74 160.16 OFFCURVE",
"742 182.91 OFFCURVE",
"742 215 CURVE SMOOTH",
"741.86 227.24 OFFCURVE",
"739.49 238.89 OFFCURVE",
"734.87 249.94 CURVE SMOOTH",
"722.35 277.98 OFFCURVE",
"700.39 292 OFFCURVE",
"669 292 CURVE SMOOTH"
);
},
{
closed = 1;
nodes = (
"229.32 80.83 OFFCURVE",
"218.08 78.08 OFFCURVE",
"207.28 72.75 CURVE SMOOTH",
"181.09 58.9 OFFCURVE",
"168 35.98 OFFCURVE",
"168 4 CURVE SMOOTH",
"168.17 -8.68 OFFCURVE",
"171.12 -20.87 OFFCURVE",
"176.85 -32.58 CURVE SMOOTH",
"190.56 -58.86 OFFCURVE",
"211.94 -72 OFFCURVE",
"241 -72 CURVE SMOOTH",
"252.54 -71.84 OFFCURVE",
"263.62 -69.26 OFFCURVE",
"274.22 -64.26 CURVE SMOOTH",
"300.74 -50.84 OFFCURVE",
"314 -28.09 OFFCURVE",
"314 4 CURVE SMOOTH",
"313.86 16.24 OFFCURVE",
"311.49 27.89 OFFCURVE",
"306.87 38.94 CURVE SMOOTH",
"294.35 66.98 OFFCURVE",
"272.39 81 OFFCURVE",
"241 81 CURVE SMOOTH"
);
}
);
vertWidth = 1000;
width = 850;
}
);
note = u1B1A8;
unicode = 1B1A8;
},
{
glyphname = u1B1A9;
layers = (
{
hints = (
{
place = "{527, 116}";
type = Stem;
}
);
layerId = "B7A40619-0288-44E4-A367-A835A45E2561";
paths = (
{
closed = 1;
nodes = (
"642 535 LINE",
"601.92 463.46 OFFCURVE",
"545.26 400.13 OFFCURVE",
"472 345 CURVE",
"430 432 LINE",
"532.58 506.95 OFFCURVE",
"584.24 593.95 OFFCURVE",
"585 693 CURVE SMOOTH",
"584.97 713.03 OFFCURVE",
"583.97 734.7 OFFCURVE",
"582 758 CURVE",
"639.65 811.06 OFFCURVE",
"685.99 871.72 OFFCURVE",
"721 940 CURVE",
"620 1000 LINE",
"532.74 842.17 OFFCURVE",
"369.41 725.84 OFFCURVE",
"130 651 CURVE",
"163 535 LINE",
"282.73 571.32 OFFCURVE",
"384.07 616.32 OFFCURVE",
"467 670 CURVE",
"461.04 638.52 OFFCURVE",
"444.99 607.98 OFFCURVE",
"418.84 578.38 CURVE SMOOTH",
"367.64 521.56 OFFCURVE",
"265.69 463.43 OFFCURVE",
"113 404 CURVE",
"151 294 LINE",
"219.79 319.44 OFFCURVE",
"278.12 344.77 OFFCURVE",
"326 370 CURVE",
"371 280 LINE",
"313 248 OFFCURVE",
"247 220 OFFCURVE",
"173 196 CURVE",
"205 86 LINE",
"328.43 125.97 OFFCURVE",
"435.76 178.97 OFFCURVE",
"527 245 CURVE",
"526.69 235.46 OFFCURVE",
"525.57 225.7 OFFCURVE",
"523.63 215.73 CURVE SMOOTH",
"506.49 132.56 OFFCURVE",
"420.28 55.99 OFFCURVE",
"265 -14 CURVE",
"308 -120 LINE",
"323.98 -112.77 OFFCURVE",
"339.68 -105.32 OFFCURVE",
"355.12 -97.64 CURVE SMOOTH",
"547.04 -1.72 OFFCURVE",
"643 113.82 OFFCURVE",
"643 249 CURVE SMOOTH",
"642.93 277.82 OFFCURVE",
"639.6 307.15 OFFCURVE",
"633 337 CURVE",
"675.95 382.09 OFFCURVE",
"711.62 429.76 OFFCURVE",
"740 480 CURVE"
);
}
);
vertWidth = 1000;
width = 850;
}
);
note = u1B1A9;
unicode = 1B1A9;
},
{
glyphname = u1B1AA;
layers = (
{
hints = (
{
horizontal = 1;
place = "{-4, 100}";
type = Stem;
},
{
horizontal = 1;
place = "{238, 100}";
type = Stem;
},
{
place = "{73, 116}";
type = Stem;
},
{
place = "{263, 115}";
type = Stem;
},
{
place = "{641, 119}";
type = Stem;
},
{
place = "{590, 116}";
type = Stem;
}
);
layerId = "B7A40619-0288-44E4-A367-A835A45E2561";
paths = (
{
closed = 1;
nodes = (
"720.37 807.67 OFFCURVE",
"749.04 894.67 OFFCURVE",
"760 987 CURVE",
"641 1000 LINE",
"616.47 803.62 OFFCURVE",
"498.47 647.29 OFFCURVE",
"287 531 CURVE",
"339 429 LINE",
"434.69 473.04 OFFCURVE",
"516.36 531.7 OFFCURVE",
"584 605 CURVE",
"587.83 589.35 OFFCURVE",
"589.83 574.02 OFFCURVE",
"590 559 CURVE SMOOTH",
"589.83 515.71 OFFCURVE",
"579.22 476.52 OFFCURVE",
"558.17 441.42 CURVE SMOOTH",
"524.69 386.77 OFFCURVE",
"453.3 331.63 OFFCURVE",
"344 276 CURVE",
"316.41 316.67 OFFCURVE",
"277.41 337.34 OFFCURVE",
"227 338 CURVE SMOOTH",
"192.75 338 OFFCURVE",
"162.43 327.26 OFFCURVE",
"136.06 305.78 CURVE SMOOTH",
"94.02 271.54 OFFCURVE",
"73 222.94 OFFCURVE",
"73 160 CURVE SMOOTH",
"73.21 123.02 OFFCURVE",
"82.94 90.08 OFFCURVE",
"102.2 61.17 CURVE SMOOTH",
"131.92 17.72 OFFCURVE",
"173.52 -4 OFFCURVE",
"227 -4 CURVE SMOOTH",
"260.11 -3.77 OFFCURVE",
"289.75 5.98 OFFCURVE",
"315.91 25.25 CURVE SMOOTH",
"357.3 56.64 OFFCURVE",
"378 101.56 OFFCURVE",
"378 160 CURVE SMOOTH",
"378 163 LINE",
"436.86 190.94 OFFCURVE",
"486.53 219.28 OFFCURVE",
"527 248 CURVE",
"542.27 121.44 OFFCURVE",
"541.94 0.77 OFFCURVE",
"526 -114 CURVE",
"646 -120 LINE",
"649.09 -97.86 OFFCURVE",
"651.63 -73.86 OFFCURVE",
"653.61 -48.01 CURVE SMOOTH",
"664.13 92.33 OFFCURVE",
"657.59 223.67 OFFCURVE",
"634 346 CURVE",
"681.54 406.77 OFFCURVE",
"705.54 475.77 OFFCURVE",
"706 553 CURVE SMOOTH",
"705.88 606.97 OFFCURVE",
"695.22 664.64 OFFCURVE",
"674 726 CURVE"
);
},
{
closed = 1;
nodes = (
"205.41 98.57 OFFCURVE",
"192.75 121.57 OFFCURVE",
"189 165 CURVE SMOOTH",
"189.02 172.46 OFFCURVE",
"189.28 179.6 OFFCURVE",
"189.77 186.43 CURVE SMOOTH",
"192.52 220.81 OFFCURVE",
"204.93 238 OFFCURVE",
"227 238 CURVE SMOOTH",
"229.11 237.95 OFFCURVE",
"231.46 237.76 OFFCURVE",
"234.04 237.41 CURVE SMOOTH",
"253.34 233.95 OFFCURVE",
"263 209.81 OFFCURVE",
"263 165 CURVE SMOOTH",
"262.98 157.55 OFFCURVE",
"262.71 150.46 OFFCURVE",
"262.21 143.74 CURVE SMOOTH",
"259.55 111.91 OFFCURVE",
"247.81 96 OFFCURVE",
"227 96 CURVE"
);
}
);
vertWidth = 1000;
width = 850;
}
);
note = u1B1AA;
unicode = 1B1AA;
},
{
glyphname = u1B1AB;
layers = (
{
hints = (
{
place = "{139, 111}";
type = Stem;
},
{
place = "{354, 112}";
type = Stem;
},
{
place = "{598, 116}";
type = Stem;
}
);
layerId = "B7A40619-0288-44E4-A367-A835A45E2561";
paths = (
{
closed = 1;
nodes = (
"714 367 LINE",
"709.98 558.62 OFFCURVE",
"674.65 743.95 OFFCURVE",
"608 923 CURVE",
"531 930 LINE",
"504.72 891.65 OFFCURVE",
"477.05 854.98 OFFCURVE",
"448 820 CURVE",
"440.16 885.95 OFFCURVE",
"431.83 945.95 OFFCURVE",
"423 1000 CURVE",
"310 981 LINE",
"326.24 878.02 OFFCURVE",
"337.57 786.02 OFFCURVE",
"344 705 CURVE",
"282.69 643.76 OFFCURVE",
"211.36 579.76 OFFCURVE",
"130 513 CURVE",
"140.15 473.23 OFFCURVE",
"148.5 434.34 OFFCURVE",
"155.06 396.32 CURVE SMOOTH",
"181.48 241.71 OFFCURVE",
"176.13 75.94 OFFCURVE",
"139 -101 CURVE",
"250 -120 LINE",
"294.12 77.67 OFFCURVE",
"297.12 274 OFFCURVE",
"259 469 CURVE",
"287.01 491.29 OFFCURVE",
"318.68 518.29 OFFCURVE",
"354 550 CURVE",
"359.08 381.9 OFFCURVE",
"344.08 222.57 OFFCURVE",
"309 72 CURVE",
"422 50 LINE",
"446.04 154.16 OFFCURVE",
"460.71 265.16 OFFCURVE",
"466 383 CURVE",
"518.24 300.78 OFFCURVE",
"562.91 214.45 OFFCURVE",
"600 124 CURVE",
"701 175 LINE",
"675.48 234.4 OFFCURVE",
"643.82 296.06 OFFCURVE",
"606 360 CURVE"
);
},
{
closed = 1;
nodes = (
"547.08 746.03 OFFCURVE",
"548.22 741.74 OFFCURVE",
"549.44 737.14 CURVE SMOOTH",
"574.87 640.15 OFFCURVE",
"591.06 518.77 OFFCURVE",
"598 373 CURVE",
"555.9 442.71 OFFCURVE",
"512.24 504.71 OFFCURVE",
"467 559 CURVE",
"465.65 602.37 OFFCURVE",
"464.31 635.03 OFFCURVE",
"463 657 CURVE",
"486.49 681.36 OFFCURVE",
"514.16 712.36 OFFCURVE",
"546 750 CURVE"
);
}
);
vertWidth = 1000;
width = 850;
}
);
note = u1B1AB;
unicode = 1B1AB;
},
{
glyphname = u1B1AC;
layers = (
{
hints = (
{
place = "{579, 120}";
type = Stem;
}
);
layerId = "B7A40619-0288-44E4-A367-A835A45E2561";
paths = (
{
closed = 1;
nodes = (
"777 56 LINE",
"741.92 127.06 OFFCURVE",
"702.58 192.73 OFFCURVE",
"659 253 CURVE",
"685.43 319.93 OFFCURVE",
"698.76 394.59 OFFCURVE",
"699 477 CURVE SMOOTH",
"698.87 569.79 OFFCURVE",
"679.21 674.79 OFFCURVE",
"640 792 CURVE",
"660.04 848.24 OFFCURVE",
"677.04 908.57 OFFCURVE",
"691 973 CURVE",
"573 1000 LINE",
"570.91 990.4 OFFCURVE",
"568.63 980.48 OFFCURVE",
"566.16 970.25 CURVE SMOOTH",
"518.4 773.18 OFFCURVE",
"432.68 603.76 OFFCURVE",
"309 462 CURVE",
"309 457 LINE",
"392.92 379.74 OFFCURVE",
"461.92 308.4 OFFCURVE",
"516 243 CURVE",
"486.54 196.12 OFFCURVE",
"446.54 149.79 OFFCURVE",
"396 104 CURVE",
"377.61 133.94 OFFCURVE",
"356.94 164.61 OFFCURVE",
"334 196 CURVE",
"366.81 229.99 OFFCURVE",
"394.14 261.32 OFFCURVE",
"416 290 CURVE",
"332 363 LINE",
"316.26 341.85 OFFCURVE",
"294.26 315.85 OFFCURVE",
"266 285 CURVE",
"242.72 313.22 OFFCURVE",
"213.72 345.89 OFFCURVE",
"179 383 CURVE",
"98 307 LINE",
"128.83 273.04 OFFCURVE",
"157.17 239.37 OFFCURVE",
"183 206 CURVE",
"149.2 177.11 OFFCURVE",
"112.53 150.11 OFFCURVE",
"73 125 CURVE",
"125 34 LINE",
"165 57.08 OFFCURVE",
"205.66 85.08 OFFCURVE",
"247 118 CURVE",
"260.15 99.52 OFFCURVE",
"278.82 70.18 OFFCURVE",
"303 30 CURVE",
"283.44 15.78 OFFCURVE",
"259.78 -0.22 OFFCURVE",
"232 -18 CURVE",
"289 -120 LINE",
"427.66 -42.45 OFFCURVE",
"530 43.22 OFFCURVE",
"596 137 CURVE",
"626.77 91.79 OFFCURVE",
"652.77 47.12 OFFCURVE",
"674 3 CURVE"
);
},
{
closed = 1;
nodes = (
"501.11 512.41 OFFCURVE",
"531.45 560.41 OFFCURVE",
"560 611 CURVE",
"572.48 562.68 OFFCURVE",
"578.82 516.01 OFFCURVE",
"579 471 CURVE SMOOTH",
"578.92 435.04 OFFCURVE",
"574.92 400.37 OFFCURVE",
"567 367 CURVE",
"539.66 397.79 OFFCURVE",
"507 431.12 OFFCURVE",
"469 467 CURVE"
);
}
);
vertWidth = 1000;
width = 850;
}
);
note = u1B1AC;
unicode = 1B1AC;
},
{
glyphname = u1B1AD;
layers = (
{
hints = (
{
place = "{355, 115}";
type = Stem;
}
);
layerId = "B7A40619-0288-44E4-A367-A835A45E2561";
paths = (
{
closed = 1;
nodes = (
"462.33 910.74 OFFCURVE",
"468 952.41 OFFCURVE",
"470 993 CURVE",
"355 1000 LINE",
"354.67 991.48 OFFCURVE",
"354.15 982.69 OFFCURVE",
"353.43 973.61 CURVE SMOOTH",
"339 797.41 OFFCURVE",
"240.52 636.21 OFFCURVE",
"58 490 CURVE",
"126 402 LINE",
"266.33 511.71 OFFCURVE",
"363.33 629.04 OFFCURVE",
"417 754 CURVE",
"516.11 663.34 OFFCURVE",
"608.44 554.01 OFFCURVE",
"694 426 CURVE",
"790 494 LINE",
"693.08 632.84 OFFCURVE",
"580.74 757.51 OFFCURVE",
"453 868 CURVE"
);
},
{
closed = 1;
nodes = (
"238 287 LINE",
"253.13 298.66 OFFCURVE",
"268.49 311.06 OFFCURVE",
"284.08 324.18 CURVE SMOOTH",
"386.44 410.69 OFFCURVE",
"464.41 498.29 OFFCURVE",
"518 587 CURVE",
"431 648 LINE",
"424.34 636.5 OFFCURVE",
"416.61 624.25 OFFCURVE",
"407.83 611.26 CURVE SMOOTH",
"349.61 525.8 OFFCURVE",
"272 444.71 OFFCURVE",
"175 368 CURVE"
);
},
{
closed = 1;
nodes = (
"242 94 LINE",
"258.81 105.65 OFFCURVE",
"276.14 118.32 OFFCURVE",
"294 132 CURVE SMOOTH",
"398.45 212.29 OFFCURVE",
"487.11 299.29 OFFCURVE",
"560 393 CURVE",
"478 461 LINE",
"471.84 452.93 OFFCURVE",
"465.09 444.39 OFFCURVE",
"457.76 435.39 CURVE SMOOTH",
"381.73 342.6 OFFCURVE",
"290.15 257.8 OFFCURVE",
"183 181 CURVE"
);
},
{
closed = 1;
nodes = (
"222 -120 LINE",
"240.66 -108.62 OFFCURVE",
"259.94 -96.08 OFFCURVE",
"279.86 -82.4 CURVE SMOOTH",
"407.31 5.48 OFFCURVE",
"523.02 112.62 OFFCURVE",
"627 239 CURVE",
"545 310 LINE",
"522.29 282.06 OFFCURVE",
"495.55 252.31 OFFCURVE",
"464.78 220.77 CURVE SMOOTH",
"366.47 120.35 OFFCURVE",
"266.54 37.77 OFFCURVE",
"165 -27 CURVE"
);
}
);
vertWidth = 1000;
width = 850;
}
);
note = u1B1AD;
unicode = 1B1AD;
},
{
glyphname = u1B1AE;
layers = (
{
hints = (
{
place = "{385, 121}";
type = Stem;
}
);
layerId = "B7A40619-0288-44E4-A367-A835A45E2561";
paths = (
{
closed = 1;
nodes = (
"502.25 892.15 OFFCURVE",
"505.91 946.15 OFFCURVE",
"506 1000 CURVE",
"385 1000 LINE",
"386.82 818.92 OFFCURVE",
"346.48 659.92 OFFCURVE",
"264 523 CURVE",
"159 739 LINE",
"53 689 LINE",
"212 371 LINE",
"296 365 LINE",
"375.91 468.11 OFFCURVE",
"432.91 580.78 OFFCURVE",
"467 703 CURVE",
"538.51 622.55 OFFCURVE",
"613.18 519.22 OFFCURVE",
"691 393 CURVE",
"792 455 LINE",
"704.23 599.8 OFFCURVE",
"605.23 727.47 OFFCURVE",
"495 838 CURVE"
);
},
{
closed = 1;
nodes = (
"459 542 LINE",
"458 539.36 OFFCURVE",
"456.85 536.39 OFFCURVE",
"455.57 533.07 CURVE SMOOTH",
"406.13 406.02 OFFCURVE",
"340.94 291.66 OFFCURVE",
"260 190 CURVE",
"352 120 LINE",
"439.48 229.82 OFFCURVE",
"510.81 356.48 OFFCURVE",
"566 500 CURVE"
);
},
{
closed = 1;
nodes = (
"394 -120 LINE",
"398.6 -114.35 OFFCURVE",
"403.5 -108.24 OFFCURVE",
"408.71 -101.66 CURVE SMOOTH",
"497.92 11.63 OFFCURVE",
"576.68 139.18 OFFCURVE",
"645 281 CURVE",
"540 331 LINE",
"538.16 327.16 OFFCURVE",
"536.12 322.96 OFFCURVE",
"533.88 318.4 CURVE SMOOTH",
"470.26 188.92 OFFCURVE",
"392.96 67.46 OFFCURVE",
"302 -46 CURVE"
);
}
);
vertWidth = 1000;
width = 850;
}
);
note = u1B1AE;
unicode = 1B1AE;
},
{
glyphname = u1B1AF;
layers = (
{
hints = (
{
horizontal = 1;
place = "{222, 157}";
type = Stem;
},
{
horizontal = 1;
place = "{689, 157}";
type = Stem;
},
{
place = "{73, 150}";
type = Stem;
},
{
place = "{385, 150}";
type = Stem;
},
{
place = "{627, 117}";
type = Stem;
}
);
layerId = "B7A40619-0288-44E4-A367-A835A45E2561";
paths = (
{
closed = 1;
nodes = (
"626 504 LINE",
"630.64 512.15 OFFCURVE",
"635.31 520.74 OFFCURVE",
"640.01 529.77 CURVE SMOOTH",
"698.21 642.46 OFFCURVE",
"732.88 797.54 OFFCURVE",
"744 995 CURVE",
"627 1000 LINE",
"618.14 863.86 OFFCURVE",
"600.03 755.54 OFFCURVE",
"572.64 675.04 CURVE SMOOTH",
"540.97 582.7 OFFCURVE",
"485.08 497.02 OFFCURVE",
"405 418 CURVE",
"390.69 535.15 OFFCURVE",
"348.69 663.15 OFFCURVE",
"279 802 CURVE",
"173 745 LINE",
"250.64 588.45 OFFCURVE",
"289.64 443.45 OFFCURVE",
"290 310 CURVE SMOOTH",
"289.84 194.03 OFFCURVE",
"259.18 67.03 OFFCURVE",
"198 -71 CURVE",
"309 -120 LINE",
"369.26 13.83 OFFCURVE",
"402.93 139.49 OFFCURVE",
"410 257 CURVE",
"459.28 297.32 OFFCURVE",
"501.62 337.99 OFFCURVE",
"537 379 CURVE",
"643 -18 LINE",
"756 16 LINE"
);
},
{
closed = 1;
nodes = (
"472.33 689.17 OFFCURVE",
"484.17 692.16 OFFCURVE",
"495.51 697.96 CURVE SMOOTH",
"521.83 712.32 OFFCURVE",
"535 735.33 OFFCURVE",
"535 767 CURVE SMOOTH",
"534.85 780.07 OFFCURVE",
"532.09 792.51 OFFCURVE",
"526.73 804.32 CURVE SMOOTH",
"513.29 832.11 OFFCURVE",
"491.05 846 OFFCURVE",
"460 846 CURVE SMOOTH",
"448.08 845.84 OFFCURVE",
"436.67 843.15 OFFCURVE",
"425.76 837.92 CURVE SMOOTH",
"398.59 823.99 OFFCURVE",
"385 800.35 OFFCURVE",
"385 767 CURVE SMOOTH",
"385.17 753.81 OFFCURVE",
"388.3 741.15 OFFCURVE",
"394.38 729.01 CURVE SMOOTH",
"408.58 702.34 OFFCURVE",
"430.46 689 OFFCURVE",
"460 689 CURVE SMOOTH"
);
},
{
closed = 1;
nodes = (
"222.85 313.07 OFFCURVE",
"220.09 325.51 OFFCURVE",
"214.73 337.32 CURVE SMOOTH",
"201.29 365.11 OFFCURVE",
"179.05 379 OFFCURVE",
"148 379 CURVE SMOOTH",
"136.08 378.84 OFFCURVE",
"124.67 376.15 OFFCURVE",
"113.76 370.92 CURVE SMOOTH",
"86.59 356.99 OFFCURVE",
"73 333.35 OFFCURVE",
"73 300 CURVE SMOOTH",
"73.17 286.81 OFFCURVE",
"76.3 274.15 OFFCURVE",
"82.38 262.01 CURVE SMOOTH",
"96.58 235.34 OFFCURVE",
"118.46 222 OFFCURVE",
"148 222 CURVE SMOOTH",
"160.33 222.17 OFFCURVE",
"172.17 225.16 OFFCURVE",
"183.51 230.96 CURVE SMOOTH",
"209.83 245.32 OFFCURVE",
"223 268.33 OFFCURVE",
"223 300 CURVE SMOOTH"
);
}
);
vertWidth = 1000;
width = 850;
}
);
note = u1B1AF;
unicode = 1B1AF;
},
{
glyphname = u1B1B0;
layers = (
{
hints = (
{
place = "{85, 152}";
type = Stem;
},
{
place = "{514, 122}";
type = Stem;
},
{
horizontal = 1;
place = "{575, 159}";
type = Stem;
},
{
place = "{627, 152}";
type = Stem;
},
{
horizontal = 1;
place = "{509, 159}";
type = Stem;
}
);
layerId = "B7A40619-0288-44E4-A367-A835A45E2561";
paths = (
{
closed = 1;
nodes = (
"514 1000 LINE",
"499.11 903.38 OFFCURVE",
"471.11 811.71 OFFCURVE",
"430 725 CURVE",
"359.52 793.35 OFFCURVE",
"285.85 855.69 OFFCURVE",
"209 912 CURVE",
"140 818 LINE",
"219.5 755.97 OFFCURVE",
"295.5 687.3 OFFCURVE",
"368 612 CURVE",
"299.98 507.8 OFFCURVE",
"208.98 410.13 OFFCURVE",
"95 319 CURVE",
"168 222 LINE",
"285.13 309.28 OFFCURVE",
"380.79 407.28 OFFCURVE",
"455 516 CURVE",
"520.38 440.6 OFFCURVE",
"578.05 361.93 OFFCURVE",
"628 280 CURVE",
"731 349 LINE",
"672.85 446.4 OFFCURVE",
"603.52 540.07 OFFCURVE",
"523 630 CURVE",
"577.79 734.96 OFFCURVE",
"615.46 852.96 OFFCURVE",
"636 984 CURVE"
);
},
{
closed = 1;
nodes = (
"690.19 733.82 OFFCURVE",
"677.96 730.66 OFFCURVE",
"666.32 724.51 CURVE SMOOTH",
"640.11 709.75 OFFCURVE",
"627 686.24 OFFCURVE",
"627 654 CURVE SMOOTH",
"627.18 640.17 OFFCURVE",
"630.55 626.97 OFFCURVE",
"637.12 614.41 CURVE SMOOTH",
"651.7 588.14 OFFCURVE",
"673.66 575 OFFCURVE",
"703 575 CURVE SMOOTH",
"715.96 575.18 OFFCURVE",
"728.32 578.41 OFFCURVE",
"740.09 584.69 CURVE SMOOTH",
"766.03 599.44 OFFCURVE",
"779 622.55 OFFCURVE",
"779 654 CURVE SMOOTH",
"778.84 667.72 OFFCURVE",
"775.85 680.7 OFFCURVE",
"770.03 692.94 CURVE SMOOTH",
"756.19 720.31 OFFCURVE",
"733.85 734 OFFCURVE",
"703 734 CURVE SMOOTH"
);
},
{
closed = 1;
nodes = (
"173.96 509.18 OFFCURVE",
"186.32 512.41 OFFCURVE",
"198.09 518.69 CURVE SMOOTH",
"224.03 533.44 OFFCURVE",
"237 556.55 OFFCURVE",
"237 588 CURVE SMOOTH",
"236.84 601.72 OFFCURVE",
"233.85 614.7 OFFCURVE",
"228.03 626.94 CURVE SMOOTH",
"214.19 654.31 OFFCURVE",
"191.85 668 OFFCURVE",
"161 668 CURVE SMOOTH",
"148.19 667.82 OFFCURVE",
"135.96 664.66 OFFCURVE",
"124.32 658.51 CURVE SMOOTH",
"98.11 643.75 OFFCURVE",
"85 620.24 OFFCURVE",
"85 588 CURVE SMOOTH",
"85.18 574.17 OFFCURVE",
"88.55 560.97 OFFCURVE",
"95.12 548.41 CURVE SMOOTH",
"109.7 522.14 OFFCURVE",
"131.66 509 OFFCURVE",
"161 509 CURVE SMOOTH"
);
},
{
closed = 1;
nodes = (
"372 337 LINE",
"390.78 171.31 OFFCURVE",
"387.44 25.31 OFFCURVE",
"362 -101 CURVE",
"480 -120 LINE",
"508.43 15.44 OFFCURVE",
"512.76 172.44 OFFCURVE",
"493 351 CURVE"
);
}
);
vertWidth = 1000;
width = 850;
}
);
note = u1B1B0;
unicode = 1B1B0;
},
{
glyphname = u1B1B1;
layers = (
{
hints = (
{
place = "{208, 116}";
type = Stem;
},
{
place = "{434, 108}";
type = Stem;
}
);
layerId = "B7A40619-0288-44E4-A367-A835A45E2561";
paths = (
{
closed = 1;
nodes = (
"669 497 LINE",
"646 457 OFFCURVE",
"623 419 OFFCURVE",
"600 383 CURVE",
"535 517 LINE",
"432 465 LINE",
"523 276 LINE",
"496.58 242.73 OFFCURVE",
"472.25 214.06 OFFCURVE",
"450 190 CURVE",
"430.64 285.55 OFFCURVE",
"401.31 391.88 OFFCURVE",
"362 509 CURVE",
"455.02 648.82 OFFCURVE",
"515.02 808.82 OFFCURVE",
"542 989 CURVE",
"434 1000 LINE",
"413.93 866.53 OFFCURVE",
"373.59 747.53 OFFCURVE",
"313 643 CURVE",
"287.84 709.69 OFFCURVE",
"260.17 775.35 OFFCURVE",
"230 840 CURVE",
"128 789 LINE",
"172.12 696.48 OFFCURVE",
"208.79 609.82 OFFCURVE",
"238 529 CURVE",
"201.13 479.29 OFFCURVE",
"156.8 427.95 OFFCURVE",
"105 375 CURVE",
"182 292 LINE",
"218.3 327.38 OFFCURVE",
"251.63 363.72 OFFCURVE",
"282 401 CURVE",
"314.92 294.33 OFFCURVE",
"340.59 183 OFFCURVE",
"359 67 CURVE",
"451 29 LINE",
"497.05 75.1 OFFCURVE",
"539.05 120.77 OFFCURVE",
"577 166 CURVE",
"656 2 LINE",
"759 54 LINE",
"656 266 LINE",
"702.28 329.98 OFFCURVE",
"738.61 387.32 OFFCURVE",
"765 438 CURVE"
);
},
{
closed = 1;
nodes = (
"140 190 LINE",
"180.16 88.87 OFFCURVE",
"202.82 -14.46 OFFCURVE",
"208 -120 CURVE",
"324 -109 LINE",
"316.06 18.35 OFFCURVE",
"289.39 134.01 OFFCURVE",
"244 238 CURVE"
);
}
);
vertWidth = 1000;
width = 850;
}
);
note = u1B1B1;
unicode = 1B1B1;
},
{
glyphname = u1B1B2;
layers = (
{
hints = (
{
horizontal = 1;
place = "{396, 99}";
type = Stem;
},
{
horizontal = 1;
place = "{627, 99}";
type = Stem;
},
{
place = "{48, 129}";
type = Stem;
},
{
place = "{245, 128}";
type = Stem;
},
{
place = "{584, 120}";
type = Stem;
},
{
place = "{474, 120}";
type = Stem;
}
);
layerId = "B7A40619-0288-44E4-A367-A835A45E2561";
paths = (
{
closed = 1;
nodes = (
"668.15 723.68 OFFCURVE",
"695.81 853.35 OFFCURVE",
"704 992 CURVE",
"584 1000 LINE",
"577.08 904.17 OFFCURVE",
"559.41 810.84 OFFCURVE",
"531 720 CURVE",
"471 791 OFFCURVE",
"407 858 OFFCURVE",
"339 921 CURVE",
"256 838 LINE",
"332.2 764.67 OFFCURVE",
"406.53 681 OFFCURVE",
"479 587 CURVE",
"418 457 OFFCURVE",
"332 338 OFFCURVE",
"221 230 CURVE",
"304 141 LINE",
"410.29 242.4 OFFCURVE",
"495.62 352.73 OFFCURVE",
"560 472 CURVE",
"611.2 394.04 OFFCURVE",
"652.87 320.71 OFFCURVE",
"685 252 CURVE",
"794 305 LINE",
"748.65 404.19 OFFCURVE",
"690.99 503.52 OFFCURVE",
"621 603 CURVE"
);
},
{
closed = 1;
nodes = (
"372.79 593.23 OFFCURVE",
"362.78 627.89 OFFCURVE",
"342.95 657.99 CURVE SMOOTH",
"312.29 703.33 OFFCURVE",
"268.64 726 OFFCURVE",
"212 726 CURVE SMOOTH",
"175.09 725.77 OFFCURVE",
"142.23 715.03 OFFCURVE",
"113.43 693.79 CURVE SMOOTH",
"69.81 660.75 OFFCURVE",
"48 614.15 OFFCURVE",
"48 554 CURVE SMOOTH",
"48.23 518.78 OFFCURVE",
"58.27 487.38 OFFCURVE",
"78.12 459.79 CURVE SMOOTH",
"109.59 417.27 OFFCURVE",
"154.21 396 OFFCURVE",
"212 396 CURVE SMOOTH",
"247.54 396.21 OFFCURVE",
"279.25 405.61 OFFCURVE",
"307.11 424.2 CURVE SMOOTH",
"351.03 454.33 OFFCURVE",
"373 497.59 OFFCURVE",
"373 554 CURVE SMOOTH"
);
},
{
closed = 1;
nodes = (
"191.68 497.11 OFFCURVE",
"180.01 518.44 OFFCURVE",
"177 559 CURVE SMOOTH",
"177.02 564.28 OFFCURVE",
"177.16 569.54 OFFCURVE",
"177.42 574.79 CURVE SMOOTH",
"179.45 609.6 OFFCURVE",
"190.98 627 OFFCURVE",
"212 627 CURVE",
"230.63 624.45 OFFCURVE",
"241.63 601.79 OFFCURVE",
"245 559 CURVE SMOOTH",
"244.98 553.73 OFFCURVE",
"244.84 548.51 OFFCURVE",
"244.57 543.33 CURVE SMOOTH",
"242.61 511.11 OFFCURVE",
"231.76 495 OFFCURVE",
"212 495 CURVE SMOOTH"
);
},
{
closed = 1;
nodes = (
"486 317 LINE",
"488.48 295.17 OFFCURVE",
"490.48 272.02 OFFCURVE",
"492.02 247.55 CURVE SMOOTH",
"500.34 112.24 OFFCURVE",
"494.33 -3.94 OFFCURVE",
"474 -101 CURVE",
"594 -120 LINE",
"599.14 -97.64 OFFCURVE",
"603.63 -72.71 OFFCURVE",
"607.48 -45.2 CURVE SMOOTH",
"625.02 81.97 OFFCURVE",
"625.19 207.04 OFFCURVE",
"608 330 CURVE"
);
}
);
vertWidth = 1000;
width = 850;
}
);
note = u1B1B2;
unicode = 1B1B2;
},
